<?xml version="1.0"?><svg xmlns="http://www.w3.org/2000/svg" xmlns:xlink= "http://www.w3.org/1999/xlink" style="background: white;" width="1500" height="300"> <g style="color: black; font-size: 13px; font-family: sans-serif; transform: translate(18px, 25px);"><g><circle r="3" cx="-6" cy="-5" style="fill: #1AD4B3" /><text>Borrow APR, variable</text></g><g style="transform: translateX(150px);"><circle r="3" cx="-6" cy="-5" style="fill: #101423" /><text>Borrow APR, stable</text></g></g><g class="visx-group" transform="translate(45, 50)"><g class="visx-group visx-rows" transform="translate(0, 0)"><line class="visx-line" x1="0" y1="155" x2="1425" y2="155" fill="transparent" shape-rendering="crispEdges" stroke="#F2F0F9" stroke-width="1" pointer-events="none"></line><line class="visx-line" x1="0" y1="77.5" x2="1425" y2="77.5" fill="transparent" shape-rendering="crispEdges" stroke="#F2F0F9" stroke-width="1" pointer-events="none"></line><line class="visx-line" x1="0" y1="0" x2="1425" y2="0" fill="transparent" shape-rendering="crispEdges" stroke="#F2F0F9" stroke-width="1" pointer-events="none"></line></g><path class="visx-linepath" d="M0,154.99999999994316C2.375,154.99052777774463,4.75,154.98105555554608,7.125,154.97158333333334C9.5,154.9621111111206,11.875,154.9526388888889,14.25,154.94316666666668C16.625,154.93369444444446,19,154.92422222222223,21.375,154.91475C23.75,154.90527777777777,26.125,154.89580555555557,28.5,154.88633333333334C30.875,154.8768611111111,33.25,154.86738888888888,35.625,154.85791666666665C38,154.84844444444443,40.375,154.83897222222222,42.75,154.8295C45.125,154.82002777777777,47.50000000000001,154.81055555555557,49.87500000000001,154.80108333333334C52.25000000000001,154.7916111111111,54.625,154.7821388888889,57,154.77266666666668C59.375,154.76319444444445,61.75,154.75372222222222,64.125,154.74425C66.5,154.73477777777777,68.875,154.72530555555556,71.25,154.71583333333334C73.625,154.7063611111111,76,154.6968888888889,78.375,154.68741666666668C80.75,154.67794444444445,83.125,154.66847222222222,85.5,154.659C87.875,154.64952777777776,90.25,154.64005555555556,92.625,154.63058333333333C95,154.6211111111111,97.37500000000001,154.61163888888888,99.75000000000001,154.60216666666665C102.12500000000001,154.59269444444442,104.5,154.58322222222222,106.875,154.57375C109.25,154.56427777777776,111.625,154.55480555555556,114,154.54533333333333C116.375,154.5358611111111,118.75000000000001,154.5263888888889,121.12500000000001,154.51691666666667C123.50000000000001,154.50744444444445,125.875,154.49797222222224,128.25,154.48850000000002C130.625,154.4790277777778,133,154.46955555555556,135.375,154.46008333333333C137.75,154.4506111111111,140.125,154.4411388888889,142.5,154.43166666666667C144.875,154.42219444444444,147.25,154.41272222222221,149.625,154.40324999999999C152,154.39377777777776,154.375,154.38430555555556,156.75,154.37483333333333C159.125,154.3653611111111,161.5,154.3558888888889,163.875,154.34641666666667C166.25,154.33694444444444,168.625,154.32747222222224,171,154.318C173.375,154.30852777777778,175.75,154.29905555555555,178.125,154.28958333333333C180.5,154.2801111111111,182.875,154.2706388888889,185.25,154.26116666666667C187.625,154.25169444444444,190,154.24222222222224,192.375,154.23275C194.75,154.22327777777778,197.12500000000003,154.21380555555555,199.50000000000003,154.20433333333332C201.875,154.1948611111111,204.25,154.1853888888889,206.62499999999997,154.17591666666667C208.99999999999997,154.16644444444444,211.375,154.15697222222224,213.75,154.1475C216.125,154.13802777777778,218.5,154.12855555555555,220.875,154.11908333333332C223.25,154.1096111111111,225.625,154.1001388888889,228,154.09066666666666C230.375,154.08119444444444,232.75,154.07172222222223,235.125,154.06225C237.5,154.05277777777778,239.87500000000003,154.04330555555558,242.25000000000003,154.03383333333335C244.625,154.02436111111112,247,154.0148888888889,249.37499999999997,154.00541666666666C251.74999999999997,153.99594444444443,254.125,153.98647222222223,256.5,153.977C258.875,153.96752777777778,261.25,153.95805555555555,263.625,153.94858333333332C266,153.9391111111111,268.375,153.9296388888889,270.75,153.92016666666666C273.125,153.91069444444443,275.5,153.90122222222223,277.875,153.89175C280.25,153.88227777777777,282.625,153.87280555555557,285,153.86333333333334C287.375,153.85386111111112,289.75,153.84438888888891,292.125,153.8349166666667C294.5,153.82544444444446,296.875,153.81597222222223,299.25,153.8065C301.625,153.79702777777777,304,153.78755555555557,306.375,153.77808333333334C308.75,153.7686111111111,311.125,153.75913888888888,313.5,153.74966666666666C315.875,153.74019444444443,318.25,153.73072222222223,320.625,153.72125C323,153.71177777777777,325.375,153.70230555555557,327.75,153.69283333333334C330.125,153.6833611111111,332.5,153.67388888888888,334.875,153.66441666666665C337.25,153.65494444444442,339.625,153.64547222222222,342,153.636C344.375,153.62652777777777,346.75,153.61705555555557,349.125,153.60758333333334C351.5,153.5981111111111,353.875,153.5886388888889,356.25,153.57916666666668C358.625,153.56969444444445,361,153.56022222222222,363.375,153.55075C365.75,153.54127777777776,368.125,153.53180555555556,370.5,153.52233333333334C372.875,153.5128611111111,375.25,153.50338888888888,377.625,153.49391666666665C380,153.48444444444442,382.375,153.47497222222222,384.75,153.4655C387.125,153.45602777777776,389.50000000000006,153.44655555555556,391.87500000000006,153.43708333333333C394.25000000000006,153.4276111111111,396.62500000000006,153.4181388888889,399.00000000000006,153.40866666666668C401.375,153.39919444444445,403.75,153.38972222222225,406.12499999999994,153.38025000000002C408.49999999999994,153.3707777777778,410.87499999999994,153.36130555555556,413.24999999999994,153.35183333333333C415.62499999999994,153.3423611111111,418,153.3328888888889,420.375,153.32341666666667C422.75,153.31394444444445,425.125,153.30447222222222,427.5,153.295C429.875,153.28552777777776,432.25,153.27605555555556,434.625,153.26658333333333C437,153.2571111111111,439.375,153.2476388888889,441.75,153.23816666666667C444.125,153.22869444444444,446.5,153.21922222222224,448.875,153.20975C451.25,153.20027777777779,453.625,153.19080555555556,456,153.18133333333333C458.375,153.1718611111111,460.75,153.1623888888889,463.125,153.15291666666667C465.5,153.14344444444444,467.875,153.13397222222224,470.25,153.1245C472.625,153.11502777777778,475.00000000000006,153.10555555555555,477.37500000000006,153.09608333333333C479.75000000000006,153.0866111111111,482.12500000000006,153.0771388888889,484.50000000000006,153.06766666666667C486.875,153.05819444444444,489.25,153.0487222222222,491.62499999999994,153.03924999999998C493.99999999999994,153.02977777777775,496.37499999999994,153.02030555555555,498.74999999999994,153.01083333333332C501.12499999999994,153.0013611111111,503.5,152.9918888888889,505.875,152.98241666666667C508.25,152.97294444444444,510.625,152.96347222222224,513,152.954C515.375,152.94452777777778,517.75,152.93505555555558,520.125,152.92558333333335C522.5,152.91611111111112,524.875,152.9066388888889,527.25,152.89716666666666C529.625,152.88769444444443,532,152.87822222222223,534.375,152.86875C536.75,152.85927777777778,539.125,152.84980555555555,541.5,152.84033333333332C543.875,152.8308611111111,546.25,152.8213888888889,548.625,152.81191666666666C551,152.80244444444443,553.375,152.79297222222223,555.75,152.7835C558.125,152.77402777777777,560.5,152.76455555555557,562.875,152.75508333333335C565.25,152.74561111111112,567.625,152.7361388888889,570,152.72666666666666C572.375,152.71719444444443,574.75,152.70772222222223,577.125,152.69825C579.5,152.68877777777777,581.875,152.67930555555557,584.25,152.66983333333334C586.625,152.66036111111111,589,152.6508888888889,591.375,152.64141666666666C593.75,152.63194444444443,596.125,152.62247222222223,598.5,152.613C600.875,152.60352777777777,603.25,152.59405555555557,605.625,152.58458333333334C608,152.5751111111111,610.375,152.56563888888888,612.75,152.55616666666666C615.125,152.54669444444443,617.5,152.53722222222223,619.875,152.52775C622.25,152.51827777777777,624.625,152.50880555555557,627,152.49933333333334C629.375,152.4898611111111,631.75,152.4803888888889,634.125,152.47091666666668C636.5,152.46144444444445,638.875,152.45197222222222,641.25,152.4425C643.625,152.43302777777777,646,152.42355555555557,648.375,152.41408333333334C650.75,152.4046111111111,653.125,152.39513888888888,655.5,152.38566666666665C657.875,152.37619444444442,660.25,152.36672222222222,662.625,152.35725C665,152.34777777777776,667.375,152.33830555555556,669.75,152.32883333333334C672.125,152.3193611111111,674.5,152.3098888888889,676.875,152.30041666666668C679.25,152.29094444444445,681.625,152.28147222222225,684,152.27200000000002C686.375,152.2625277777778,688.75,152.25305555555556,691.125,152.24358333333333C693.5,152.2341111111111,695.875,152.2246388888889,698.25,152.21516666666668C700.625,152.20569444444445,703,152.19622222222222,705.375,152.18675C707.75,152.17727777777776,710.125,152.16780555555556,712.5,152.15833333333333C714.875,152.1488611111111,717.25,152.1393888888889,719.625,152.12991666666667C722,152.12044444444444,724.375,152.11097222222222,726.75,152.1015C729.125,152.09202777777776,731.5,152.08255555555556,733.875,152.07308333333333C736.25,152.0636111111111,738.625,152.0541388888889,741,152.04466666666667C743.375,152.03519444444444,745.75,152.02572222222224,748.125,152.01625C750.5,152.00677777777778,752.875,151.99730555555556,755.25,151.98783333333333C757.625,151.9783611111111,760,151.9688888888889,762.375,151.95941666666667C764.75,151.94994444444444,767.125,151.9404722222222,769.5,151.93099999999998C771.875,151.92152777777775,774.2500000000001,151.91205555555555,776.6250000000001,151.90258333333333C779.0000000000001,151.8931111111111,781.3750000000001,151.8836388888889,783.7500000000001,151.87416666666667C786.1250000000001,151.86469444444444,788.5000000000001,151.85522222222224,790.8750000000001,151.84575C793.2500000000001,151.83627777777778,795.6250000000001,151.82680555555558,798.0000000000001,151.81733333333335C800.375,151.80786111111112,802.75,151.7983888888889,805.1249999999999,151.78891666666667C807.4999999999999,151.77944444444444,809.8749999999999,151.76997222222224,812.2499999999999,151.7605C814.6249999999999,151.75102777777778,816.9999999999999,151.74155555555555,819.3749999999999,151.73208333333332C821.7499999999999,151.7226111111111,824.1249999999999,151.7131388888889,826.4999999999999,151.70366666666666C828.8749999999999,151.69419444444443,831.25,151.68472222222223,833.625,151.67525C836,151.66577777777778,838.375,151.65630555555558,840.75,151.64683333333335C843.125,151.63736111111112,845.5,151.6278888888889,847.875,151.61841666666666C850.25,151.60894444444443,852.625,151.59947222222223,855,151.59C857.375,151.58052777777777,859.75,151.57105555555557,862.125,151.56158333333335C864.5,151.55211111111112,866.875,151.5426388888889,869.25,151.53316666666666C871.625,151.52369444444443,874,151.51422222222223,876.375,151.50475C878.75,151.49527777777777,881.125,151.48580555555554,883.5,151.47633333333332C885.875,151.4668611111111,888.25,151.4573888888889,890.625,151.44791666666666C893,151.43844444444443,895.375,151.42897222222223,897.75,151.4195C900.125,151.41002777777777,902.5,151.40055555555557,904.875,151.39108333333334C907.25,151.3816111111111,909.625,151.3721388888889,912,151.36266666666668C914.375,151.35319444444445,916.75,151.34372222222223,919.125,151.33425C921.5,151.32477777777777,923.875,151.31530555555557,926.25,151.30583333333334C928.625,151.2963611111111,931,151.28688888888888,933.375,151.27741666666665C935.75,151.26794444444442,938.125,151.25847222222222,940.5,151.249C942.875,151.23952777777777,945.25,151.23005555555557,947.625,151.22058333333334C950,151.2111111111111,952.3750000000001,151.2016388888889,954.7500000000001,151.19216666666668C957.1250000000001,151.18269444444445,959.5000000000001,151.17322222222222,961.8750000000001,151.16375C964.2500000000001,151.15427777777776,966.6250000000001,151.14480555555556,969.0000000000001,151.13533333333334C971.3750000000001,151.1258611111111,973.7500000000001,151.1163888888889,976.1250000000001,151.10691666666668C978.5,151.09744444444445,980.875,151.08797222222222,983.2499999999999,151.0785C985.6249999999999,151.06902777777776,987.9999999999999,151.05955555555556,990.3749999999999,151.05008333333333C992.7499999999999,151.0406111111111,995.1249999999999,151.0311388888889,997.4999999999999,151.02166666666668C999.8749999999999,151.01219444444445,1002.2499999999999,151.00272222222222,1004.6249999999999,150.99325C1006.9999999999999,150.98377777777776,1009.375,150.97430555555556,1011.75,150.96483333333333C1014.125,150.9553611111111,1016.5,150.9458888888889,1018.875,150.93641666666667C1021.25,150.92694444444444,1023.625,150.91747222222224,1026,150.90800000000002C1028.375,150.8985277777778,1030.75,150.88905555555556,1033.125,150.87958333333333C1035.5,150.8701111111111,1037.875,150.8606388888889,1040.25,150.85116666666667C1042.625,150.84169444444444,1045,150.8322222222222,1047.375,150.82274999999998C1049.75,150.81327777777776,1052.125,150.80380555555556,1054.5,150.79433333333333C1056.875,150.7848611111111,1059.25,150.7753888888889,1061.625,150.76591666666667C1064,150.75644444444444,1066.375,150.74697222222224,1068.75,150.7375C1071.125,150.72802777777778,1073.5,150.71855555555558,1075.875,150.70908333333335C1078.25,150.69961111111112,1080.625,150.6901388888889,1083,150.68066666666667C1085.375,150.67119444444444,1087.75,150.66172222222224,1090.125,150.65225C1092.5,150.64277777777778,1094.875,150.63330555555555,1097.25,150.62383333333332C1099.625,150.6143611111111,1102,150.6048888888889,1104.375,150.59541666666667C1106.75,150.58594444444444,1109.125,150.57647222222224,1111.5,150.567C1113.875,150.55752777777778,1116.25,150.54805555555555,1118.625,150.53858333333332C1121,150.5291111111111,1123.375,150.5196388888889,1125.75,150.51016666666666C1128.125,150.50069444444443,1130.5,150.49122222222223,1132.875,150.48175C1135.25,150.47227777777778,1137.625,150.46280555555558,1140,150.45333333333335C1142.375,150.44386111111112,1144.75,150.4343888888889,1147.125,150.42491666666666C1149.5,150.41544444444443,1151.875,150.40597222222223,1154.25,150.3965C1156.625,150.38702777777777,1159,150.37755555555555,1161.375,150.36808333333332C1163.75,150.3586111111111,1166.125,150.3491388888889,1168.5,150.33966666666666C1170.875,150.33019444444443,1173.25,150.32072222222223,1175.625,150.31125C1178,150.30177777777777,1180.375,150.29230555555557,1182.75,150.28283333333334C1185.125,150.27336111111111,1187.5,150.2638888888889,1189.875,150.25441666666669C1192.25,150.24494444444446,1194.625,150.23547222222223,1197,150.226C1199.375,150.21652777777777,1201.75,150.20705555555557,1204.125,150.19758333333334C1206.5,150.1881111111111,1208.875,150.17863888888888,1211.25,150.16916666666665C1213.625,150.15969444444443,1216,150.15022222222223,1218.375,150.14075C1220.75,150.13127777777777,1223.125,150.12180555555557,1225.5,150.11233333333334C1227.875,150.1028611111111,1230.25,150.0933888888889,1232.625,150.08391666666668C1235,150.07444444444445,1237.375,150.06497222222222,1239.75,150.0555C1242.125,150.04602777777777,1244.5,150.03655555555557,1246.875,150.02708333333334C1249.25,150.0176111111111,1251.625,150.0081388888889,1254,149.99866666666668C1256.375,149.98919444444445,1258.75,149.97972222222222,1261.125,149.97025C1263.5,149.96077777777776,1265.875,149.95130555555556,1268.25,149.94183333333334C1270.625,149.9323611111111,1273,149.92288888888888,1275.375,149.91341666666665C1277.75,149.90394444444442,1280.125,149.90394444444442,1282.5,149.885C1284.875,149.86605555555556,1287.25,145.75166666666667,1289.625,143.685C1292,141.61833333333334,1294.375,139.55166666666668,1296.75,137.485C1299.125,135.41833333333335,1301.5,133.35166666666666,1303.875,131.285C1306.25,129.21833333333333,1308.625,127.15166666666666,1311,125.085C1313.375,123.01833333333333,1315.75,120.95166666666667,1318.125,118.885C1320.5,116.81833333333334,1322.875,114.75166666666667,1325.25,112.685C1327.625,110.61833333333334,1330,108.55166666666668,1332.375,106.48500000000001C1334.75,104.41833333333335,1337.125,102.35166666666666,1339.5,100.285C1341.875,98.21833333333333,1344.25,96.15166666666666,1346.625,94.085C1349,92.01833333333333,1351.375,89.95166666666665,1353.75,87.88499999999999C1356.125,85.81833333333333,1358.5,83.75166666666667,1360.875,81.685C1363.25,79.61833333333334,1365.625,77.55166666666666,1368,75.485C1370.375,73.41833333333334,1372.75,71.35166666666666,1375.125,69.285C1377.5,67.21833333333333,1379.875,65.15166666666667,1382.25,63.08500000000001C1384.625,61.018333333333345,1387,58.95166666666667,1389.375,56.885C1391.75,54.81833333333333,1394.125,52.75166666666664,1396.5,50.684999999999974C1398.875,48.61833333333331,1401.25,46.55166666666667,1403.625,44.48500000000001C1406,42.418333333333344,1408.375,40.35166666666666,1410.75,38.285C1413.125,36.218333333333334,1415.5,34.15166666666667,1417.875,32.08500000000001C1420.25,30.01833333333334,1422.625,27.951666666666675,1425,25.885000000000005" fill="transparent" stroke-linecap="round" stroke="#1AD4B3" stroke-width="2"></path><g class="visx-group visx-axis visx-axis-bottom" transform="translate(0, 155)"><g class="visx-group visx-axis-tick" transform="translate(0, 0)"><line class="visx-line" x1="0" y1="0" x2="0" y2="8" fill="transparent" shape-rendering="crispEdges" stroke="#F2F0F9" stroke-width="1" stroke-linecap="square"></line><svg x="0" y="0" font-size="11" style="overflow:visible"><text transform="" x="0" y="19" fill="#1B2030" font-size="11" text-anchor="middle"><tspan x="0" dy="0em">0%</tspan></text></svg></g><g class="visx-group visx-axis-tick" transform="translate(0, 0)"><line class="visx-line" x1="356.25" y1="0" x2="356.25" y2="8" fill="transparent" shape-rendering="crispEdges" stroke="#F2F0F9" stroke-width="1" stroke-linecap="square"></line><svg x="0" y="0" font-size="11" style="overflow:visible"><text transform="" x="356.25" y="19" fill="#1B2030" font-size="11" text-anchor="middle"><tspan x="356.25" dy="0em">25%</tspan></text></svg></g><g class="visx-group visx-axis-tick" transform="translate(0, 0)"><line class="visx-line" x1="712.5" y1="0" x2="712.5" y2="8" fill="transparent" shape-rendering="crispEdges" stroke="#F2F0F9" stroke-width="1" stroke-linecap="square"></line><svg x="0" y="0" font-size="11" style="overflow:visible"><text transform="" x="712.5" y="19" fill="#1B2030" font-size="11" text-anchor="middle"><tspan x="712.5" dy="0em">50%</tspan></text></svg></g><g class="visx-group visx-axis-tick" transform="translate(0, 0)"><line class="visx-line" x1="1068.75" y1="0" x2="1068.75" y2="8" fill="transparent" shape-rendering="crispEdges" stroke="#F2F0F9" stroke-width="1" stroke-linecap="square"></line><svg x="0" y="0" font-size="11" style="overflow:visible"><text transform="" x="1068.75" y="19" fill="#1B2030" font-size="11" text-anchor="middle"><tspan x="1068.75" dy="0em">75%</tspan></text></svg></g><g class="visx-group visx-axis-tick" transform="translate(0, 0)"><line class="visx-line" x1="1425" y1="0" x2="1425" y2="8" fill="transparent" shape-rendering="crispEdges" stroke="#F2F0F9" stroke-width="1" stroke-linecap="square"></line><svg x="0" y="0" font-size="11" style="overflow:visible"><text transform="" x="1425" y="19" fill="#1B2030" font-size="11" text-anchor="middle"><tspan x="1425" dy="0em">100%</tspan></text></svg></g></g><g class="visx-group visx-axis visx-axis-left" transform="translate(0, 0)"><g class="visx-group visx-axis-tick" transform="translate(0, 0)"><line class="visx-line" x1="0" y1="155" x2="-8" y2="155" fill="transparent" shape-rendering="crispEdges" stroke="#F2F0F9" stroke-width="1" stroke-linecap="square"></line><svg x="-30" y="0" font-size="11" style="overflow:visible"><text transform="" x="-8" y="155" fill="#1B2030" font-size="11" text-anchor="start"><tspan x="-8" dy="0em">0%</tspan></text></svg></g><g class="visx-group visx-axis-tick" transform="translate(0, 0)"><line class="visx-line" x1="0" y1="77.5" x2="-8" y2="77.5" fill="transparent" shape-rendering="crispEdges" stroke="#F2F0F9" stroke-width="1" stroke-linecap="square"></line><svg x="-30" y="0" font-size="11" style="overflow:visible"><text transform="" x="-8" y="77.5" fill="#1B2030" font-size="11" text-anchor="start"><tspan x="-8" dy="0em">50%</tspan></text></svg></g><g class="visx-group visx-axis-tick" transform="translate(0, 0)"><line class="visx-line" x1="0" y1="0" x2="-8" y2="0" fill="transparent" shape-rendering="crispEdges" stroke="#F2F0F9" stroke-width="1" stroke-linecap="square"></line><svg x="-30" y="0" font-size="11" style="overflow:visible"><text transform="" x="-8" y="0" fill="#1B2030" font-size="11" text-anchor="start"><tspan x="-8" dy="0em">100%</tspan></text></svg></g><line class="visx-line visx-axis-line" x1="0" y1="155.5" x2="0" y2="0.5" fill="transparent" shape-rendering="crispEdges" stroke="#F2F0F9" stroke-width="1"></line></g><rect class="visx-bar" width="1425" height="155" fill="transparent"></rect><line class="visx-line" x1="1282.5" y1="58" x2="1282.5" y2="155" fill="transparent" shape-rendering="crispEdges" stroke="#CDC8E1" stroke-width="1" pointer-events="none" stroke-dasharray="5"></line><svg x="0" y="0" font-size="11px" style="overflow:visible"><text transform="" x="1282.5" y="50" font-size="11px" fill="#555069" stroke="#FFFFFF" stroke-width="1px" text-anchor="middle"><tspan x="1282.5" dy="0.355em">uOptimal 90%</tspan></text></svg><svg x="0" y="0" font-size="11px" style="overflow:visible"><text transform="" x="1282.5" y="50" font-size="11px" fill="#CDC8E1" text-anchor="middle"><tspan x="1282.5" dy="0.355em">uOptimal 90%</tspan></text></svg></g></svg>