<?xml version="1.0"?><svg xmlns="http://www.w3.org/2000/svg" xmlns:xlink= "http://www.w3.org/1999/xlink" style="background: white;" width="1500" height="300"> <g style="color: black; font-size: 13px; font-family: sans-serif; transform: translate(18px, 25px);"><g><circle r="3" cx="-6" cy="-5" style="fill: #1AD4B3" /><text>Borrow APR, variable</text></g><g style="transform: translateX(150px);"><circle r="3" cx="-6" cy="-5" style="fill: #101423" /><text>Borrow APR, stable</text></g></g><g class="visx-group" transform="translate(45, 50)"><g class="visx-group visx-rows" transform="translate(0, 0)"><line class="visx-line" x1="0" y1="155" x2="1425" y2="155" fill="transparent" shape-rendering="crispEdges" stroke="#F2F0F9" stroke-width="1" pointer-events="none"></line><line class="visx-line" x1="0" y1="110.71428571428572" x2="1425" y2="110.71428571428572" fill="transparent" shape-rendering="crispEdges" stroke="#F2F0F9" stroke-width="1" pointer-events="none"></line><line class="visx-line" x1="0" y1="66.42857142857143" x2="1425" y2="66.42857142857143" fill="transparent" shape-rendering="crispEdges" stroke="#F2F0F9" stroke-width="1" pointer-events="none"></line><line class="visx-line" x1="0" y1="22.14285714285715" x2="1425" y2="22.14285714285715" fill="transparent" shape-rendering="crispEdges" stroke="#F2F0F9" stroke-width="1" pointer-events="none"></line></g><path class="visx-linepath" d="M0,154.9999999999508C2.375,154.99179894177024,4.75,154.9835978835897,7.125,154.97539682539684C9.5,154.96719576720398,11.875,154.9589947089947,14.25,154.95079365079366C16.625,154.9425925925926,19,154.93439153439152,21.375,154.92619047619047C23.75,154.91798941798942,26.125,154.90978835978837,28.5,154.9015873015873C30.875,154.89338624338626,33.25,154.88518518518518,35.625,154.87698412698413C38,154.86878306878307,40.375,154.86058201058202,42.75,154.85238095238097C45.125,154.84417989417992,47.50000000000001,154.83597883597884,49.87500000000001,154.82777777777778C52.25000000000001,154.81957671957673,54.625,154.81137566137565,57,154.8031746031746C59.375,154.79497354497354,61.75,154.7867724867725,64.125,154.77857142857144C66.5,154.7703703703704,68.875,154.7621693121693,71.25,154.75396825396825C73.625,154.7457671957672,76,154.73756613756615,78.375,154.7293650793651C80.75,154.72116402116404,83.125,154.71296296296296,85.5,154.7047619047619C87.875,154.69656084656086,90.25,154.68835978835978,92.625,154.68015873015872C95,154.67195767195767,97.37500000000001,154.66375661375662,99.75000000000001,154.65555555555557C102.12500000000001,154.6473544973545,104.5,154.63915343915343,106.875,154.63095238095238C109.25,154.62275132275133,111.625,154.61455026455027,114,154.60634920634922C116.375,154.59814814814817,118.75000000000001,154.5899470899471,121.12500000000001,154.58174603174604C123.50000000000001,154.57354497354498,125.875,154.5653439153439,128.25,154.55714285714285C130.625,154.5489417989418,133,154.54074074074074,135.375,154.5325396825397C137.75,154.52433862433864,140.125,154.51613756613756,142.5,154.5079365079365C144.875,154.49973544973545,147.25,154.4915343915344,149.625,154.48333333333335C152,154.4751322751323,154.375,154.46693121693121,156.75,154.45873015873016C159.125,154.4505291005291,161.5,154.44232804232803,163.875,154.43412698412698C166.25,154.42592592592592,168.625,154.41772486772487,171,154.40952380952382C173.375,154.40132275132277,175.75,154.39312169312169,178.125,154.38492063492063C180.5,154.37671957671958,182.875,154.36851851851853,185.25,154.36031746031748C187.625,154.35211640211642,190,154.34391534391534,192.375,154.3357142857143C194.75,154.32751322751324,197.12500000000003,154.31931216931216,199.50000000000003,154.3111111111111C201.875,154.30291005291005,204.25,154.294708994709,206.62499999999997,154.28650793650795C208.99999999999997,154.2783068783069,211.375,154.2701058201058,213.75,154.26190476190476C216.125,154.2537037037037,218.5,154.24550264550265,220.875,154.2373015873016C223.25,154.22910052910055,225.625,154.22089947089947,228,154.21269841269842C230.375,154.20449735449736,232.75,154.19629629629628,235.125,154.18809523809523C237.5,154.17989417989418,239.87500000000003,154.17169312169312,242.25000000000003,154.16349206349207C244.625,154.15529100529102,247,154.14708994708994,249.37499999999997,154.13888888888889C251.74999999999997,154.13068783068783,254.125,154.12248677248678,256.5,154.11428571428573C258.875,154.10608465608468,261.25,154.0978835978836,263.625,154.08968253968254C266,154.0814814814815,268.375,154.0732804232804,270.75,154.06507936507936C273.125,154.0568783068783,275.5,154.04867724867725,277.875,154.0404761904762C280.25,154.03227513227515,282.625,154.02407407407406,285,154.015873015873C287.375,154.00767195767196,289.75,153.9994708994709,292.125,153.99126984126985C294.5,153.9830687830688,296.875,153.97486772486772,299.25,153.96666666666667C301.625,153.95846560846562,304,153.95026455026454,306.375,153.94206349206348C308.75,153.93386243386243,311.125,153.92566137566138,313.5,153.91746031746032C315.875,153.90925925925927,318.25,153.9010582010582,320.625,153.89285714285714C323,153.8846560846561,325.375,153.87645502645503,327.75,153.86825396825398C330.125,153.86005291005293,332.5,153.85185185185185,334.875,153.8436507936508C337.25,153.83544973544974,339.625,153.82724867724866,342,153.8190476190476C344.375,153.81084656084656,346.75,153.8026455026455,349.125,153.79444444444445C351.5,153.7862433862434,353.875,153.77804232804232,356.25,153.76984126984127C358.625,153.7616402116402,361,153.75343915343916,363.375,153.7452380952381C365.75,153.73703703703706,368.125,153.72883597883597,370.5,153.72063492063492C372.875,153.71243386243387,375.25,153.7042328042328,377.625,153.69603174603174C380,153.68783068783068,382.375,153.67962962962963,384.75,153.67142857142858C387.125,153.66322751322753,389.50000000000006,153.65502645502644,391.87500000000006,153.6468253968254C394.25000000000006,153.63862433862434,396.62500000000006,153.6304232804233,399.00000000000006,153.62222222222223C401.375,153.61402116402118,403.75,153.6058201058201,406.12499999999994,153.59761904761905C408.49999999999994,153.589417989418,410.87499999999994,153.58121693121691,413.24999999999994,153.57301587301586C415.62499999999994,153.5648148148148,418,153.55661375661376,420.375,153.5484126984127C422.75,153.54021164021165,425.125,153.53201058201057,427.5,153.52380952380952C429.875,153.51560846560847,432.25,153.50740740740738,434.625,153.49920634920633C437,153.49100529100528,439.375,153.48280423280423,441.75,153.47460317460317C444.125,153.46640211640212,446.5,153.45820105820104,448.875,153.45C451.25,153.44179894179894,453.625,153.43359788359788,456,153.42539682539683C458.375,153.41719576719578,460.75,153.4089947089947,463.125,153.40079365079364C465.5,153.3925925925926,467.875,153.3843915343915,470.25,153.37619047619046C472.625,153.3679894179894,475.00000000000006,153.35978835978835,477.37500000000006,153.3515873015873C479.75000000000006,153.34338624338625,482.12500000000006,153.33518518518517,484.50000000000006,153.32698412698412C486.875,153.31878306878306,489.25,153.310582010582,491.62499999999994,153.30238095238096C493.99999999999994,153.2941798941799,496.37499999999994,153.28597883597882,498.74999999999994,153.27777777777777C501.12499999999994,153.26957671957672,503.5,153.26137566137564,505.875,153.25317460317459C508.25,153.24497354497353,510.625,153.23677248677248,513,153.22857142857143C515.375,153.22037037037038,517.75,153.2121693121693,520.125,153.20396825396824C522.5,153.1957671957672,524.875,153.18756613756614,527.25,153.17936507936508C529.625,153.17116402116403,532,153.16296296296295,534.375,153.1547619047619C536.75,153.14656084656085,539.125,153.13835978835976,541.5,153.1301587301587C543.875,153.12195767195766,546.25,153.1137566137566,548.625,153.10555555555555C551,153.0973544973545,553.375,153.08915343915342,555.75,153.08095238095237C558.125,153.07275132275132,560.5,153.06455026455026,562.875,153.0563492063492C565.25,153.04814814814816,567.625,153.03994708994708,570,153.03174603174602C572.375,153.02354497354497,574.75,153.0153439153439,577.125,153.00714285714284C579.5,152.9989417989418,581.875,152.99074074074073,584.25,152.98253968253968C586.625,152.97433862433863,589,152.96613756613755,591.375,152.9579365079365C593.75,152.94973544973544,596.125,152.9415343915344,598.5,152.93333333333334C600.875,152.92513227513228,603.25,152.91693121693123,605.625,152.90873015873018C608,152.90052910052913,610.375,152.89232804232802,612.75,152.88412698412696C615.125,152.8759259259259,617.5,152.86772486772486,619.875,152.8595238095238C622.25,152.85132275132275,624.625,152.8431216931217,627,152.83492063492065C629.375,152.8267195767196,631.75,152.81851851851852,634.125,152.81031746031746C636.5,152.8021164021164,638.875,152.8021164021164,641.25,152.7857142857143C643.625,152.7693121693122,646,151.9805194805195,648.375,151.5779220779221C650.75,151.1753246753247,653.125,150.77272727272728,655.5,150.3701298701299C657.875,149.9675324675325,660.25,149.56493506493507,662.625,149.16233766233768C665,148.75974025974028,667.375,148.35714285714286,669.75,147.95454545454547C672.125,147.55194805194807,674.5,147.14935064935065,676.875,146.74675324675326C679.25,146.34415584415586,681.625,145.94155844155844,684,145.53896103896105C686.375,145.13636363636365,688.75,144.73376623376623,691.125,144.33116883116884C693.5,143.92857142857144,695.875,143.52597402597402,698.25,143.12337662337663C700.625,142.72077922077924,703,142.3181818181818,705.375,141.91558441558442C707.75,141.51298701298703,710.125,141.1103896103896,712.5,140.7077922077922C714.875,140.30519480519482,717.25,139.9025974025974,719.625,139.5C722,139.0974025974026,724.375,138.69480519480518,726.75,138.2922077922078C729.125,137.8896103896104,731.5,137.48701298701297,733.875,137.08441558441558C736.25,136.6818181818182,738.625,136.27922077922076,741,135.87662337662337C743.375,135.47402597402598,745.75,135.07142857142856,748.125,134.66883116883116C750.5,134.26623376623377,752.875,133.86363636363635,755.25,133.46103896103895C757.625,133.05844155844156,760,132.65584415584414,762.375,132.25324675324674C764.75,131.85064935064935,767.125,131.44805194805193,769.5,131.04545454545453C771.875,130.64285714285714,774.2500000000001,130.24025974025975,776.6250000000001,129.83766233766235C779.0000000000001,129.43506493506496,781.3750000000001,129.03246753246754,783.7500000000001,128.62987012987014C786.1250000000001,128.22727272727275,788.5000000000001,127.82467532467533,790.8750000000001,127.42207792207792C793.2500000000001,127.01948051948051,795.6250000000001,126.61688311688312,798.0000000000001,126.21428571428571C800.375,125.81168831168831,802.75,125.40909090909089,805.1249999999999,125.0064935064935C807.4999999999999,124.60389610389609,809.8749999999999,124.2012987012987,812.2499999999999,123.7987012987013C814.6249999999999,123.39610389610391,816.9999999999999,122.9935064935065,819.3749999999999,122.5909090909091C821.7499999999999,122.18831168831169,824.1249999999999,121.78571428571428,826.4999999999999,121.38311688311688C828.8749999999999,120.98051948051948,831.25,120.57792207792208,833.625,120.17532467532467C836,119.77272727272728,838.375,119.37012987012987,840.75,118.96753246753246C843.125,118.56493506493506,845.5,118.16233766233766,847.875,117.75974025974025C850.25,117.35714285714285,852.625,116.95454545454545,855,116.55194805194805C857.375,116.14935064935064,859.75,115.74675324675324,862.125,115.34415584415584C864.5,114.94155844155843,866.875,114.53896103896102,869.25,114.13636363636363C871.625,113.73376623376623,874,113.33116883116884,876.375,112.92857142857144C878.75,112.52597402597405,881.125,112.12337662337663,883.5,111.72077922077922C885.875,111.31818181818181,888.25,110.91558441558442,890.625,110.51298701298701C893,110.1103896103896,895.375,109.70779220779221,897.75,109.3051948051948C900.125,108.9025974025974,902.5,108.50000000000001,904.875,108.0974025974026C907.25,107.6948051948052,909.625,107.29220779220779,912,106.88961038961038C914.375,106.48701298701297,916.75,106.0844155844156,919.125,105.68181818181819C921.5,105.27922077922078,923.875,104.87662337662337,926.25,104.47402597402596C928.625,104.07142857142856,931,103.66883116883118,933.375,103.26623376623377C935.75,102.86363636363636,938.125,102.46103896103895,940.5,102.05844155844154C942.875,101.65584415584414,945.25,101.25324675324676,947.625,100.85064935064936C950,100.44805194805195,952.3750000000001,100.04545454545455,954.7500000000001,99.64285714285714C957.1250000000001,99.24025974025975,959.5000000000001,98.83766233766235,961.8750000000001,98.43506493506494C964.2500000000001,98.03246753246754,966.6250000000001,97.62987012987014,969.0000000000001,97.22727272727273C971.3750000000001,96.82467532467533,973.7500000000001,96.42207792207793,976.1250000000001,96.01948051948052C978.5,95.61688311688313,980.875,95.2142857142857,983.2499999999999,94.8116883116883C985.6249999999999,94.40909090909089,987.9999999999999,94.00649350649348,990.3749999999999,93.60389610389609C992.7499999999999,93.2012987012987,995.1249999999999,92.79870129870129,997.4999999999999,92.3961038961039C999.8749999999999,91.9935064935065,1002.2499999999999,91.5909090909091,1004.6249999999999,91.1883116883117C1006.9999999999999,90.78571428571429,1009.375,90.3831168831169,1011.75,89.98051948051949C1014.125,89.5779220779221,1016.5,89.17532467532469,1018.875,88.77272727272728C1021.25,88.37012987012987,1023.625,87.96753246753246,1026,87.56493506493506C1028.375,87.16233766233765,1030.75,86.75974025974027,1033.125,86.35714285714286C1035.5,85.95454545454545,1037.875,85.55194805194805,1040.25,85.14935064935064C1042.625,84.74675324675323,1045,84.34415584415584,1047.375,83.94155844155844C1049.75,83.53896103896105,1052.125,83.13636363636364,1054.5,82.73376623376623C1056.875,82.33116883116882,1059.25,81.92857142857143,1061.625,81.52597402597402C1064,81.12337662337661,1066.375,80.7207792207792,1068.75,80.31818181818181C1071.125,79.91558441558442,1073.5,79.51298701298703,1075.875,79.11038961038962C1078.25,78.70779220779221,1080.625,78.30519480519482,1083,77.90259740259741C1085.375,77.5,1087.75,77.0974025974026,1090.125,76.6948051948052C1092.5,76.29220779220779,1094.875,75.8896103896104,1097.25,75.48701298701299C1099.625,75.08441558441558,1102,74.68181818181819,1104.375,74.27922077922078C1106.75,73.87662337662337,1109.125,73.47402597402598,1111.5,73.07142857142857C1113.875,72.66883116883116,1116.25,72.26623376623377,1118.625,71.86363636363636C1121,71.46103896103895,1123.375,71.05844155844156,1125.75,70.65584415584415C1128.125,70.25324675324674,1130.5,69.85064935064935,1132.875,69.44805194805194C1135.25,69.04545454545453,1137.625,68.64285714285714,1140,68.24025974025973C1142.375,67.83766233766232,1144.75,67.43506493506493,1147.125,67.03246753246754C1149.5,66.62987012987014,1151.875,66.22727272727273,1154.25,65.82467532467533C1156.625,65.42207792207792,1159,65.01948051948052,1161.375,64.61688311688312C1163.75,64.21428571428571,1166.125,63.81168831168831,1168.5,63.40909090909091C1170.875,63.006493506493506,1173.25,62.60389610389611,1175.625,62.20129870129871C1178,61.79870129870131,1180.375,61.39610389610392,1182.75,60.99350649350651C1185.125,60.5909090909091,1187.5,60.18831168831168,1189.875,59.78571428571428C1192.25,59.38311688311688,1194.625,58.98051948051949,1197,58.57792207792209C1199.375,58.17532467532469,1201.75,57.77272727272727,1204.125,57.370129870129865C1206.5,56.96753246753246,1208.875,56.56493506493506,1211.25,56.162337662337656C1213.625,55.759740259740255,1216,55.35714285714285,1218.375,54.954545454545446C1220.75,54.551948051948045,1223.125,54.14935064935066,1225.5,53.74675324675326C1227.875,53.34415584415586,1230.25,52.941558441558456,1232.625,52.53896103896105C1235,52.13636363636364,1237.375,51.733766233766225,1239.75,51.331168831168824C1242.125,50.92857142857142,1244.5,50.52597402597403,1246.875,50.12337662337663C1249.25,49.72077922077923,1251.625,49.31818181818181,1254,48.915584415584405C1256.375,48.512987012987,1258.75,48.110389610389596,1261.125,47.707792207792195C1263.5,47.305194805194795,1265.875,46.902597402597394,1268.25,46.49999999999999C1270.625,46.09740259740259,1273,45.6948051948052,1275.375,45.2922077922078C1277.75,44.8896103896104,1280.125,44.48701298701299,1282.5,44.08441558441559C1284.875,43.68181818181819,1287.25,43.279220779220786,1289.625,42.876623376623385C1292,42.474025974025984,1294.375,42.07142857142858,1296.75,41.668831168831176C1299.125,41.266233766233775,1301.5,40.863636363636374,1303.875,40.461038961038966C1306.25,40.05844155844156,1308.625,39.65584415584415,1311,39.25324675324674C1313.375,38.850649350649334,1315.75,38.44805194805193,1318.125,38.04545454545453C1320.5,37.64285714285713,1322.875,37.240259740259745,1325.25,36.837662337662344C1327.625,36.43506493506494,1330,36.03246753246755,1332.375,35.62987012987015C1334.75,35.22727272727275,1337.125,34.82467532467533,1339.5,34.422077922077925C1341.875,34.01948051948052,1344.25,33.61688311688312,1346.625,33.214285714285715C1349,32.81168831168831,1351.375,32.4090909090909,1353.75,32.00649350649349C1356.125,31.603896103896087,1358.5,31.201298701298683,1360.875,30.798701298701282C1363.25,30.39610389610388,1365.625,29.99350649350649,1368,29.590909090909093C1370.375,29.188311688311696,1372.75,28.785714285714306,1375.125,28.3831168831169C1377.5,27.980519480519497,1379.875,27.57792207792208,1382.25,27.175324675324674C1384.625,26.77272727272727,1387,26.37012987012987,1389.375,25.967532467532468C1391.75,25.564935064935067,1394.125,25.162337662337677,1396.5,24.759740259740276C1398.875,24.357142857142875,1401.25,23.954545454545457,1403.625,23.551948051948052C1406,23.149350649350648,1408.375,22.746753246753247,1410.75,22.344155844155843C1413.125,21.94155844155844,1415.5,21.53896103896102,1417.875,21.13636363636362C1420.25,20.733766233766218,1422.625,20.33116883116882,1425,19.928571428571427" fill="transparent" stroke-linecap="round" stroke="#1AD4B3" stroke-width="2"></path><g class="visx-group visx-axis visx-axis-bottom" transform="translate(0, 155)"><g class="visx-group visx-axis-tick" transform="translate(0, 0)"><line class="visx-line" x1="0" y1="0" x2="0" y2="8" fill="transparent" shape-rendering="crispEdges" stroke="#F2F0F9" stroke-width="1" stroke-linecap="square"></line><svg x="0" y="0" font-size="11" style="overflow:visible"><text transform="" x="0" y="19" fill="#1B2030" font-size="11" text-anchor="middle"><tspan x="0" dy="0em">0%</tspan></text></svg></g><g class="visx-group visx-axis-tick" transform="translate(0, 0)"><line class="visx-line" x1="356.25" y1="0" x2="356.25" y2="8" fill="transparent" shape-rendering="crispEdges" stroke="#F2F0F9" stroke-width="1" stroke-linecap="square"></line><svg x="0" y="0" font-size="11" style="overflow:visible"><text transform="" x="356.25" y="19" fill="#1B2030" font-size="11" text-anchor="middle"><tspan x="356.25" dy="0em">25%</tspan></text></svg></g><g class="visx-group visx-axis-tick" transform="translate(0, 0)"><line class="visx-line" x1="712.5" y1="0" x2="712.5" y2="8" fill="transparent" shape-rendering="crispEdges" stroke="#F2F0F9" stroke-width="1" stroke-linecap="square"></line><svg x="0" y="0" font-size="11" style="overflow:visible"><text transform="" x="712.5" y="19" fill="#1B2030" font-size="11" text-anchor="middle"><tspan x="712.5" dy="0em">50%</tspan></text></svg></g><g class="visx-group visx-axis-tick" transform="translate(0, 0)"><line class="visx-line" x1="1068.75" y1="0" x2="1068.75" y2="8" fill="transparent" shape-rendering="crispEdges" stroke="#F2F0F9" stroke-width="1" stroke-linecap="square"></line><svg x="0" y="0" font-size="11" style="overflow:visible"><text transform="" x="1068.75" y="19" fill="#1B2030" font-size="11" text-anchor="middle"><tspan x="1068.75" dy="0em">75%</tspan></text></svg></g><g class="visx-group visx-axis-tick" transform="translate(0, 0)"><line class="visx-line" x1="1425" y1="0" x2="1425" y2="8" fill="transparent" shape-rendering="crispEdges" stroke="#F2F0F9" stroke-width="1" stroke-linecap="square"></line><svg x="0" y="0" font-size="11" style="overflow:visible"><text transform="" x="1425" y="19" fill="#1B2030" font-size="11" text-anchor="middle"><tspan x="1425" dy="0em">100%</tspan></text></svg></g></g><g class="visx-group visx-axis visx-axis-left" transform="translate(0, 0)"><g class="visx-group visx-axis-tick" transform="translate(0, 0)"><line class="visx-line" x1="0" y1="155" x2="-8" y2="155" fill="transparent" shape-rendering="crispEdges" stroke="#F2F0F9" stroke-width="1" stroke-linecap="square"></line><svg x="-30" y="0" font-size="11" style="overflow:visible"><text transform="" x="-8" y="155" fill="#1B2030" font-size="11" text-anchor="start"><tspan x="-8" dy="0em">0%</tspan></text></svg></g><g class="visx-group visx-axis-tick" transform="translate(0, 0)"><line class="visx-line" x1="0" y1="110.71428571428572" x2="-8" y2="110.71428571428572" fill="transparent" shape-rendering="crispEdges" stroke="#F2F0F9" stroke-width="1" stroke-linecap="square"></line><svg x="-30" y="0" font-size="11" style="overflow:visible"><text transform="" x="-8" y="110.71428571428572" fill="#1B2030" font-size="11" text-anchor="start"><tspan x="-8" dy="0em">100%</tspan></text></svg></g><g class="visx-group visx-axis-tick" transform="translate(0, 0)"><line class="visx-line" x1="0" y1="66.42857142857143" x2="-8" y2="66.42857142857143" fill="transparent" shape-rendering="crispEdges" stroke="#F2F0F9" stroke-width="1" stroke-linecap="square"></line><svg x="-30" y="0" font-size="11" style="overflow:visible"><text transform="" x="-8" y="66.42857142857143" fill="#1B2030" font-size="11" text-anchor="start"><tspan x="-8" dy="0em">200%</tspan></text></svg></g><g class="visx-group visx-axis-tick" transform="translate(0, 0)"><line class="visx-line" x1="0" y1="22.14285714285715" x2="-8" y2="22.14285714285715" fill="transparent" shape-rendering="crispEdges" stroke="#F2F0F9" stroke-width="1" stroke-linecap="square"></line><svg x="-30" y="0" font-size="11" style="overflow:visible"><text transform="" x="-8" y="22.14285714285715" fill="#1B2030" font-size="11" text-anchor="start"><tspan x="-8" dy="0em">300%</tspan></text></svg></g><line class="visx-line visx-axis-line" x1="0" y1="155.5" x2="0" y2="0.5" fill="transparent" shape-rendering="crispEdges" stroke="#F2F0F9" stroke-width="1"></line></g><rect class="visx-bar" width="1425" height="155" fill="transparent"></rect><line class="visx-line" x1="641.25" y1="58" x2="641.25" y2="155" fill="transparent" shape-rendering="crispEdges" stroke="#CDC8E1" stroke-width="1" pointer-events="none" stroke-dasharray="5"></line><svg x="0" y="0" font-size="11px" style="overflow:visible"><text transform="" x="641.25" y="50" font-size="11px" fill="#555069" stroke="#FFFFFF" stroke-width="1px" text-anchor="middle"><tspan x="641.25" dy="0.355em">uOptimal 45%</tspan></text></svg><svg x="0" y="0" font-size="11px" style="overflow:visible"><text transform="" x="641.25" y="50" font-size="11px" fill="#CDC8E1" text-anchor="middle"><tspan x="641.25" dy="0.355em">uOptimal 45%</tspan></text></svg></g></svg>