<?xml version="1.0"?><svg xmlns="http://www.w3.org/2000/svg" xmlns:xlink= "http://www.w3.org/1999/xlink" style="background: white;" width="1500" height="300"> <g style="color: black; font-size: 13px; font-family: sans-serif; transform: translate(18px, 25px);"><g><circle r="3" cx="-6" cy="-5" style="fill: #1AD4B3" /><text>Borrow APR, variable</text></g><g style="transform: translateX(150px);"><circle r="3" cx="-6" cy="-5" style="fill: #101423" /><text>Borrow APR, stable</text></g></g><g class="visx-group" transform="translate(45, 50)"><g class="visx-group visx-rows" transform="translate(0, 0)"><line class="visx-line" x1="0" y1="155" x2="1425" y2="155" fill="transparent" shape-rendering="crispEdges" stroke="#F2F0F9" stroke-width="1" pointer-events="none"></line><line class="visx-line" x1="0" y1="120.55555555555556" x2="1425" y2="120.55555555555556" fill="transparent" shape-rendering="crispEdges" stroke="#F2F0F9" stroke-width="1" pointer-events="none"></line><line class="visx-line" x1="0" y1="86.11111111111111" x2="1425" y2="86.11111111111111" fill="transparent" shape-rendering="crispEdges" stroke="#F2F0F9" stroke-width="1" pointer-events="none"></line><line class="visx-line" x1="0" y1="51.66666666666667" x2="1425" y2="51.66666666666667" fill="transparent" shape-rendering="crispEdges" stroke="#F2F0F9" stroke-width="1" pointer-events="none"></line><line class="visx-line" x1="0" y1="17.22222222222223" x2="1425" y2="17.22222222222223" fill="transparent" shape-rendering="crispEdges" stroke="#F2F0F9" stroke-width="1" pointer-events="none"></line></g><path class="visx-linepath" d="M0,154.99999999987082C2.375,154.97847222214688,4.75,154.9569444444229,7.125,154.93541666666667C9.5,154.91388888891044,11.875,154.89236111111111,14.25,154.87083333333334C16.625,154.84930555555556,19,154.82777777777778,21.375,154.80625C23.75,154.78472222222223,26.125,154.76319444444445,28.5,154.74166666666667C30.875,154.7201388888889,33.25,154.69861111111112,35.625,154.67708333333334C38,154.65555555555557,40.375,154.6340277777778,42.75,154.6125C45.125,154.59097222222223,47.50000000000001,154.56944444444443,49.87500000000001,154.54791666666665C52.25000000000001,154.52638888888887,54.625,154.50486111111113,57,154.48333333333335C59.375,154.46180555555557,61.75,154.44027777777777,64.125,154.41875C66.5,154.3972222222222,68.875,154.37569444444443,71.25,154.35416666666666C73.625,154.33263888888888,76,154.3111111111111,78.375,154.28958333333333C80.75,154.26805555555555,83.125,154.24652777777777,85.5,154.225C87.875,154.20347222222222,90.25,154.18194444444444,92.625,154.16041666666666C95,154.13888888888889,97.37500000000001,154.1173611111111,99.75000000000001,154.09583333333333C102.12500000000001,154.07430555555555,104.5,154.05277777777778,106.875,154.03125C109.25,154.00972222222222,111.625,153.98819444444445,114,153.96666666666667C116.375,153.9451388888889,118.75000000000001,153.92361111111111,121.12500000000001,153.90208333333334C123.50000000000001,153.88055555555556,125.875,153.85902777777778,128.25,153.8375C130.625,153.81597222222223,133,153.79444444444445,135.375,153.77291666666667C137.75,153.7513888888889,140.125,153.72986111111112,142.5,153.70833333333334C144.875,153.68680555555557,147.25,153.66527777777776,149.625,153.64374999999998C152,153.6222222222222,154.375,153.60069444444446,156.75,153.57916666666668C159.125,153.5576388888889,161.5,153.5361111111111,163.875,153.51458333333332C166.25,153.49305555555554,168.625,153.47152777777777,171,153.45C173.375,153.4284722222222,175.75,153.40694444444446,178.125,153.38541666666669C180.5,153.3638888888889,182.875,153.3423611111111,185.25,153.32083333333333C187.625,153.29930555555555,190,153.27777777777777,192.375,153.25625C194.75,153.23472222222222,197.12500000000003,153.21319444444444,199.50000000000003,153.19166666666666C201.875,153.17013888888889,204.25,153.1486111111111,206.62499999999997,153.12708333333333C208.99999999999997,153.10555555555555,211.375,153.08402777777778,213.75,153.0625C216.125,153.04097222222222,218.5,153.01944444444445,220.875,152.99791666666667C223.25,152.9763888888889,225.625,152.95486111111111,228,152.93333333333334C230.375,152.91180555555556,232.75,152.89027777777778,235.125,152.86875C237.5,152.84722222222223,239.87500000000003,152.82569444444445,242.25000000000003,152.80416666666667C244.625,152.7826388888889,247,152.76111111111112,249.37499999999997,152.73958333333334C251.74999999999997,152.71805555555557,254.125,152.6965277777778,256.5,152.675C258.875,152.65347222222223,261.25,152.63194444444446,263.625,152.61041666666668C266,152.5888888888889,268.375,152.5673611111111,270.75,152.54583333333332C273.125,152.52430555555554,275.5,152.50277777777777,277.875,152.48125C280.25,152.4597222222222,282.625,152.43819444444443,285,152.41666666666666C287.375,152.39513888888888,289.75,152.3736111111111,292.125,152.35208333333333C294.5,152.33055555555555,296.875,152.30902777777777,299.25,152.2875C301.625,152.26597222222222,304,152.24444444444444,306.375,152.22291666666666C308.75,152.20138888888889,311.125,152.1798611111111,313.5,152.15833333333333C315.875,152.13680555555555,318.25,152.11527777777778,320.625,152.09375C323,152.07222222222222,325.375,152.05069444444445,327.75,152.02916666666667C330.125,152.0076388888889,332.5,151.98611111111111,334.875,151.96458333333334C337.25,151.94305555555556,339.625,151.92152777777778,342,151.9C344.375,151.87847222222223,346.75,151.85694444444445,349.125,151.83541666666667C351.5,151.8138888888889,353.875,151.7923611111111,356.25,151.77083333333331C358.625,151.74930555555554,361,151.7277777777778,363.375,151.70625C365.75,151.68472222222223,368.125,151.66319444444443,370.5,151.64166666666665C372.875,151.62013888888887,375.25,151.5986111111111,377.625,151.57708333333332C380,151.55555555555554,382.375,151.5340277777778,384.75,151.51250000000002C387.125,151.49097222222224,389.50000000000006,151.46944444444443,391.87500000000006,151.44791666666666C394.25000000000006,151.42638888888888,396.62500000000006,151.4048611111111,399.00000000000006,151.38333333333333C401.375,151.36180555555555,403.75,151.34027777777777,406.12499999999994,151.31875C408.49999999999994,151.29722222222222,410.87499999999994,151.27569444444444,413.24999999999994,151.25416666666666C415.62499999999994,151.23263888888889,418,151.2111111111111,420.375,151.18958333333333C422.75,151.16805555555555,425.125,151.14652777777778,427.5,151.125C429.875,151.10347222222222,432.25,151.08194444444445,434.625,151.06041666666667C437,151.0388888888889,439.375,151.01736111111111,441.75,150.99583333333334C444.125,150.97430555555556,446.5,150.95277777777778,448.875,150.93125C451.25,150.90972222222223,453.625,150.88819444444445,456,150.86666666666667C458.375,150.8451388888889,460.75,150.82361111111112,463.125,150.80208333333334C465.5,150.78055555555557,467.875,150.7590277777778,470.25,150.7375C472.625,150.71597222222223,475.00000000000006,150.69444444444443,477.37500000000006,150.67291666666665C479.75000000000006,150.65138888888887,482.12500000000006,150.62986111111113,484.50000000000006,150.60833333333335C486.875,150.58680555555557,489.25,150.56527777777777,491.62499999999994,150.54375C493.99999999999994,150.5222222222222,496.37499999999994,150.50069444444443,498.74999999999994,150.47916666666666C501.12499999999994,150.45763888888888,503.5,150.4361111111111,505.875,150.41458333333333C508.25,150.39305555555555,510.625,150.37152777777777,513,150.35C515.375,150.32847222222222,517.75,150.30694444444444,520.125,150.28541666666666C522.5,150.26388888888889,524.875,150.2423611111111,527.25,150.22083333333333C529.625,150.19930555555555,532,150.17777777777778,534.375,150.15625C536.75,150.13472222222222,539.125,150.11319444444445,541.5,150.09166666666667C543.875,150.0701388888889,546.25,150.04861111111111,548.625,150.02708333333334C551,150.00555555555556,553.375,149.98402777777778,555.75,149.9625C558.125,149.94097222222223,560.5,149.91944444444445,562.875,149.89791666666667C565.25,149.8763888888889,567.625,149.85486111111112,570,149.83333333333334C572.375,149.81180555555557,574.75,149.7902777777778,577.125,149.76875C579.5,149.74722222222223,581.875,149.72569444444443,584.25,149.70416666666665C586.625,149.68263888888887,589,149.66111111111113,591.375,149.63958333333335C593.75,149.61805555555557,596.125,149.59652777777777,598.5,149.575C600.875,149.5534722222222,603.25,149.53194444444443,605.625,149.51041666666666C608,149.48888888888888,610.375,149.4673611111111,612.75,149.44583333333333C615.125,149.42430555555555,617.5,149.40277777777777,619.875,149.38125C622.25,149.35972222222222,624.625,149.33819444444444,627,149.31666666666666C629.375,149.29513888888889,631.75,149.2736111111111,634.125,149.25208333333333C636.5,149.23055555555555,638.875,149.20902777777778,641.25,149.1875C643.625,149.16597222222222,646,149.14444444444445,648.375,149.12291666666667C650.75,149.1013888888889,653.125,149.07986111111111,655.5,149.05833333333334C657.875,149.03680555555556,660.25,149.01527777777778,662.625,148.99375C665,148.97222222222223,667.375,148.95069444444445,669.75,148.92916666666667C672.125,148.9076388888889,674.5,148.88611111111112,676.875,148.86458333333334C679.25,148.84305555555557,681.625,148.82152777777776,684,148.79999999999998C686.375,148.7784722222222,688.75,148.75694444444446,691.125,148.73541666666668C693.5,148.7138888888889,695.875,148.69236111111113,698.25,148.67083333333335C700.625,148.64930555555557,703,148.62777777777777,705.375,148.60625C707.75,148.5847222222222,710.125,148.56319444444446,712.5,148.54166666666669C714.875,148.5201388888889,717.25,148.4986111111111,719.625,148.47708333333333C722,148.45555555555555,724.375,148.43402777777777,726.75,148.4125C729.125,148.39097222222222,731.5,148.36944444444444,733.875,148.34791666666666C736.25,148.32638888888889,738.625,148.3048611111111,741,148.28333333333333C743.375,148.26180555555555,745.75,148.24027777777778,748.125,148.21875C750.5,148.19722222222222,752.875,148.17569444444445,755.25,148.15416666666667C757.625,148.1326388888889,760,148.11111111111111,762.375,148.08958333333334C764.75,148.06805555555556,767.125,148.04652777777778,769.5,148.025C771.875,148.00347222222223,774.2500000000001,147.98194444444445,776.6250000000001,147.96041666666667C779.0000000000001,147.9388888888889,781.3750000000001,147.91736111111112,783.7500000000001,147.89583333333334C786.1250000000001,147.87430555555557,788.5000000000001,147.8527777777778,790.8750000000001,147.83125C793.2500000000001,147.80972222222223,795.6250000000001,147.78819444444446,798.0000000000001,147.76666666666668C800.375,147.7451388888889,802.75,147.7236111111111,805.1249999999999,147.70208333333332C807.4999999999999,147.68055555555554,809.8749999999999,147.65902777777777,812.2499999999999,147.6375C814.6249999999999,147.6159722222222,816.9999999999999,147.59444444444443,819.3749999999999,147.57291666666666C821.7499999999999,147.55138888888888,824.1249999999999,147.5298611111111,826.4999999999999,147.50833333333333C828.8749999999999,147.48680555555555,831.25,147.46527777777777,833.625,147.44375C836,147.42222222222222,838.375,147.40069444444444,840.75,147.37916666666666C843.125,147.35763888888889,845.5,147.3361111111111,847.875,147.31458333333333C850.25,147.29305555555555,852.625,147.27152777777778,855,147.25C857.375,147.22847222222222,859.75,147.20694444444445,862.125,147.18541666666667C864.5,147.1638888888889,866.875,147.14236111111111,869.25,147.12083333333334C871.625,147.09930555555556,874,147.07777777777778,876.375,147.05625C878.75,147.03472222222223,881.125,147.01319444444445,883.5,146.99166666666667C885.875,146.9701388888889,888.25,146.9486111111111,890.625,146.92708333333331C893,146.90555555555554,895.375,146.8840277777778,897.75,146.8625C900.125,146.84097222222223,902.5,146.81944444444443,904.875,146.79791666666665C907.25,146.77638888888887,909.625,146.7548611111111,912,146.73333333333332C914.375,146.71180555555554,916.75,146.6902777777778,919.125,146.66875000000002C921.5,146.64722222222224,923.875,146.62569444444443,926.25,146.60416666666666C928.625,146.58263888888888,931,146.5611111111111,933.375,146.53958333333333C935.75,146.51805555555555,938.125,146.49652777777777,940.5,146.475C942.875,146.45347222222222,945.25,146.43194444444444,947.625,146.41041666666666C950,146.38888888888889,952.3750000000001,146.3673611111111,954.7500000000001,146.34583333333333C957.1250000000001,146.32430555555555,959.5000000000001,146.30277777777778,961.8750000000001,146.28125C964.2500000000001,146.25972222222222,966.6250000000001,146.23819444444445,969.0000000000001,146.21666666666667C971.3750000000001,146.1951388888889,973.7500000000001,146.17361111111111,976.1250000000001,146.15208333333334C978.5,146.13055555555556,980.875,146.10902777777778,983.2499999999999,146.0875C985.6249999999999,146.06597222222223,987.9999999999999,146.04444444444445,990.3749999999999,146.02291666666667C992.7499999999999,146.0013888888889,995.1249999999999,145.97986111111112,997.4999999999999,145.95833333333334C999.8749999999999,145.93680555555557,1002.2499999999999,145.9152777777778,1004.6249999999999,145.89375C1006.9999999999999,145.87222222222223,1009.375,145.85069444444443,1011.75,145.82916666666665C1014.125,145.80763888888887,1016.5,145.78611111111113,1018.875,145.76458333333335C1021.25,145.74305555555557,1023.625,145.72152777777777,1026,145.7C1028.375,145.6784722222222,1030.75,145.65694444444443,1033.125,145.63541666666666C1035.5,145.61388888888888,1037.875,145.5923611111111,1040.25,145.57083333333333C1042.625,145.54930555555555,1045,145.52777777777777,1047.375,145.50625C1049.75,145.48472222222222,1052.125,145.46319444444444,1054.5,145.44166666666666C1056.875,145.42013888888889,1059.25,145.3986111111111,1061.625,145.37708333333333C1064,145.35555555555555,1066.375,145.33402777777778,1068.75,145.3125C1071.125,145.29097222222222,1073.5,145.26944444444445,1075.875,145.24791666666667C1078.25,145.2263888888889,1080.625,145.20486111111111,1083,145.18333333333334C1085.375,145.16180555555556,1087.75,145.14027777777778,1090.125,145.11875C1092.5,145.09722222222223,1094.875,145.07569444444445,1097.25,145.05416666666667C1099.625,145.0326388888889,1102,145.01111111111112,1104.375,144.98958333333334C1106.75,144.96805555555557,1109.125,144.9465277777778,1111.5,144.925C1113.875,144.90347222222223,1116.25,144.88194444444443,1118.625,144.86041666666665C1121,144.83888888888887,1123.375,144.81736111111113,1125.75,144.79583333333335C1128.125,144.77430555555557,1130.5,144.75277777777777,1132.875,144.73125C1135.25,144.7097222222222,1137.625,144.7097222222222,1140,144.66666666666666C1142.375,144.6236111111111,1144.75,142.51388888888889,1147.125,141.4375C1149.5,140.36111111111111,1151.875,139.2847222222222,1154.25,138.20833333333331C1156.625,137.13194444444443,1159,136.05555555555554,1161.375,134.97916666666666C1163.75,133.90277777777777,1166.125,132.82638888888889,1168.5,131.75C1170.875,130.67361111111111,1173.25,129.5972222222222,1175.625,128.52083333333331C1178,127.44444444444443,1180.375,126.36805555555556,1182.75,125.29166666666667C1185.125,124.21527777777779,1187.5,123.13888888888889,1189.875,122.0625C1192.25,120.98611111111111,1194.625,119.90972222222221,1197,118.83333333333333C1199.375,117.75694444444444,1201.75,116.68055555555556,1204.125,115.60416666666667C1206.5,114.52777777777779,1208.875,113.45138888888889,1211.25,112.375C1213.625,111.29861111111111,1216,110.22222222222221,1218.375,109.14583333333333C1220.75,108.06944444444444,1223.125,106.99305555555556,1225.5,105.91666666666667C1227.875,104.84027777777779,1230.25,103.76388888888889,1232.625,102.6875C1235,101.61111111111111,1237.375,100.53472222222221,1239.75,99.45833333333333C1242.125,98.38194444444444,1244.5,97.30555555555556,1246.875,96.22916666666667C1249.25,95.15277777777779,1251.625,94.07638888888889,1254,93C1256.375,91.92361111111111,1258.75,90.84722222222221,1261.125,89.77083333333333C1263.5,88.69444444444444,1265.875,87.61805555555556,1268.25,86.54166666666667C1270.625,85.46527777777779,1273,84.38888888888889,1275.375,83.3125C1277.75,82.23611111111111,1280.125,81.15972222222221,1282.5,80.08333333333333C1284.875,79.00694444444444,1287.25,77.93055555555556,1289.625,76.85416666666667C1292,75.77777777777779,1294.375,74.70138888888889,1296.75,73.625C1299.125,72.54861111111111,1301.5,71.47222222222223,1303.875,70.39583333333334C1306.25,69.31944444444446,1308.625,68.24305555555557,1311,67.16666666666667C1313.375,66.09027777777777,1315.75,65.01388888888887,1318.125,63.93749999999998C1320.5,62.86111111111109,1322.875,61.78472222222223,1325.25,60.70833333333334C1327.625,59.63194444444446,1330,58.555555555555564,1332.375,57.47916666666667C1334.75,56.40277777777778,1337.125,55.326388888888886,1339.5,54.25C1341.875,53.173611111111114,1344.25,52.097222222222236,1346.625,51.02083333333334C1349,49.94444444444445,1351.375,48.86805555555554,1353.75,47.79166666666665C1356.125,46.71527777777776,1358.5,45.638888888888886,1360.875,44.5625C1363.25,43.486111111111114,1365.625,42.40972222222223,1368,41.33333333333334C1370.375,40.25694444444446,1372.75,39.180555555555564,1375.125,38.10416666666667C1377.5,37.02777777777778,1379.875,35.951388888888886,1382.25,34.875C1384.625,33.798611111111114,1387,32.72222222222223,1389.375,31.645833333333343C1391.75,30.569444444444454,1394.125,29.493055555555557,1396.5,28.416666666666668C1398.875,27.34027777777778,1401.25,26.263888888888886,1403.625,25.187499999999996C1406,24.111111111111107,1408.375,23.034722222222232,1410.75,21.958333333333343C1413.125,20.881944444444454,1415.5,19.805555555555557,1417.875,18.729166666666668C1420.25,17.65277777777778,1422.625,16.576388888888886,1425,15.499999999999996" fill="transparent" stroke-linecap="round" stroke="#1AD4B3" stroke-width="2"></path><g class="visx-group visx-axis visx-axis-bottom" transform="translate(0, 155)"><g class="visx-group visx-axis-tick" transform="translate(0, 0)"><line class="visx-line" x1="0" y1="0" x2="0" y2="8" fill="transparent" shape-rendering="crispEdges" stroke="#F2F0F9" stroke-width="1" stroke-linecap="square"></line><svg x="0" y="0" font-size="11" style="overflow:visible"><text transform="" x="0" y="19" fill="#1B2030" font-size="11" text-anchor="middle"><tspan x="0" dy="0em">0%</tspan></text></svg></g><g class="visx-group visx-axis-tick" transform="translate(0, 0)"><line class="visx-line" x1="356.25" y1="0" x2="356.25" y2="8" fill="transparent" shape-rendering="crispEdges" stroke="#F2F0F9" stroke-width="1" stroke-linecap="square"></line><svg x="0" y="0" font-size="11" style="overflow:visible"><text transform="" x="356.25" y="19" fill="#1B2030" font-size="11" text-anchor="middle"><tspan x="356.25" dy="0em">25%</tspan></text></svg></g><g class="visx-group visx-axis-tick" transform="translate(0, 0)"><line class="visx-line" x1="712.5" y1="0" x2="712.5" y2="8" fill="transparent" shape-rendering="crispEdges" stroke="#F2F0F9" stroke-width="1" stroke-linecap="square"></line><svg x="0" y="0" font-size="11" style="overflow:visible"><text transform="" x="712.5" y="19" fill="#1B2030" font-size="11" text-anchor="middle"><tspan x="712.5" dy="0em">50%</tspan></text></svg></g><g class="visx-group visx-axis-tick" transform="translate(0, 0)"><line class="visx-line" x1="1068.75" y1="0" x2="1068.75" y2="8" fill="transparent" shape-rendering="crispEdges" stroke="#F2F0F9" stroke-width="1" stroke-linecap="square"></line><svg x="0" y="0" font-size="11" style="overflow:visible"><text transform="" x="1068.75" y="19" fill="#1B2030" font-size="11" text-anchor="middle"><tspan x="1068.75" dy="0em">75%</tspan></text></svg></g><g class="visx-group visx-axis-tick" transform="translate(0, 0)"><line class="visx-line" x1="1425" y1="0" x2="1425" y2="8" fill="transparent" shape-rendering="crispEdges" stroke="#F2F0F9" stroke-width="1" stroke-linecap="square"></line><svg x="0" y="0" font-size="11" style="overflow:visible"><text transform="" x="1425" y="19" fill="#1B2030" font-size="11" text-anchor="middle"><tspan x="1425" dy="0em">100%</tspan></text></svg></g></g><g class="visx-group visx-axis visx-axis-left" transform="translate(0, 0)"><g class="visx-group visx-axis-tick" transform="translate(0, 0)"><line class="visx-line" x1="0" y1="155" x2="-8" y2="155" fill="transparent" shape-rendering="crispEdges" stroke="#F2F0F9" stroke-width="1" stroke-linecap="square"></line><svg x="-30" y="0" font-size="11" style="overflow:visible"><text transform="" x="-8" y="155" fill="#1B2030" font-size="11" text-anchor="start"><tspan x="-8" dy="0em">0%</tspan></text></svg></g><g class="visx-group visx-axis-tick" transform="translate(0, 0)"><line class="visx-line" x1="0" y1="120.55555555555556" x2="-8" y2="120.55555555555556" fill="transparent" shape-rendering="crispEdges" stroke="#F2F0F9" stroke-width="1" stroke-linecap="square"></line><svg x="-30" y="0" font-size="11" style="overflow:visible"><text transform="" x="-8" y="120.55555555555556" fill="#1B2030" font-size="11" text-anchor="start"><tspan x="-8" dy="0em">20%</tspan></text></svg></g><g class="visx-group visx-axis-tick" transform="translate(0, 0)"><line class="visx-line" x1="0" y1="86.11111111111111" x2="-8" y2="86.11111111111111" fill="transparent" shape-rendering="crispEdges" stroke="#F2F0F9" stroke-width="1" stroke-linecap="square"></line><svg x="-30" y="0" font-size="11" style="overflow:visible"><text transform="" x="-8" y="86.11111111111111" fill="#1B2030" font-size="11" text-anchor="start"><tspan x="-8" dy="0em">40%</tspan></text></svg></g><g class="visx-group visx-axis-tick" transform="translate(0, 0)"><line class="visx-line" x1="0" y1="51.66666666666667" x2="-8" y2="51.66666666666667" fill="transparent" shape-rendering="crispEdges" stroke="#F2F0F9" stroke-width="1" stroke-linecap="square"></line><svg x="-30" y="0" font-size="11" style="overflow:visible"><text transform="" x="-8" y="51.66666666666667" fill="#1B2030" font-size="11" text-anchor="start"><tspan x="-8" dy="0em">60%</tspan></text></svg></g><g class="visx-group visx-axis-tick" transform="translate(0, 0)"><line class="visx-line" x1="0" y1="17.22222222222223" x2="-8" y2="17.22222222222223" fill="transparent" shape-rendering="crispEdges" stroke="#F2F0F9" stroke-width="1" stroke-linecap="square"></line><svg x="-30" y="0" font-size="11" style="overflow:visible"><text transform="" x="-8" y="17.22222222222223" fill="#1B2030" font-size="11" text-anchor="start"><tspan x="-8" dy="0em">80%</tspan></text></svg></g><line class="visx-line visx-axis-line" x1="0" y1="155.5" x2="0" y2="0.5" fill="transparent" shape-rendering="crispEdges" stroke="#F2F0F9" stroke-width="1"></line></g><rect class="visx-bar" width="1425" height="155" fill="transparent"></rect><line class="visx-line" x1="1140" y1="58" x2="1140" y2="155" fill="transparent" shape-rendering="crispEdges" stroke="#CDC8E1" stroke-width="1" pointer-events="none" stroke-dasharray="5"></line><svg x="0" y="0" font-size="11px" style="overflow:visible"><text transform="" x="1140" y="50" font-size="11px" fill="#555069" stroke="#FFFFFF" stroke-width="1px" text-anchor="middle"><tspan x="1140" dy="0.355em">uOptimal 80%</tspan></text></svg><svg x="0" y="0" font-size="11px" style="overflow:visible"><text transform="" x="1140" y="50" font-size="11px" fill="#CDC8E1" text-anchor="middle"><tspan x="1140" dy="0.355em">uOptimal 80%</tspan></text></svg></g></svg>