<?xml version="1.0"?><svg xmlns="http://www.w3.org/2000/svg" xmlns:xlink= "http://www.w3.org/1999/xlink" style="background: white;" width="1500" height="300"> <g style="color: black; font-size: 13px; font-family: sans-serif; transform: translate(18px, 25px);"><g><circle r="3" cx="-6" cy="-5" style="fill: #1AD4B3" /><text>Borrow APR, variable</text></g><g style="transform: translateX(150px);"><circle r="3" cx="-6" cy="-5" style="fill: #101423" /><text>Borrow APR, stable</text></g></g><g class="visx-group" transform="translate(45, 50)"><g class="visx-group visx-rows" transform="translate(0, 0)"><line class="visx-line" x1="0" y1="155" x2="1425" y2="155" fill="transparent" shape-rendering="crispEdges" stroke="#F2F0F9" stroke-width="1" pointer-events="none"></line><line class="visx-line" x1="0" y1="77.5" x2="1425" y2="77.5" fill="transparent" shape-rendering="crispEdges" stroke="#F2F0F9" stroke-width="1" pointer-events="none"></line><line class="visx-line" x1="0" y1="0" x2="1425" y2="0" fill="transparent" shape-rendering="crispEdges" stroke="#F2F0F9" stroke-width="1" pointer-events="none"></line></g><path class="visx-linepath" d="M0,154.99999999987944C2.375,154.97990740733707,4.75,154.95981481479473,7.125,154.93972222222223C9.5,154.91962962964973,11.875,154.89953703703705,14.25,154.87944444444446C16.625,154.85935185185187,19,154.83925925925925,21.375,154.81916666666666C23.75,154.79907407407407,26.125,154.77898148148148,28.5,154.7588888888889C30.875,154.7387962962963,33.25,154.7187037037037,35.625,154.69861111111112C38,154.67851851851853,40.375,154.65842592592594,42.75,154.63833333333335C45.125,154.61824074074076,47.50000000000001,154.59814814814814,49.87500000000001,154.57805555555555C52.25000000000001,154.55796296296296,54.625,154.53787037037037,57,154.51777777777778C59.375,154.4976851851852,61.75,154.4775925925926,64.125,154.4575C66.5,154.43740740740742,68.875,154.4173148148148,71.25,154.3972222222222C73.625,154.37712962962962,76,154.35703703703703,78.375,154.33694444444444C80.75,154.31685185185185,83.125,154.29675925925926,85.5,154.27666666666667C87.875,154.25657407407408,90.25,154.23648148148146,92.625,154.21638888888887C95,154.19629629629628,97.37500000000001,154.1762037037037,99.75000000000001,154.1561111111111C102.12500000000001,154.1360185185185,104.5,154.11592592592592,106.875,154.09583333333333C109.25,154.07574074074074,111.625,154.05564814814815,114,154.03555555555556C116.375,154.01546296296297,118.75000000000001,153.99537037037035,121.12500000000001,153.97527777777776C123.50000000000001,153.95518518518517,125.875,153.93509259259258,128.25,153.915C130.625,153.8949074074074,133,153.8748148148148,135.375,153.85472222222222C137.75,153.83462962962963,140.125,153.81453703703704,142.5,153.79444444444445C144.875,153.77435185185186,147.25,153.75425925925927,149.625,153.73416666666668C152,153.7140740740741,154.375,153.69398148148147,156.75,153.67388888888888C159.125,153.6537962962963,161.5,153.6337037037037,163.875,153.6136111111111C166.25,153.59351851851852,168.625,153.57342592592593,171,153.55333333333334C173.375,153.53324074074075,175.75,153.51314814814816,178.125,153.49305555555557C180.5,153.47296296296298,182.875,153.45287037037036,185.25,153.43277777777777C187.625,153.41268518518518,190,153.3925925925926,192.375,153.3725C194.75,153.3524074074074,197.12500000000003,153.33231481481482,199.50000000000003,153.31222222222223C201.875,153.29212962962964,204.25,153.27203703703702,206.62499999999997,153.25194444444443C208.99999999999997,153.23185185185184,211.375,153.21175925925925,213.75,153.19166666666666C216.125,153.17157407407407,218.5,153.15148148148148,220.875,153.1313888888889C223.25,153.1112962962963,225.625,153.09120370370368,228,153.0711111111111C230.375,153.0510185185185,232.75,153.0309259259259,235.125,153.01083333333332C237.5,152.99074074074073,239.87500000000003,152.97064814814814,242.25000000000003,152.95055555555555C244.625,152.93046296296296,247,152.91037037037037,249.37499999999997,152.89027777777778C251.74999999999997,152.8701851851852,254.125,152.85009259259257,256.5,152.82999999999998C258.875,152.8099074074074,261.25,152.7898148148148,263.625,152.7697222222222C266,152.74962962962962,268.375,152.72953703703703,270.75,152.70944444444444C273.125,152.68935185185185,275.5,152.66925925925926,277.875,152.64916666666667C280.25,152.62907407407408,282.625,152.6089814814815,285,152.5888888888889C287.375,152.5687962962963,289.75,152.5487037037037,292.125,152.5286111111111C294.5,152.5085185185185,296.875,152.48842592592592,299.25,152.46833333333333C301.625,152.44824074074074,304,152.42814814814815,306.375,152.40805555555556C308.75,152.38796296296297,311.125,152.36787037037038,313.5,152.3477777777778C315.875,152.3276851851852,318.25,152.30759259259258,320.625,152.2875C323,152.2674074074074,325.375,152.2473148148148,327.75,152.22722222222222C330.125,152.20712962962963,332.5,152.18703703703704,334.875,152.16694444444445C337.25,152.14685185185186,339.625,152.12675925925925,342,152.10666666666665C344.375,152.08657407407406,346.75,152.06648148148147,349.125,152.04638888888888C351.5,152.0262962962963,353.875,152.0062037037037,356.25,151.98611111111111C358.625,151.96601851851852,361,151.9459259259259,363.375,151.92583333333332C365.75,151.90574074074073,368.125,151.88564814814814,370.5,151.86555555555555C372.875,151.84546296296296,375.25,151.82537037037036,377.625,151.80527777777777C380,151.78518518518518,382.375,151.7650925925926,384.75,151.745C387.125,151.72490740740741,389.50000000000006,151.70481481481482,391.87500000000006,151.68472222222223C394.25000000000006,151.66462962962964,396.62500000000006,151.64453703703703,399.00000000000006,151.62444444444444C401.375,151.60435185185185,403.75,151.58425925925926,406.12499999999994,151.56416666666667C408.49999999999994,151.54407407407408,410.87499999999994,151.52398148148148,413.24999999999994,151.5038888888889C415.62499999999994,151.4837962962963,418,151.46370370370371,420.375,151.44361111111112C422.75,151.42351851851853,425.125,151.40342592592592,427.5,151.38333333333333C429.875,151.36324074074074,432.25,151.34314814814815,434.625,151.32305555555556C437,151.30296296296297,439.375,151.28287037037038,441.75,151.26277777777779C444.125,151.2426851851852,446.5,151.2225925925926,448.875,151.20250000000001C451.25,151.18240740740742,453.625,151.1623148148148,456,151.14222222222222C458.375,151.12212962962963,460.75,151.10203703703704,463.125,151.08194444444445C465.5,151.06185185185186,467.875,151.04175925925927,470.25,151.02166666666668C472.625,151.00157407407409,475.00000000000006,150.9814814814815,477.37500000000006,150.9613888888889C479.75000000000006,150.94129629629631,482.12500000000006,150.9212037037037,484.50000000000006,150.9011111111111C486.875,150.88101851851852,489.25,150.86092592592593,491.62499999999994,150.84083333333334C493.99999999999994,150.82074074074075,496.37499999999994,150.80064814814813,498.74999999999994,150.78055555555554C501.12499999999994,150.76046296296295,503.5,150.74037037037036,505.875,150.72027777777777C508.25,150.70018518518518,510.625,150.6800925925926,513,150.66C515.375,150.6399074074074,517.75,150.61981481481482,520.125,150.59972222222223C522.5,150.57962962962964,524.875,150.55953703703705,527.25,150.53944444444446C529.625,150.51935185185187,532,150.49925925925925,534.375,150.47916666666666C536.75,150.45907407407407,539.125,150.43898148148148,541.5,150.4188888888889C543.875,150.3987962962963,546.25,150.3787037037037,548.625,150.35861111111112C551,150.33851851851853,553.375,150.31842592592594,555.75,150.29833333333335C558.125,150.27824074074076,560.5,150.25814814814814,562.875,150.23805555555555C565.25,150.21796296296296,567.625,150.19787037037037,570,150.17777777777778C572.375,150.1576851851852,574.75,150.1375925925926,577.125,150.1175C579.5,150.09740740740742,581.875,150.07731481481483,584.25,150.05722222222224C586.625,150.03712962962965,589,150.01703703703703,591.375,149.99694444444444C593.75,149.97685185185185,596.125,149.95675925925926,598.5,149.93666666666667C600.875,149.91657407407408,603.25,149.8964814814815,605.625,149.8763888888889C608,149.8562962962963,610.375,149.83620370370372,612.75,149.81611111111113C615.125,149.79601851851854,617.5,149.77592592592592,619.875,149.75583333333333C622.25,149.73574074074074,624.625,149.71564814814815,627,149.69555555555556C629.375,149.67546296296297,631.75,149.65537037037035,634.125,149.63527777777776C636.5,149.61518518518517,638.875,149.59509259259258,641.25,149.575C643.625,149.5549074074074,646,149.5348148148148,648.375,149.51472222222222C650.75,149.49462962962963,653.125,149.47453703703704,655.5,149.45444444444445C657.875,149.43435185185186,660.25,149.41425925925927,662.625,149.39416666666668C665,149.3740740740741,667.375,149.35398148148147,669.75,149.33388888888888C672.125,149.3137962962963,674.5,149.2937037037037,676.875,149.2736111111111C679.25,149.25351851851852,681.625,149.23342592592593,684,149.21333333333334C686.375,149.19324074074075,688.75,149.17314814814816,691.125,149.15305555555557C693.5,149.13296296296298,695.875,149.11287037037036,698.25,149.09277777777777C700.625,149.07268518518518,703,149.0525925925926,705.375,149.0325C707.75,149.0124074074074,710.125,148.99231481481482,712.5,148.97222222222223C714.875,148.95212962962964,717.25,148.93203703703705,719.625,148.91194444444446C722,148.89185185185187,724.375,148.87175925925925,726.75,148.85166666666666C729.125,148.83157407407407,731.5,148.81148148148148,733.875,148.7913888888889C736.25,148.7712962962963,738.625,148.7512037037037,741,148.73111111111112C743.375,148.71101851851853,745.75,148.69092592592594,748.125,148.67083333333335C750.5,148.65074074074076,752.875,148.63064814814814,755.25,148.61055555555555C757.625,148.59046296296296,760,148.57037037037037,762.375,148.55027777777778C764.75,148.5301851851852,767.125,148.51009259259257,769.5,148.48999999999998C771.875,148.4699074074074,774.2500000000001,148.4498148148148,776.6250000000001,148.4297222222222C779.0000000000001,148.40962962962962,781.3750000000001,148.38953703703703,783.7500000000001,148.36944444444444C786.1250000000001,148.34935185185185,788.5000000000001,148.32925925925926,790.8750000000001,148.30916666666667C793.2500000000001,148.28907407407408,795.6250000000001,148.2689814814815,798.0000000000001,148.2488888888889C800.375,148.2287962962963,802.75,148.2087037037037,805.1249999999999,148.1886111111111C807.4999999999999,148.1685185185185,809.8749999999999,148.14842592592592,812.2499999999999,148.12833333333333C814.6249999999999,148.10824074074074,816.9999999999999,148.08814814814815,819.3749999999999,148.06805555555556C821.7499999999999,148.04796296296297,824.1249999999999,148.02787037037038,826.4999999999999,148.0077777777778C828.8749999999999,147.9876851851852,831.25,147.96759259259258,833.625,147.9475C836,147.9274074074074,838.375,147.9073148148148,840.75,147.88722222222222C843.125,147.86712962962963,845.5,147.84703703703704,847.875,147.82694444444445C850.25,147.80685185185186,852.625,147.78675925925927,855,147.76666666666668C857.375,147.7465740740741,859.75,147.72648148148147,862.125,147.70638888888888C864.5,147.6862962962963,866.875,147.6662037037037,869.25,147.6461111111111C871.625,147.62601851851852,874,147.60592592592593,876.375,147.58583333333334C878.75,147.56574074074075,881.125,147.54564814814816,883.5,147.52555555555557C885.875,147.50546296296298,888.25,147.48537037037036,890.625,147.46527777777777C893,147.44518518518518,895.375,147.4250925925926,897.75,147.405C900.125,147.3849074074074,902.5,147.3648148148148,904.875,147.3447222222222C907.25,147.3246296296296,909.625,147.30453703703702,912,147.28444444444443C914.375,147.26435185185184,916.75,147.24425925925925,919.125,147.22416666666666C921.5,147.20407407407407,923.875,147.18398148148148,926.25,147.1638888888889C928.625,147.1437962962963,931,147.1237037037037,933.375,147.10361111111112C935.75,147.08351851851853,938.125,147.0634259259259,940.5,147.04333333333332C942.875,147.02324074074073,945.25,147.00314814814814,947.625,146.98305555555555C950,146.96296296296296,952.3750000000001,146.94287037037037,954.7500000000001,146.92277777777778C957.1250000000001,146.9026851851852,959.5000000000001,146.8825925925926,961.8750000000001,146.8625C964.2500000000001,146.84240740740742,966.6250000000001,146.8223148148148,969.0000000000001,146.8022222222222C971.3750000000001,146.78212962962962,973.7500000000001,146.76203703703703,976.1250000000001,146.74194444444444C978.5,146.72185185185185,980.875,146.70175925925926,983.2499999999999,146.68166666666667C985.6249999999999,146.66157407407408,987.9999999999999,146.6414814814815,990.3749999999999,146.6213888888889C992.7499999999999,146.6012962962963,995.1249999999999,146.5812037037037,997.4999999999999,146.5611111111111C999.8749999999999,146.5410185185185,1002.2499999999999,146.52092592592592,1004.6249999999999,146.50083333333333C1006.9999999999999,146.48074074074074,1009.375,146.46064814814815,1011.75,146.44055555555556C1014.125,146.42046296296297,1016.5,146.40037037037038,1018.875,146.3802777777778C1021.25,146.3601851851852,1023.625,146.34009259259258,1026,146.32C1028.375,146.2999074074074,1030.75,146.2798148148148,1033.125,146.25972222222222C1035.5,146.23962962962963,1037.875,146.21953703703704,1040.25,146.19944444444445C1042.625,146.17935185185186,1045,146.15925925925924,1047.375,146.13916666666665C1049.75,146.11907407407406,1052.125,146.09898148148147,1054.5,146.07888888888888C1056.875,146.0587962962963,1059.25,146.0387037037037,1061.625,146.0186111111111C1064,145.99851851851852,1066.375,145.97842592592593,1068.75,145.95833333333334C1071.125,145.93824074074075,1073.5,145.91814814814813,1075.875,145.89805555555554C1078.25,145.87796296296295,1080.625,145.85787037037036,1083,145.83777777777777C1085.375,145.81768518518518,1087.75,145.7975925925926,1090.125,145.7775C1092.5,145.7574074074074,1094.875,145.73731481481482,1097.25,145.71722222222223C1099.625,145.69712962962964,1102,145.67703703703702,1104.375,145.65694444444443C1106.75,145.63685185185184,1109.125,145.61675925925925,1111.5,145.59666666666666C1113.875,145.57657407407407,1116.25,145.55648148148148,1118.625,145.5363888888889C1121,145.5162962962963,1123.375,145.4962037037037,1125.75,145.47611111111112C1128.125,145.45601851851853,1130.5,145.43592592592594,1132.875,145.41583333333335C1135.25,145.39574074074076,1137.625,145.37564814814814,1140,145.35555555555555C1142.375,145.33546296296296,1144.75,145.31537037037035,1147.125,145.29527777777776C1149.5,145.27518518518517,1151.875,145.2550925925926,1154.25,145.235C1156.625,145.21490740740742,1159,145.1948148148148,1161.375,145.17472222222221C1163.75,145.15462962962962,1166.125,145.13453703703703,1168.5,145.11444444444444C1170.875,145.09435185185185,1173.25,145.07425925925926,1175.625,145.05416666666667C1178,145.03407407407408,1180.375,145.01398148148147,1182.75,144.99388888888888C1185.125,144.97379629629629,1187.5,144.9537037037037,1189.875,144.9336111111111C1192.25,144.91351851851852,1194.625,144.89342592592592,1197,144.87333333333333C1199.375,144.85324074074074,1201.75,144.83314814814815,1204.125,144.81305555555556C1206.5,144.79296296296297,1208.875,144.77287037037036,1211.25,144.75277777777777C1213.625,144.73268518518518,1216,144.71259259259259,1218.375,144.6925C1220.75,144.6724074074074,1223.125,144.65231481481482,1225.5,144.63222222222223C1227.875,144.61212962962964,1230.25,144.59203703703704,1232.625,144.57194444444445C1235,144.55185185185186,1237.375,144.53175925925925,1239.75,144.51166666666666C1242.125,144.49157407407407,1244.5,144.47148148148148,1246.875,144.45138888888889C1249.25,144.4312962962963,1251.625,144.4112037037037,1254,144.39111111111112C1256.375,144.37101851851853,1258.75,144.35092592592594,1261.125,144.33083333333335C1263.5,144.31074074074075,1265.875,144.29064814814816,1268.25,144.27055555555557C1270.625,144.25046296296298,1273,144.23037037037037,1275.375,144.21027777777778C1277.75,144.1901851851852,1280.125,144.1901851851852,1282.5,144.14999999999998C1284.875,144.10981481481477,1287.25,140.01666666666665,1289.625,137.95C1292,135.88333333333333,1294.375,133.81666666666666,1296.75,131.75C1299.125,129.68333333333334,1301.5,127.61666666666667,1303.875,125.55000000000001C1306.25,123.48333333333335,1308.625,121.41666666666669,1311,119.35000000000001C1313.375,117.28333333333333,1315.75,115.21666666666667,1318.125,113.14999999999999C1320.5,111.08333333333331,1322.875,109.01666666666665,1325.25,106.94999999999999C1327.625,104.88333333333333,1330,102.81666666666666,1332.375,100.75C1334.75,98.68333333333334,1337.125,96.61666666666666,1339.5,94.55C1341.875,92.48333333333333,1344.25,90.41666666666667,1346.625,88.35000000000001C1349,86.28333333333335,1351.375,84.21666666666667,1353.75,82.15C1356.125,80.08333333333334,1358.5,78.01666666666667,1360.875,75.95C1363.25,73.88333333333334,1365.625,71.81666666666666,1368,69.75C1370.375,67.68333333333334,1372.75,65.61666666666667,1375.125,63.550000000000004C1377.5,61.483333333333334,1379.875,59.41666666666667,1382.25,57.35C1384.625,55.28333333333333,1387,53.216666666666654,1389.375,51.14999999999999C1391.75,49.08333333333333,1394.125,47.016666666666666,1396.5,44.95C1398.875,42.88333333333334,1401.25,40.81666666666667,1403.625,38.75C1406,36.68333333333333,1408.375,34.61666666666666,1410.75,32.55C1413.125,30.48333333333333,1415.5,28.41666666666667,1417.875,26.350000000000005C1420.25,24.28333333333334,1422.625,22.21666666666667,1425,20.150000000000002" fill="transparent" stroke-linecap="round" stroke="#1AD4B3" stroke-width="2"></path><g class="visx-group visx-axis visx-axis-bottom" transform="translate(0, 155)"><g class="visx-group visx-axis-tick" transform="translate(0, 0)"><line class="visx-line" x1="0" y1="0" x2="0" y2="8" fill="transparent" shape-rendering="crispEdges" stroke="#F2F0F9" stroke-width="1" stroke-linecap="square"></line><svg x="0" y="0" font-size="11" style="overflow:visible"><text transform="" x="0" y="19" fill="#1B2030" font-size="11" text-anchor="middle"><tspan x="0" dy="0em">0%</tspan></text></svg></g><g class="visx-group visx-axis-tick" transform="translate(0, 0)"><line class="visx-line" x1="356.25" y1="0" x2="356.25" y2="8" fill="transparent" shape-rendering="crispEdges" stroke="#F2F0F9" stroke-width="1" stroke-linecap="square"></line><svg x="0" y="0" font-size="11" style="overflow:visible"><text transform="" x="356.25" y="19" fill="#1B2030" font-size="11" text-anchor="middle"><tspan x="356.25" dy="0em">25%</tspan></text></svg></g><g class="visx-group visx-axis-tick" transform="translate(0, 0)"><line class="visx-line" x1="712.5" y1="0" x2="712.5" y2="8" fill="transparent" shape-rendering="crispEdges" stroke="#F2F0F9" stroke-width="1" stroke-linecap="square"></line><svg x="0" y="0" font-size="11" style="overflow:visible"><text transform="" x="712.5" y="19" fill="#1B2030" font-size="11" text-anchor="middle"><tspan x="712.5" dy="0em">50%</tspan></text></svg></g><g class="visx-group visx-axis-tick" transform="translate(0, 0)"><line class="visx-line" x1="1068.75" y1="0" x2="1068.75" y2="8" fill="transparent" shape-rendering="crispEdges" stroke="#F2F0F9" stroke-width="1" stroke-linecap="square"></line><svg x="0" y="0" font-size="11" style="overflow:visible"><text transform="" x="1068.75" y="19" fill="#1B2030" font-size="11" text-anchor="middle"><tspan x="1068.75" dy="0em">75%</tspan></text></svg></g><g class="visx-group visx-axis-tick" transform="translate(0, 0)"><line class="visx-line" x1="1425" y1="0" x2="1425" y2="8" fill="transparent" shape-rendering="crispEdges" stroke="#F2F0F9" stroke-width="1" stroke-linecap="square"></line><svg x="0" y="0" font-size="11" style="overflow:visible"><text transform="" x="1425" y="19" fill="#1B2030" font-size="11" text-anchor="middle"><tspan x="1425" dy="0em">100%</tspan></text></svg></g></g><g class="visx-group visx-axis visx-axis-left" transform="translate(0, 0)"><g class="visx-group visx-axis-tick" transform="translate(0, 0)"><line class="visx-line" x1="0" y1="155" x2="-8" y2="155" fill="transparent" shape-rendering="crispEdges" stroke="#F2F0F9" stroke-width="1" stroke-linecap="square"></line><svg x="-30" y="0" font-size="11" style="overflow:visible"><text transform="" x="-8" y="155" fill="#1B2030" font-size="11" text-anchor="start"><tspan x="-8" dy="0em">0%</tspan></text></svg></g><g class="visx-group visx-axis-tick" transform="translate(0, 0)"><line class="visx-line" x1="0" y1="77.5" x2="-8" y2="77.5" fill="transparent" shape-rendering="crispEdges" stroke="#F2F0F9" stroke-width="1" stroke-linecap="square"></line><svg x="-30" y="0" font-size="11" style="overflow:visible"><text transform="" x="-8" y="77.5" fill="#1B2030" font-size="11" text-anchor="start"><tspan x="-8" dy="0em">50%</tspan></text></svg></g><g class="visx-group visx-axis-tick" transform="translate(0, 0)"><line class="visx-line" x1="0" y1="0" x2="-8" y2="0" fill="transparent" shape-rendering="crispEdges" stroke="#F2F0F9" stroke-width="1" stroke-linecap="square"></line><svg x="-30" y="0" font-size="11" style="overflow:visible"><text transform="" x="-8" y="0" fill="#1B2030" font-size="11" text-anchor="start"><tspan x="-8" dy="0em">100%</tspan></text></svg></g><line class="visx-line visx-axis-line" x1="0" y1="155.5" x2="0" y2="0.5" fill="transparent" shape-rendering="crispEdges" stroke="#F2F0F9" stroke-width="1"></line></g><rect class="visx-bar" width="1425" height="155" fill="transparent"></rect><line class="visx-line" x1="1282.5" y1="58" x2="1282.5" y2="155" fill="transparent" shape-rendering="crispEdges" stroke="#CDC8E1" stroke-width="1" pointer-events="none" stroke-dasharray="5"></line><svg x="0" y="0" font-size="11px" style="overflow:visible"><text transform="" x="1282.5" y="50" font-size="11px" fill="#555069" stroke="#FFFFFF" stroke-width="1px" text-anchor="middle"><tspan x="1282.5" dy="0.355em">uOptimal 90%</tspan></text></svg><svg x="0" y="0" font-size="11px" style="overflow:visible"><text transform="" x="1282.5" y="50" font-size="11px" fill="#CDC8E1" text-anchor="middle"><tspan x="1282.5" dy="0.355em">uOptimal 90%</tspan></text></svg></g></svg>