<?xml version="1.0"?><svg xmlns="http://www.w3.org/2000/svg" xmlns:xlink= "http://www.w3.org/1999/xlink" style="background: white;" width="1500" height="300"> <g style="color: black; font-size: 13px; font-family: sans-serif; transform: translate(18px, 25px);"><g><circle r="3" cx="-6" cy="-5" style="fill: #1AD4B3" /><text>Borrow APR, variable</text></g><g style="transform: translateX(150px);"><circle r="3" cx="-6" cy="-5" style="fill: #101423" /><text>Borrow APR, stable</text></g></g><g class="visx-group" transform="translate(45, 50)"><g class="visx-group visx-rows" transform="translate(0, 0)"><line class="visx-line" x1="0" y1="155" x2="1425" y2="155" fill="transparent" shape-rendering="crispEdges" stroke="#F2F0F9" stroke-width="1" pointer-events="none"></line><line class="visx-line" x1="0" y1="84.54545454545453" x2="1425" y2="84.54545454545453" fill="transparent" shape-rendering="crispEdges" stroke="#F2F0F9" stroke-width="1" pointer-events="none"></line><line class="visx-line" x1="0" y1="14.090909090909095" x2="1425" y2="14.090909090909095" fill="transparent" shape-rendering="crispEdges" stroke="#F2F0F9" stroke-width="1" pointer-events="none"></line></g><path class="visx-linepath" d="M0,154.99999999992954C2.375,154.9882575757165,4.75,154.9765151515034,7.125,154.96477272727273C9.5,154.95303030304206,11.875,154.94128787878788,14.25,154.92954545454546C16.625,154.91780303030305,19,154.90606060606058,21.375,154.89431818181816C23.75,154.88257575757575,26.125,154.87083333333334,28.5,154.85909090909092C30.875,154.8473484848485,33.25,154.8356060606061,35.625,154.82386363636365C38,154.8121212121212,40.375,154.80037878787877,42.75,154.78863636363636C45.125,154.77689393939391,47.50000000000001,154.7651515151515,49.87500000000001,154.7534090909091C52.25000000000001,154.74166666666667,54.625,154.72992424242423,57,154.71818181818182C59.375,154.7064393939394,61.75,154.69469696969696,64.125,154.68295454545455C66.5,154.67121212121214,68.875,154.65946969696967,71.25,154.64772727272725C73.625,154.63598484848484,76,154.62424242424242,78.375,154.6125C80.75,154.6007575757576,83.125,154.58901515151518,85.5,154.57727272727274C87.875,154.5655303030303,90.25,154.55378787878786,92.625,154.54204545454544C95,154.530303030303,97.37500000000001,154.5185606060606,99.75000000000001,154.50681818181818C102.12500000000001,154.49507575757576,104.5,154.48333333333332,106.875,154.4715909090909C109.25,154.4598484848485,111.625,154.44810606060605,114,154.43636363636364C116.375,154.42462121212122,118.75000000000001,154.4128787878788,121.12500000000001,154.40113636363637C123.50000000000001,154.38939393939395,125.875,154.37765151515148,128.25,154.36590909090907C130.625,154.35416666666666,133,154.34242424242424,135.375,154.33068181818183C137.75,154.31893939393942,140.125,154.30719696969697,142.5,154.29545454545456C144.875,154.28371212121215,147.25,154.27196969696968,149.625,154.26022727272726C152,154.24848484848485,154.375,154.2367424242424,156.75,154.225C159.125,154.21325757575758,161.5,154.20151515151514,163.875,154.18977272727273C166.25,154.1780303030303,168.625,154.16628787878787,171,154.15454545454546C173.375,154.14280303030304,175.75,154.1310606060606,178.125,154.1193181818182C180.5,154.10757575757577,182.875,154.09583333333333,185.25,154.08409090909092C187.625,154.0723484848485,190,154.06060606060606,192.375,154.04886363636365C194.75,154.03712121212124,197.12500000000003,154.02537878787882,199.50000000000003,154.01363636363638C201.875,154.00189393939397,204.25,153.9901515151515,206.62499999999997,153.97840909090908C208.99999999999997,153.96666666666664,211.375,153.95492424242423,213.75,153.9431818181818C216.125,153.9314393939394,218.5,153.91969696969696,220.875,153.90795454545454C223.25,153.89621212121213,225.625,153.8844696969697,228,153.87272727272727C230.375,153.86098484848486,232.75,153.84924242424242,235.125,153.8375C237.5,153.8257575757576,239.87500000000003,153.81401515151515,242.25000000000003,153.80227272727274C244.625,153.79053030303032,247,153.77878787878788,249.37499999999997,153.76704545454547C251.74999999999997,153.75530303030303,254.125,153.7435606060606,256.5,153.73181818181817C258.875,153.72007575757576,261.25,153.70833333333331,263.625,153.6965909090909C266,153.6848484848485,268.375,153.67310606060605,270.75,153.66136363636363C273.125,153.64962121212122,275.5,153.63787878787878,277.875,153.62613636363636C280.25,153.61439393939395,282.625,153.6026515151515,285,153.5909090909091C287.375,153.57916666666668,289.75,153.56742424242424,292.125,153.55568181818182C294.5,153.5439393939394,296.875,153.53219696969697,299.25,153.52045454545456C301.625,153.50871212121214,304,153.4969696969697,306.375,153.4852272727273C308.75,153.47348484848487,311.125,153.4617424242424,313.5,153.45C315.875,153.43825757575758,318.25,153.42651515151513,320.625,153.41477272727272C323,153.4030303030303,325.375,153.39128787878786,327.75,153.37954545454545C330.125,153.36780303030304,332.5,153.3560606060606,334.875,153.34431818181818C337.25,153.33257575757577,339.625,153.32083333333333,342,153.3090909090909C344.375,153.2973484848485,346.75,153.28560606060606,349.125,153.27386363636364C351.5,153.26212121212123,353.875,153.2503787878788,356.25,153.23863636363637C358.625,153.22689393939396,361,153.2151515151515,363.375,153.20340909090908C365.75,153.19166666666666,368.125,153.17992424242422,370.5,153.1681818181818C372.875,153.1564393939394,375.25,153.14469696969695,377.625,153.13295454545454C380,153.12121212121212,382.375,153.10946969696968,384.75,153.09772727272727C387.125,153.08598484848486,389.50000000000006,153.0742424242424,391.87500000000006,153.0625C394.25000000000006,153.0507575757576,396.62500000000006,153.03901515151514,399.00000000000006,153.02727272727273C401.375,153.01553030303032,403.75,153.00378787878788,406.12499999999994,152.99204545454546C408.49999999999994,152.98030303030305,410.87499999999994,152.9685606060606,413.24999999999994,152.9568181818182C415.62499999999994,152.94507575757575,418,152.93333333333334,420.375,152.9215909090909C422.75,152.90984848484848,425.125,152.89810606060604,427.5,152.88636363636363C429.875,152.8746212121212,432.25,152.86287878787877,434.625,152.85113636363636C437,152.83939393939394,439.375,152.8276515151515,441.75,152.8159090909091C444.125,152.80416666666667,446.5,152.79242424242423,448.875,152.78068181818182C451.25,152.7689393939394,453.625,152.75719696969696,456,152.74545454545455C458.375,152.73371212121214,460.75,152.7219696969697,463.125,152.71022727272728C465.5,152.69848484848487,467.875,152.68674242424242,470.25,152.675C472.625,152.66325757575757,475.00000000000006,152.65151515151516,477.37500000000006,152.6397727272727C479.75000000000006,152.6280303030303,482.12500000000006,152.61628787878786,484.50000000000006,152.60454545454544C486.875,152.59280303030303,489.25,152.5810606060606,491.62499999999994,152.56931818181818C493.99999999999994,152.55757575757576,496.37499999999994,152.54583333333332,498.74999999999994,152.5340909090909C501.12499999999994,152.5223484848485,503.5,152.51060606060605,505.875,152.49886363636364C508.25,152.48712121212122,510.625,152.47537878787878,513,152.46363636363637C515.375,152.45189393939395,517.75,152.4401515151515,520.125,152.4284090909091C522.5,152.41666666666669,524.875,152.40492424242422,527.25,152.3931818181818C529.625,152.3814393939394,532,152.36969696969695,534.375,152.35795454545453C536.75,152.34621212121212,539.125,152.33446969696968,541.5,152.32272727272726C543.875,152.31098484848485,546.25,152.2992424242424,548.625,152.2875C551,152.27575757575758,553.375,152.26401515151514,555.75,152.25227272727273C558.125,152.2405303030303,560.5,152.22878787878787,562.875,152.21704545454546C565.25,152.20530303030304,567.625,152.1935606060606,570,152.1818181818182C572.375,152.17007575757577,574.75,152.15833333333336,577.125,152.14659090909092C579.5,152.13484848484848,581.875,152.12310606060606,584.25,152.11136363636362C586.625,152.09962121212118,589,152.08787878787876,591.375,152.07613636363635C593.75,152.06439393939394,596.125,152.05265151515152,598.5,152.0409090909091C600.875,152.0291666666667,603.25,152.01742424242423,605.625,152.0056818181818C608,151.9939393939394,610.375,151.98219696969696,612.75,151.97045454545454C615.125,151.95871212121213,617.5,151.9469696969697,619.875,151.93522727272727C622.25,151.92348484848486,624.625,151.91174242424245,627,151.9C629.375,151.88825757575756,631.75,151.87651515151515,634.125,151.8647727272727C636.5,151.85303030303027,638.875,151.84128787878785,641.25,151.82954545454544C643.625,151.81780303030303,646,151.8060606060606,648.375,151.7943181818182C650.75,151.78257575757578,653.125,151.77083333333331,655.5,151.7590909090909C657.875,151.7473484848485,660.25,151.73560606060605,662.625,151.72386363636363C665,151.71212121212122,667.375,151.70037878787878,669.75,151.68863636363636C672.125,151.67689393939395,674.5,151.6651515151515,676.875,151.6534090909091C679.25,151.64166666666668,681.625,151.62992424242424,684,151.61818181818182C686.375,151.6064393939394,688.75,151.59469696969694,691.125,151.58295454545453C693.5,151.5712121212121,695.875,151.5594696969697,698.25,151.5477272727273C700.625,151.53598484848487,703,151.52424242424246,705.375,151.51250000000002C707.75,151.50075757575758,710.125,151.48901515151516,712.5,151.47727272727272C714.875,151.46553030303028,717.25,151.45378787878786,719.625,151.44204545454545C722,151.43030303030304,724.375,151.4185606060606,726.75,151.40681818181818C729.125,151.39507575757577,731.5,151.38333333333333,733.875,151.3715909090909C736.25,151.3598484848485,738.625,151.34810606060609,741,151.33636363636364C743.375,151.3246212121212,745.75,151.31287878787876,748.125,151.30113636363635C750.5,151.28939393939393,752.875,151.27765151515152,755.25,151.2659090909091C757.625,151.2541666666667,760,151.24242424242425,762.375,151.23068181818184C764.75,151.21893939393942,767.125,151.20719696969695,769.5,151.19545454545454C771.875,151.1837121212121,774.2500000000001,151.17196969696968,776.6250000000001,151.16022727272727C779.0000000000001,151.14848484848486,781.3750000000001,151.1367424242424,783.7500000000001,151.125C786.1250000000001,151.1132575757576,788.5000000000001,151.10151515151517,790.8750000000001,151.08977272727273C793.2500000000001,151.0780303030303,795.6250000000001,151.06628787878785,798.0000000000001,151.05454545454543C800.375,151.04280303030302,802.75,151.0310606060606,805.1249999999999,151.0193181818182C807.4999999999999,151.00757575757578,809.8749999999999,150.99583333333334,812.2499999999999,150.98409090909092C814.6249999999999,150.9723484848485,816.9999999999999,150.96060606060604,819.3749999999999,150.94886363636363C821.7499999999999,150.9371212121212,824.1249999999999,150.92537878787877,826.4999999999999,150.91363636363636C828.8749999999999,150.90189393939394,831.25,150.8901515151515,833.625,150.8784090909091C836,150.86666666666667,838.375,150.85492424242423,840.75,150.84318181818182C843.125,150.8314393939394,845.5,150.81969696969696,847.875,150.80795454545455C850.25,150.79621212121214,852.625,150.7844696969697,855,150.77272727272728C857.375,150.76098484848487,859.75,150.74924242424242,862.125,150.7375C864.5,150.7257575757576,866.875,150.71401515151518,869.25,150.70227272727274C871.625,150.6905303030303,874,150.6787878787879,876.375,150.66704545454544C878.75,150.655303030303,881.125,150.6435606060606,883.5,150.63181818181818C885.875,150.62007575757576,888.25,150.60833333333332,890.625,150.5965909090909C893,150.5848484848485,895.375,150.57310606060605,897.75,150.56136363636364C900.125,150.54962121212122,902.5,150.53787878787878,904.875,150.52613636363637C907.25,150.51439393939395,909.625,150.5026515151515,912,150.4909090909091C914.375,150.47916666666669,916.75,150.46742424242427,919.125,150.45568181818183C921.5,150.4439393939394,923.875,150.43219696969697,926.25,150.42045454545453C928.625,150.4087121212121,931,150.39696969696968,933.375,150.38522727272726C935.75,150.37348484848485,938.125,150.3617424242424,940.5,150.35C942.875,150.33825757575758,945.25,150.32651515151514,947.625,150.31477272727273C950,150.3030303030303,952.3750000000001,150.29128787878787,954.7500000000001,150.27954545454546C957.1250000000001,150.26780303030304,959.5000000000001,150.2560606060606,961.8750000000001,150.2443181818182C964.2500000000001,150.23257575757577,966.6250000000001,150.22083333333333,969.0000000000001,150.20909090909092C971.3750000000001,150.1973484848485,973.7500000000001,150.1856060606061,976.1250000000001,150.17386363636365C978.5,150.16212121212124,980.875,150.15037878787876,983.2499999999999,150.13863636363635C985.6249999999999,150.1268939393939,987.9999999999999,150.1151515151515,990.3749999999999,150.10340909090908C992.7499999999999,150.09166666666667,995.1249999999999,150.07992424242423,997.4999999999999,150.0681818181818C999.8749999999999,150.0564393939394,1002.2499999999999,150.04469696969696,1004.6249999999999,150.03295454545454C1006.9999999999999,150.02121212121213,1009.375,150.0094696969697,1011.75,149.99772727272727C1014.125,149.98598484848486,1016.5,149.97424242424242,1018.875,149.9625C1021.25,149.9507575757576,1023.625,149.93901515151515,1026,149.92727272727274C1028.375,149.91553030303032,1030.75,149.9037878787879,1033.125,149.89204545454547C1035.5,149.88030303030303,1037.875,149.8685606060606,1040.25,149.85681818181817C1042.625,149.84507575757573,1045,149.83333333333331,1047.375,149.8215909090909C1049.75,149.8098484848485,1052.125,149.79810606060605,1054.5,149.78636363636363C1056.875,149.77462121212122,1059.25,149.76287878787878,1061.625,149.75113636363636C1064,149.73939393939395,1066.375,149.7276515151515,1068.75,149.7159090909091C1071.125,149.70416666666668,1073.5,149.69242424242424,1075.875,149.68068181818182C1078.25,149.6689393939394,1080.625,149.657196969697,1083,149.64545454545456C1085.375,149.6337121212121,1087.75,149.6219696969697,1090.125,149.61022727272726C1092.5,149.59848484848482,1094.875,149.5867424242424,1097.25,149.575C1099.625,149.56325757575758,1102,149.55151515151513,1104.375,149.53977272727272C1106.75,149.5280303030303,1109.125,149.51628787878786,1111.5,149.50454545454545C1113.875,149.49280303030304,1116.25,149.4810606060606,1118.625,149.46931818181818C1121,149.45757575757577,1123.375,149.44583333333333,1125.75,149.4340909090909C1128.125,149.4223484848485,1130.5,149.41060606060606,1132.875,149.39886363636364C1135.25,149.38712121212123,1137.625,149.38712121212123,1140,149.36363636363637C1142.375,149.34015151515152,1144.75,147.32045454545454,1147.125,146.29886363636362C1149.5,145.2772727272727,1151.875,144.2556818181818,1154.25,143.2340909090909C1156.625,142.21249999999998,1159,141.1909090909091,1161.375,140.16931818181817C1163.75,139.14772727272725,1166.125,138.12613636363636,1168.5,137.10454545454544C1170.875,136.08295454545453,1173.25,135.06136363636364,1175.625,134.03977272727272C1178,133.0181818181818,1180.375,131.9965909090909,1182.75,130.975C1185.125,129.95340909090908,1187.5,128.9318181818182,1189.875,127.91022727272727C1192.25,126.88863636363637,1194.625,125.86704545454545,1197,124.84545454545454C1199.375,123.82386363636364,1201.75,122.80227272727274,1204.125,121.78068181818182C1206.5,120.7590909090909,1208.875,119.73749999999998,1211.25,118.71590909090908C1213.625,117.69431818181818,1216,116.67272727272726,1218.375,115.65113636363635C1220.75,114.62954545454545,1223.125,113.60795454545453,1225.5,112.58636363636363C1227.875,111.56477272727273,1230.25,110.54318181818181,1232.625,109.5215909090909C1235,108.5,1237.375,107.4784090909091,1239.75,106.45681818181819C1242.125,105.43522727272729,1244.5,104.41363636363637,1246.875,103.39204545454545C1249.25,102.37045454545454,1251.625,101.34886363636363,1254,100.32727272727271C1256.375,99.3056818181818,1258.75,98.28409090909089,1261.125,97.26249999999999C1263.5,96.24090909090908,1265.875,95.21931818181817,1268.25,94.19772727272726C1270.625,93.17613636363636,1273,92.15454545454546,1275.375,91.13295454545455C1277.75,90.11136363636365,1280.125,89.08977272727273,1282.5,88.06818181818181C1284.875,87.0465909090909,1287.25,86.02499999999999,1289.625,85.00340909090909C1292,83.98181818181818,1294.375,82.96022727272728,1296.75,81.93863636363638C1299.125,80.91704545454547,1301.5,79.89545454545454,1303.875,78.87386363636362C1306.25,77.8522727272727,1308.625,76.8306818181818,1311,75.8090909090909C1313.375,74.7875,1315.75,73.76590909090909,1318.125,72.74431818181819C1320.5,71.72272727272728,1322.875,70.70113636363635,1325.25,69.67954545454545C1327.625,68.65795454545454,1330,67.63636363636364,1332.375,66.61477272727274C1334.75,65.59318181818183,1337.125,64.5715909090909,1339.5,63.54999999999999C1341.875,62.52840909090908,1344.25,61.506818181818204,1346.625,60.48522727272729C1349,59.46363636363638,1351.375,58.442045454545465,1353.75,57.42045454545455C1356.125,56.39886363636363,1358.5,55.37727272727272,1360.875,54.35568181818181C1363.25,53.3340909090909,1365.625,52.31250000000001,1368,51.290909090909096C1370.375,50.269318181818186,1372.75,49.24772727272726,1375.125,48.22613636363635C1377.5,47.20454545454544,1379.875,46.18295454545454,1382.25,45.16136363636364C1384.625,44.139772727272735,1387,43.118181818181824,1389.375,42.096590909090914C1391.75,41.075,1394.125,40.05340909090909,1396.5,39.03181818181818C1398.875,38.01022727272727,1401.25,36.98863636363637,1403.625,35.967045454545456C1406,34.945454545454545,1408.375,33.92386363636362,1410.75,32.90227272727271C1413.125,31.8806818181818,1415.5,30.85909090909091,1417.875,29.837500000000002C1420.25,28.815909090909095,1422.625,27.794318181818184,1425,26.772727272727273" fill="transparent" stroke-linecap="round" stroke="#1AD4B3" stroke-width="2"></path><g class="visx-group visx-axis visx-axis-bottom" transform="translate(0, 155)"><g class="visx-group visx-axis-tick" transform="translate(0, 0)"><line class="visx-line" x1="0" y1="0" x2="0" y2="8" fill="transparent" shape-rendering="crispEdges" stroke="#F2F0F9" stroke-width="1" stroke-linecap="square"></line><svg x="0" y="0" font-size="11" style="overflow:visible"><text transform="" x="0" y="19" fill="#1B2030" font-size="11" text-anchor="middle"><tspan x="0" dy="0em">0%</tspan></text></svg></g><g class="visx-group visx-axis-tick" transform="translate(0, 0)"><line class="visx-line" x1="356.25" y1="0" x2="356.25" y2="8" fill="transparent" shape-rendering="crispEdges" stroke="#F2F0F9" stroke-width="1" stroke-linecap="square"></line><svg x="0" y="0" font-size="11" style="overflow:visible"><text transform="" x="356.25" y="19" fill="#1B2030" font-size="11" text-anchor="middle"><tspan x="356.25" dy="0em">25%</tspan></text></svg></g><g class="visx-group visx-axis-tick" transform="translate(0, 0)"><line class="visx-line" x1="712.5" y1="0" x2="712.5" y2="8" fill="transparent" shape-rendering="crispEdges" stroke="#F2F0F9" stroke-width="1" stroke-linecap="square"></line><svg x="0" y="0" font-size="11" style="overflow:visible"><text transform="" x="712.5" y="19" fill="#1B2030" font-size="11" text-anchor="middle"><tspan x="712.5" dy="0em">50%</tspan></text></svg></g><g class="visx-group visx-axis-tick" transform="translate(0, 0)"><line class="visx-line" x1="1068.75" y1="0" x2="1068.75" y2="8" fill="transparent" shape-rendering="crispEdges" stroke="#F2F0F9" stroke-width="1" stroke-linecap="square"></line><svg x="0" y="0" font-size="11" style="overflow:visible"><text transform="" x="1068.75" y="19" fill="#1B2030" font-size="11" text-anchor="middle"><tspan x="1068.75" dy="0em">75%</tspan></text></svg></g><g class="visx-group visx-axis-tick" transform="translate(0, 0)"><line class="visx-line" x1="1425" y1="0" x2="1425" y2="8" fill="transparent" shape-rendering="crispEdges" stroke="#F2F0F9" stroke-width="1" stroke-linecap="square"></line><svg x="0" y="0" font-size="11" style="overflow:visible"><text transform="" x="1425" y="19" fill="#1B2030" font-size="11" text-anchor="middle"><tspan x="1425" dy="0em">100%</tspan></text></svg></g></g><g class="visx-group visx-axis visx-axis-left" transform="translate(0, 0)"><g class="visx-group visx-axis-tick" transform="translate(0, 0)"><line class="visx-line" x1="0" y1="155" x2="-8" y2="155" fill="transparent" shape-rendering="crispEdges" stroke="#F2F0F9" stroke-width="1" stroke-linecap="square"></line><svg x="-30" y="0" font-size="11" style="overflow:visible"><text transform="" x="-8" y="155" fill="#1B2030" font-size="11" text-anchor="start"><tspan x="-8" dy="0em">0%</tspan></text></svg></g><g class="visx-group visx-axis-tick" transform="translate(0, 0)"><line class="visx-line" x1="0" y1="84.54545454545453" x2="-8" y2="84.54545454545453" fill="transparent" shape-rendering="crispEdges" stroke="#F2F0F9" stroke-width="1" stroke-linecap="square"></line><svg x="-30" y="0" font-size="11" style="overflow:visible"><text transform="" x="-8" y="84.54545454545453" fill="#1B2030" font-size="11" text-anchor="start"><tspan x="-8" dy="0em">50%</tspan></text></svg></g><g class="visx-group visx-axis-tick" transform="translate(0, 0)"><line class="visx-line" x1="0" y1="14.090909090909095" x2="-8" y2="14.090909090909095" fill="transparent" shape-rendering="crispEdges" stroke="#F2F0F9" stroke-width="1" stroke-linecap="square"></line><svg x="-30" y="0" font-size="11" style="overflow:visible"><text transform="" x="-8" y="14.090909090909095" fill="#1B2030" font-size="11" text-anchor="start"><tspan x="-8" dy="0em">100%</tspan></text></svg></g><line class="visx-line visx-axis-line" x1="0" y1="155.5" x2="0" y2="0.5" fill="transparent" shape-rendering="crispEdges" stroke="#F2F0F9" stroke-width="1"></line></g><rect class="visx-bar" width="1425" height="155" fill="transparent"></rect><line class="visx-line" x1="1140" y1="58" x2="1140" y2="155" fill="transparent" shape-rendering="crispEdges" stroke="#CDC8E1" stroke-width="1" pointer-events="none" stroke-dasharray="5"></line><svg x="0" y="0" font-size="11px" style="overflow:visible"><text transform="" x="1140" y="50" font-size="11px" fill="#555069" stroke="#FFFFFF" stroke-width="1px" text-anchor="middle"><tspan x="1140" dy="0.355em">uOptimal 80%</tspan></text></svg><svg x="0" y="0" font-size="11px" style="overflow:visible"><text transform="" x="1140" y="50" font-size="11px" fill="#CDC8E1" text-anchor="middle"><tspan x="1140" dy="0.355em">uOptimal 80%</tspan></text></svg></g></svg>