<?xml version="1.0"?><svg xmlns="http://www.w3.org/2000/svg" xmlns:xlink= "http://www.w3.org/1999/xlink" style="background: white;" width="1500" height="300"> <g style="color: black; font-size: 13px; font-family: sans-serif; transform: translate(18px, 25px);"><g><circle r="3" cx="-6" cy="-5" style="fill: #1AD4B3" /><text>Borrow APR, variable</text></g><g style="transform: translateX(150px);"><circle r="3" cx="-6" cy="-5" style="fill: #101423" /><text>Borrow APR, stable</text></g></g><g class="visx-group" transform="translate(45, 50)"><g class="visx-group visx-rows" transform="translate(0, 0)"><line class="visx-line" x1="0" y1="155" x2="1425" y2="155" fill="transparent" shape-rendering="crispEdges" stroke="#F2F0F9" stroke-width="1" pointer-events="none"></line><line class="visx-line" x1="0" y1="77.5" x2="1425" y2="77.5" fill="transparent" shape-rendering="crispEdges" stroke="#F2F0F9" stroke-width="1" pointer-events="none"></line><line class="visx-line" x1="0" y1="0" x2="1425" y2="0" fill="transparent" shape-rendering="crispEdges" stroke="#F2F0F9" stroke-width="1" pointer-events="none"></line></g><path class="visx-linepath" d="M0,154.99999999993454C2.375,154.9890925925544,4.75,154.97818518517428,7.125,154.96727777777778C9.5,154.95637037038128,11.875,154.94546296296298,14.25,154.93455555555556C16.625,154.92364814814815,19,154.91274074074073,21.375,154.90183333333331C23.75,154.8909259259259,26.125,154.88001851851854,28.5,154.86911111111112C30.875,154.8582037037037,33.25,154.8472962962963,35.625,154.83638888888888C38,154.82548148148146,40.375,154.81457407407407,42.75,154.80366666666666C45.125,154.79275925925924,47.50000000000001,154.78185185185185,49.87500000000001,154.77094444444444C52.25000000000001,154.76003703703702,54.625,154.74912962962964,57,154.73822222222222C59.375,154.7273148148148,61.75,154.71640740740742,64.125,154.7055C66.5,154.69459259259258,68.875,154.6836851851852,71.25,154.67277777777778C73.625,154.66187037037037,76,154.65096296296298,78.375,154.64005555555556C80.75,154.62914814814815,83.125,154.61824074074073,85.5,154.60733333333332C87.875,154.5964259259259,90.25,154.58551851851854,92.625,154.57461111111112C95,154.5637037037037,97.37500000000001,154.5527962962963,99.75000000000001,154.54188888888888C102.12500000000001,154.53098148148146,104.5,154.52007407407407,106.875,154.50916666666666C109.25,154.49825925925924,111.625,154.48735185185186,114,154.47644444444444C116.375,154.46553703703702,118.75000000000001,154.45462962962964,121.12500000000001,154.44372222222222C123.50000000000001,154.4328148148148,125.875,154.42190740740742,128.25,154.411C130.625,154.40009259259259,133,154.3891851851852,135.375,154.37827777777778C137.75,154.36737037037037,140.125,154.35646296296298,142.5,154.34555555555556C144.875,154.33464814814815,147.25,154.32374074074076,149.625,154.31283333333334C152,154.30192592592593,154.375,154.2910185185185,156.75,154.2801111111111C159.125,154.26920370370368,161.5,154.25829629629632,163.875,154.2473888888889C166.25,154.2364814814815,168.625,154.22557407407407,171,154.21466666666666C173.375,154.20375925925924,175.75,154.19285185185186,178.125,154.18194444444444C180.5,154.17103703703702,182.875,154.16012962962964,185.25,154.14922222222222C187.625,154.1383148148148,190,154.12740740740742,192.375,154.1165C194.75,154.1055925925926,197.12500000000003,154.0946851851852,199.50000000000003,154.08377777777778C201.875,154.07287037037037,204.25,154.06196296296298,206.62499999999997,154.05105555555556C208.99999999999997,154.04014814814815,211.375,154.02924074074076,213.75,154.01833333333335C216.125,154.00742592592593,218.5,153.9965185185185,220.875,153.9856111111111C223.25,153.97470370370368,225.625,153.96379629629632,228,153.9528888888889C230.375,153.9419814814815,232.75,153.93107407407408,235.125,153.92016666666666C237.5,153.90925925925924,239.87500000000003,153.89835185185186,242.25000000000003,153.88744444444444C244.625,153.87653703703702,247,153.86562962962964,249.37499999999997,153.85472222222222C251.74999999999997,153.8438148148148,254.125,153.83290740740742,256.5,153.822C258.875,153.8110925925926,261.25,153.8001851851852,263.625,153.78927777777778C266,153.77837037037037,268.375,153.76746296296295,270.75,153.75655555555554C273.125,153.74564814814812,275.5,153.73474074074076,277.875,153.72383333333335C280.25,153.71292592592593,282.625,153.7020185185185,285,153.6911111111111C287.375,153.68020370370368,289.75,153.6692962962963,292.125,153.65838888888888C294.5,153.64748148148146,296.875,153.63657407407408,299.25,153.62566666666666C301.625,153.61475925925924,304,153.60385185185186,306.375,153.59294444444444C308.75,153.58203703703703,311.125,153.57112962962964,313.5,153.56022222222222C315.875,153.5493148148148,318.25,153.53840740740742,320.625,153.5275C323,153.5165925925926,325.375,153.5056851851852,327.75,153.49477777777778C330.125,153.48387037037037,332.5,153.47296296296295,334.875,153.46205555555554C337.25,153.45114814814812,339.625,153.44024074074076,342,153.42933333333335C344.375,153.41842592592593,346.75,153.40751851851851,349.125,153.3966111111111C351.5,153.38570370370368,353.875,153.3747962962963,356.25,153.36388888888888C358.625,153.35298148148146,361,153.34207407407408,363.375,153.33116666666666C365.75,153.32025925925925,368.125,153.30935185185186,370.5,153.29844444444444C372.875,153.28753703703703,375.25,153.27662962962964,377.625,153.26572222222222C380,153.2548148148148,382.375,153.24390740740742,384.75,153.233C387.125,153.2220925925926,389.50000000000006,153.2111851851852,391.87500000000006,153.20027777777779C394.25000000000006,153.18937037037037,396.62500000000006,153.17846296296298,399.00000000000006,153.16755555555557C401.375,153.15664814814815,403.75,153.14574074074073,406.12499999999994,153.13483333333332C408.49999999999994,153.1239259259259,410.87499999999994,153.11301851851854,413.24999999999994,153.10211111111113C415.62499999999994,153.0912037037037,418,153.0802962962963,420.375,153.06938888888888C422.75,153.05848148148146,425.125,153.04757407407408,427.5,153.03666666666666C429.875,153.02575925925925,432.25,153.01485185185186,434.625,153.00394444444444C437,152.99303703703703,439.375,152.98212962962964,441.75,152.97122222222222C444.125,152.9603148148148,446.5,152.94940740740742,448.875,152.9385C451.25,152.9275925925926,453.625,152.9166851851852,456,152.90577777777779C458.375,152.89487037037037,460.75,152.88396296296298,463.125,152.87305555555557C465.5,152.86214814814815,467.875,152.85124074074074,470.25,152.84033333333332C472.625,152.8294259259259,475.00000000000006,152.81851851851854,477.37500000000006,152.80761111111113C479.75000000000006,152.7967037037037,482.12500000000006,152.7857962962963,484.50000000000006,152.77488888888888C486.875,152.76398148148147,489.25,152.75307407407408,491.62499999999994,152.74216666666666C493.99999999999994,152.73125925925925,496.37499999999994,152.72035185185186,498.74999999999994,152.70944444444444C501.12499999999994,152.69853703703703,503.5,152.68762962962964,505.875,152.67672222222222C508.25,152.6658148148148,510.625,152.65490740740742,513,152.644C515.375,152.6330925925926,517.75,152.62218518518517,520.125,152.61127777777776C522.5,152.60037037037034,524.875,152.58946296296298,527.25,152.57855555555557C529.625,152.56764814814815,532,152.55674074074074,534.375,152.54583333333332C536.75,152.5349259259259,539.125,152.52401851851855,541.5,152.51311111111113C543.875,152.5022037037037,546.25,152.4912962962963,548.625,152.48038888888888C551,152.46948148148147,553.375,152.45857407407408,555.75,152.44766666666666C558.125,152.43675925925925,560.5,152.42585185185186,562.875,152.41494444444444C565.25,152.40403703703703,567.625,152.39312962962964,570,152.38222222222223C572.375,152.3713148148148,574.75,152.36040740740742,577.125,152.3495C579.5,152.3385925925926,581.875,152.3276851851852,584.25,152.3167777777778C586.625,152.30587037037037,589,152.29496296296298,591.375,152.28405555555557C593.75,152.27314814814815,596.125,152.26224074074074,598.5,152.25133333333332C600.875,152.2404259259259,603.25,152.22951851851852,605.625,152.2186111111111C608,152.2077037037037,610.375,152.1967962962963,612.75,152.18588888888888C615.125,152.17498148148147,617.5,152.16407407407408,619.875,152.15316666666666C622.25,152.14225925925925,624.625,152.13135185185186,627,152.12044444444444C629.375,152.10953703703703,631.75,152.09862962962964,634.125,152.08772222222223C636.5,152.0768148148148,638.875,152.06590740740742,641.25,152.055C643.625,152.0440925925926,646,152.0331851851852,648.375,152.0222777777778C650.75,152.01137037037037,653.125,152.00046296296296,655.5,151.98955555555554C657.875,151.97864814814812,660.25,151.96774074074077,662.625,151.95683333333335C665,151.94592592592593,667.375,151.93501851851852,669.75,151.9241111111111C672.125,151.9132037037037,674.5,151.9022962962963,676.875,151.89138888888888C679.25,151.88048148148147,681.625,151.86957407407408,684,151.85866666666666C686.375,151.84775925925925,688.75,151.83685185185186,691.125,151.82594444444445C693.5,151.81503703703703,695.875,151.80412962962964,698.25,151.79322222222223C700.625,151.7823148148148,703,151.77140740740742,705.375,151.7605C707.75,151.7495925925926,710.125,151.7386851851852,712.5,151.7277777777778C714.875,151.71687037037037,717.25,151.70596296296296,719.625,151.69505555555554C722,151.68414814814813,724.375,151.67324074074077,726.75,151.66233333333335C729.125,151.65142592592593,731.5,151.64051851851852,733.875,151.6296111111111C736.25,151.6187037037037,738.625,151.6077962962963,741,151.59688888888888C743.375,151.58598148148147,745.75,151.57507407407408,748.125,151.56416666666667C750.5,151.55325925925925,752.875,151.54235185185186,755.25,151.53144444444445C757.625,151.52053703703703,760,151.50962962962964,762.375,151.49872222222223C764.75,151.4878148148148,767.125,151.4769074074074,769.5,151.46599999999998C771.875,151.45509259259256,774.2500000000001,151.4441851851852,776.6250000000001,151.4332777777778C779.0000000000001,151.42237037037037,781.3750000000001,151.41146296296296,783.7500000000001,151.40055555555554C786.1250000000001,151.38964814814813,788.5000000000001,151.37874074074077,790.8750000000001,151.36783333333335C793.2500000000001,151.35692592592594,795.6250000000001,151.34601851851852,798.0000000000001,151.3351111111111C800.375,151.3242037037037,802.75,151.3132962962963,805.1249999999999,151.30238888888888C807.4999999999999,151.29148148148147,809.8749999999999,151.28057407407408,812.2499999999999,151.26966666666667C814.6249999999999,151.25875925925925,816.9999999999999,151.24785185185186,819.3749999999999,151.23694444444445C821.7499999999999,151.22603703703703,824.1249999999999,151.21512962962964,826.4999999999999,151.20422222222223C828.8749999999999,151.1933148148148,831.25,151.18240740740742,833.625,151.1715C836,151.1605925925926,838.375,151.1496851851852,840.75,151.1387777777778C843.125,151.12787037037037,845.5,151.11696296296296,847.875,151.10605555555554C850.25,151.09514814814813,852.625,151.08424074074074,855,151.07333333333332C857.375,151.0624259259259,859.75,151.05151851851852,862.125,151.0406111111111C864.5,151.0297037037037,866.875,151.0187962962963,869.25,151.00788888888889C871.625,150.99698148148147,874,150.98607407407408,876.375,150.97516666666667C878.75,150.96425925925925,881.125,150.95335185185186,883.5,150.94244444444445C885.875,150.93153703703703,888.25,150.92062962962964,890.625,150.90972222222223C893,150.8988148148148,895.375,150.88790740740743,897.75,150.877C900.125,150.8660925925926,902.5,150.8551851851852,904.875,150.8442777777778C907.25,150.83337037037037,909.625,150.822462962963,912,150.81155555555557C914.375,150.80064814814816,916.75,150.78974074074074,919.125,150.77883333333332C921.5,150.7679259259259,923.875,150.75701851851852,926.25,150.7461111111111C928.625,150.7352037037037,931,150.7242962962963,933.375,150.7133888888889C935.75,150.70248148148147,938.125,150.69157407407408,940.5,150.68066666666667C942.875,150.66975925925925,945.25,150.65885185185186,947.625,150.64794444444445C950,150.63703703703703,952.3750000000001,150.62612962962965,954.7500000000001,150.61522222222223C957.1250000000001,150.6043148148148,959.5000000000001,150.59340740740743,961.8750000000001,150.5825C964.2500000000001,150.5715925925926,966.6250000000001,150.56068518518518,969.0000000000001,150.54977777777776C971.3750000000001,150.53887037037035,973.7500000000001,150.527962962963,976.1250000000001,150.51705555555557C978.5,150.50614814814816,980.875,150.49524074074074,983.2499999999999,150.48433333333332C985.6249999999999,150.4734259259259,987.9999999999999,150.46251851851852,990.3749999999999,150.4516111111111C992.7499999999999,150.4407037037037,995.1249999999999,150.4297962962963,997.4999999999999,150.4188888888889C999.8749999999999,150.40798148148147,1002.2499999999999,150.39707407407408,1004.6249999999999,150.38616666666667C1006.9999999999999,150.37525925925925,1009.375,150.36435185185186,1011.75,150.35344444444445C1014.125,150.34253703703703,1016.5,150.33162962962962,1018.875,150.3207222222222C1021.25,150.30981481481479,1023.625,150.29890740740743,1026,150.288C1028.375,150.2770925925926,1030.75,150.26618518518518,1033.125,150.25527777777776C1035.5,150.24437037037035,1037.875,150.233462962963,1040.25,150.22255555555557C1042.625,150.21164814814816,1045,150.20074074074074,1047.375,150.18983333333333C1049.75,150.1789259259259,1052.125,150.16801851851852,1054.5,150.1571111111111C1056.875,150.1462037037037,1059.25,150.1352962962963,1061.625,150.1243888888889C1064,150.11348148148147,1066.375,150.10257407407408,1068.75,150.09166666666667C1071.125,150.08075925925925,1073.5,150.06985185185187,1075.875,150.05894444444445C1078.25,150.04803703703703,1080.625,150.03712962962965,1083,150.02622222222223C1085.375,150.01531481481481,1087.75,150.00440740740743,1090.125,149.9935C1092.5,149.9825925925926,1094.875,149.97168518518518,1097.25,149.96077777777776C1099.625,149.94987037037035,1102,149.93896296296296,1104.375,149.92805555555555C1106.75,149.91714814814813,1109.125,149.90624074074074,1111.5,149.89533333333333C1113.875,149.8844259259259,1116.25,149.87351851851852,1118.625,149.8626111111111C1121,149.8517037037037,1123.375,149.8407962962963,1125.75,149.8298888888889C1128.125,149.81898148148147,1130.5,149.80807407407409,1132.875,149.79716666666667C1135.25,149.78625925925925,1137.625,149.77535185185187,1140,149.76444444444445C1142.375,149.75353703703703,1144.75,149.74262962962965,1147.125,149.73172222222223C1149.5,149.72081481481482,1151.875,149.70990740740743,1154.25,149.699C1156.625,149.6880925925926,1159,149.67718518518518,1161.375,149.66627777777776C1163.75,149.65537037037035,1166.125,149.64446296296296,1168.5,149.63355555555555C1170.875,149.62264814814813,1173.25,149.61174074074074,1175.625,149.60083333333333C1178,149.5899259259259,1180.375,149.57901851851852,1182.75,149.5681111111111C1185.125,149.5572037037037,1187.5,149.5462962962963,1189.875,149.5353888888889C1192.25,149.52448148148147,1194.625,149.51357407407409,1197,149.50266666666667C1199.375,149.49175925925925,1201.75,149.48085185185187,1204.125,149.46994444444445C1206.5,149.45903703703704,1208.875,149.44812962962965,1211.25,149.43722222222223C1213.625,149.42631481481482,1216,149.4154074074074,1218.375,149.40449999999998C1220.75,149.39359259259257,1223.125,149.3826851851852,1225.5,149.3717777777778C1227.875,149.36087037037038,1230.25,149.34996296296296,1232.625,149.33905555555555C1235,149.32814814814813,1237.375,149.31724074074074,1239.75,149.30633333333333C1242.125,149.2954259259259,1244.5,149.28451851851852,1246.875,149.2736111111111C1249.25,149.2627037037037,1251.625,149.2517962962963,1254,149.2408888888889C1256.375,149.22998148148147,1258.75,149.2190740740741,1261.125,149.20816666666667C1263.5,149.19725925925925,1265.875,149.18635185185187,1268.25,149.17544444444445C1270.625,149.16453703703704,1273,149.15362962962965,1275.375,149.14272222222223C1277.75,149.13181481481482,1280.125,149.13181481481482,1282.5,149.10999999999999C1284.875,149.08818518518515,1287.25,144.97666666666666,1289.625,142.91C1292,140.84333333333333,1294.375,138.77666666666667,1296.75,136.71C1299.125,134.64333333333335,1301.5,132.57666666666665,1303.875,130.51C1306.25,128.44333333333333,1308.625,126.37666666666667,1311,124.31C1313.375,122.24333333333334,1315.75,120.17666666666666,1318.125,118.11C1320.5,116.04333333333334,1322.875,113.97666666666666,1325.25,111.91C1327.625,109.84333333333333,1330,107.77666666666666,1332.375,105.71C1334.75,103.64333333333333,1337.125,101.57666666666667,1339.5,99.51C1341.875,97.44333333333334,1344.25,95.37666666666667,1346.625,93.31C1349,91.24333333333334,1351.375,89.17666666666668,1353.75,87.11000000000001C1356.125,85.04333333333335,1358.5,82.97666666666666,1360.875,80.91C1363.25,78.84333333333333,1365.625,76.77666666666666,1368,74.71C1370.375,72.64333333333333,1372.75,70.57666666666665,1375.125,68.50999999999999C1377.5,66.44333333333333,1379.875,64.37666666666667,1382.25,62.31C1384.625,60.24333333333334,1387,58.17666666666667,1389.375,56.11C1391.75,54.04333333333333,1394.125,51.97666666666664,1396.5,49.909999999999975C1398.875,47.84333333333331,1401.25,45.77666666666667,1403.625,43.71000000000001C1406,41.643333333333345,1408.375,39.57666666666667,1410.75,37.51C1413.125,35.44333333333333,1415.5,33.376666666666644,1417.875,31.309999999999977C1420.25,29.24333333333331,1422.625,27.17666666666666,1425,25.110000000000007" fill="transparent" stroke-linecap="round" stroke="#1AD4B3" stroke-width="2"></path><g class="visx-group visx-axis visx-axis-bottom" transform="translate(0, 155)"><g class="visx-group visx-axis-tick" transform="translate(0, 0)"><line class="visx-line" x1="0" y1="0" x2="0" y2="8" fill="transparent" shape-rendering="crispEdges" stroke="#F2F0F9" stroke-width="1" stroke-linecap="square"></line><svg x="0" y="0" font-size="11" style="overflow:visible"><text transform="" x="0" y="19" fill="#1B2030" font-size="11" text-anchor="middle"><tspan x="0" dy="0em">0%</tspan></text></svg></g><g class="visx-group visx-axis-tick" transform="translate(0, 0)"><line class="visx-line" x1="356.25" y1="0" x2="356.25" y2="8" fill="transparent" shape-rendering="crispEdges" stroke="#F2F0F9" stroke-width="1" stroke-linecap="square"></line><svg x="0" y="0" font-size="11" style="overflow:visible"><text transform="" x="356.25" y="19" fill="#1B2030" font-size="11" text-anchor="middle"><tspan x="356.25" dy="0em">25%</tspan></text></svg></g><g class="visx-group visx-axis-tick" transform="translate(0, 0)"><line class="visx-line" x1="712.5" y1="0" x2="712.5" y2="8" fill="transparent" shape-rendering="crispEdges" stroke="#F2F0F9" stroke-width="1" stroke-linecap="square"></line><svg x="0" y="0" font-size="11" style="overflow:visible"><text transform="" x="712.5" y="19" fill="#1B2030" font-size="11" text-anchor="middle"><tspan x="712.5" dy="0em">50%</tspan></text></svg></g><g class="visx-group visx-axis-tick" transform="translate(0, 0)"><line class="visx-line" x1="1068.75" y1="0" x2="1068.75" y2="8" fill="transparent" shape-rendering="crispEdges" stroke="#F2F0F9" stroke-width="1" stroke-linecap="square"></line><svg x="0" y="0" font-size="11" style="overflow:visible"><text transform="" x="1068.75" y="19" fill="#1B2030" font-size="11" text-anchor="middle"><tspan x="1068.75" dy="0em">75%</tspan></text></svg></g><g class="visx-group visx-axis-tick" transform="translate(0, 0)"><line class="visx-line" x1="1425" y1="0" x2="1425" y2="8" fill="transparent" shape-rendering="crispEdges" stroke="#F2F0F9" stroke-width="1" stroke-linecap="square"></line><svg x="0" y="0" font-size="11" style="overflow:visible"><text transform="" x="1425" y="19" fill="#1B2030" font-size="11" text-anchor="middle"><tspan x="1425" dy="0em">100%</tspan></text></svg></g></g><g class="visx-group visx-axis visx-axis-left" transform="translate(0, 0)"><g class="visx-group visx-axis-tick" transform="translate(0, 0)"><line class="visx-line" x1="0" y1="155" x2="-8" y2="155" fill="transparent" shape-rendering="crispEdges" stroke="#F2F0F9" stroke-width="1" stroke-linecap="square"></line><svg x="-30" y="0" font-size="11" style="overflow:visible"><text transform="" x="-8" y="155" fill="#1B2030" font-size="11" text-anchor="start"><tspan x="-8" dy="0em">0%</tspan></text></svg></g><g class="visx-group visx-axis-tick" transform="translate(0, 0)"><line class="visx-line" x1="0" y1="77.5" x2="-8" y2="77.5" fill="transparent" shape-rendering="crispEdges" stroke="#F2F0F9" stroke-width="1" stroke-linecap="square"></line><svg x="-30" y="0" font-size="11" style="overflow:visible"><text transform="" x="-8" y="77.5" fill="#1B2030" font-size="11" text-anchor="start"><tspan x="-8" dy="0em">50%</tspan></text></svg></g><g class="visx-group visx-axis-tick" transform="translate(0, 0)"><line class="visx-line" x1="0" y1="0" x2="-8" y2="0" fill="transparent" shape-rendering="crispEdges" stroke="#F2F0F9" stroke-width="1" stroke-linecap="square"></line><svg x="-30" y="0" font-size="11" style="overflow:visible"><text transform="" x="-8" y="0" fill="#1B2030" font-size="11" text-anchor="start"><tspan x="-8" dy="0em">100%</tspan></text></svg></g><line class="visx-line visx-axis-line" x1="0" y1="155.5" x2="0" y2="0.5" fill="transparent" shape-rendering="crispEdges" stroke="#F2F0F9" stroke-width="1"></line></g><rect class="visx-bar" width="1425" height="155" fill="transparent"></rect><line class="visx-line" x1="1282.5" y1="58" x2="1282.5" y2="155" fill="transparent" shape-rendering="crispEdges" stroke="#CDC8E1" stroke-width="1" pointer-events="none" stroke-dasharray="5"></line><svg x="0" y="0" font-size="11px" style="overflow:visible"><text transform="" x="1282.5" y="50" font-size="11px" fill="#555069" stroke="#FFFFFF" stroke-width="1px" text-anchor="middle"><tspan x="1282.5" dy="0.355em">uOptimal 90%</tspan></text></svg><svg x="0" y="0" font-size="11px" style="overflow:visible"><text transform="" x="1282.5" y="50" font-size="11px" fill="#CDC8E1" text-anchor="middle"><tspan x="1282.5" dy="0.355em">uOptimal 90%</tspan></text></svg></g></svg>