<?xml version="1.0"?><svg xmlns="http://www.w3.org/2000/svg" xmlns:xlink= "http://www.w3.org/1999/xlink" style="background: white;" width="1500" height="300"> <g style="color: black; font-size: 13px; font-family: sans-serif; transform: translate(18px, 25px);"><g><circle r="3" cx="-6" cy="-5" style="fill: #1AD4B3" /><text>Borrow APR, variable</text></g><g style="transform: translateX(150px);"><circle r="3" cx="-6" cy="-5" style="fill: #101423" /><text>Borrow APR, stable</text></g></g><g class="visx-group" transform="translate(45, 50)"><g class="visx-group visx-rows" transform="translate(0, 0)"><line class="visx-line" x1="0" y1="155" x2="1425" y2="155" fill="transparent" shape-rendering="crispEdges" stroke="#F2F0F9" stroke-width="1" pointer-events="none"></line><line class="visx-line" x1="0" y1="110.71428571428572" x2="1425" y2="110.71428571428572" fill="transparent" shape-rendering="crispEdges" stroke="#F2F0F9" stroke-width="1" pointer-events="none"></line><line class="visx-line" x1="0" y1="66.42857142857143" x2="1425" y2="66.42857142857143" fill="transparent" shape-rendering="crispEdges" stroke="#F2F0F9" stroke-width="1" pointer-events="none"></line><line class="visx-line" x1="0" y1="22.14285714285715" x2="1425" y2="22.14285714285715" fill="transparent" shape-rendering="crispEdges" stroke="#F2F0F9" stroke-width="1" pointer-events="none"></line></g><path class="visx-linepath" d="M0,0C2.375,8.635714285714286,4.75,17.271428571428572,7.125,17.271428571428572C9.5,17.271428571428572,11.875,17.271428571428572,14.25,17.271428571428572C16.625,17.271428571428572,19,17.271428571428572,21.375,17.271428571428572C23.75,17.271428571428572,26.125,17.271428571428572,28.5,17.271428571428572C30.875,17.271428571428572,33.25,17.271428571428572,35.625,17.271428571428572C38,17.271428571428572,40.375,17.271428571428572,42.75,17.271428571428572C45.125,17.271428571428572,47.50000000000001,17.271428571428572,49.87500000000001,17.271428571428572C52.25000000000001,17.271428571428572,54.625,17.271428571428572,57,17.271428571428572C59.375,17.271428571428572,61.75,17.271428571428572,64.125,17.271428571428572C66.5,17.271428571428572,68.875,17.271428571428572,71.25,17.271428571428572C73.625,17.271428571428572,76,17.271428571428572,78.375,17.271428571428572C80.75,17.271428571428572,83.125,17.271428571428572,85.5,17.271428571428572C87.875,17.271428571428572,90.25,17.271428571428572,92.625,17.271428571428572C95,17.271428571428572,97.37500000000001,17.271428571428572,99.75000000000001,17.271428571428572C102.12500000000001,17.271428571428572,104.5,17.271428571428572,106.875,17.271428571428572C109.25,17.271428571428572,111.625,17.271428571428572,114,17.271428571428572C116.375,17.271428571428572,118.75000000000001,17.271428571428572,121.12500000000001,17.271428571428572C123.50000000000001,17.271428571428572,125.875,17.271428571428572,128.25,17.271428571428572C130.625,17.271428571428572,133,17.271428571428572,135.375,17.271428571428572C137.75,17.271428571428572,140.125,17.271428571428572,142.5,17.271428571428572C144.875,17.271428571428572,147.25,17.271428571428572,149.625,17.271428571428572C152,17.271428571428572,154.375,17.271428571428572,156.75,17.271428571428572C159.125,17.271428571428572,161.5,17.271428571428572,163.875,17.271428571428572C166.25,17.271428571428572,168.625,17.271428571428572,171,17.271428571428572C173.375,17.271428571428572,175.75,17.271428571428572,178.125,17.271428571428572C180.5,17.271428571428572,182.875,17.271428571428572,185.25,17.271428571428572C187.625,17.271428571428572,190,17.271428571428572,192.375,17.271428571428572C194.75,17.271428571428572,197.12500000000003,17.271428571428572,199.50000000000003,17.271428571428572C201.875,17.271428571428572,204.25,17.271428571428572,206.62499999999997,17.271428571428572C208.99999999999997,17.271428571428572,211.375,17.271428571428572,213.75,17.271428571428572C216.125,17.271428571428572,218.5,17.271428571428572,220.875,17.271428571428572C223.25,17.271428571428572,225.625,17.271428571428572,228,17.271428571428572C230.375,17.271428571428572,232.75,17.271428571428572,235.125,17.271428571428572C237.5,17.271428571428572,239.87500000000003,17.271428571428572,242.25000000000003,17.271428571428572C244.625,17.271428571428572,247,17.271428571428572,249.37499999999997,17.271428571428572C251.74999999999997,17.271428571428572,254.125,17.271428571428572,256.5,17.271428571428572C258.875,17.271428571428572,261.25,17.271428571428572,263.625,17.271428571428572C266,17.271428571428572,268.375,17.271428571428572,270.75,17.271428571428572C273.125,17.271428571428572,275.5,17.271428571428572,277.875,17.271428571428572C280.25,17.271428571428572,282.625,17.271428571428572,285,17.271428571428572C287.375,17.271428571428572,289.75,17.271428571428572,292.125,17.271428571428572C294.5,17.271428571428572,296.875,17.271428571428572,299.25,17.271428571428572C301.625,17.271428571428572,304,17.271428571428572,306.375,17.271428571428572C308.75,17.271428571428572,311.125,17.271428571428572,313.5,17.271428571428572C315.875,17.271428571428572,318.25,17.271428571428572,320.625,17.271428571428572C323,17.271428571428572,325.375,17.271428571428572,327.75,17.271428571428572C330.125,17.271428571428572,332.5,17.271428571428572,334.875,17.271428571428572C337.25,17.271428571428572,339.625,17.271428571428572,342,17.271428571428572C344.375,17.271428571428572,346.75,17.271428571428572,349.125,17.271428571428572C351.5,17.271428571428572,353.875,17.271428571428572,356.25,17.271428571428572C358.625,17.271428571428572,361,17.271428571428572,363.375,17.271428571428572C365.75,17.271428571428572,368.125,17.271428571428572,370.5,17.271428571428572C372.875,17.271428571428572,375.25,17.271428571428572,377.625,17.271428571428572C380,17.271428571428572,382.375,17.271428571428572,384.75,17.271428571428572C387.125,17.271428571428572,389.50000000000006,17.271428571428572,391.87500000000006,17.271428571428572C394.25000000000006,17.271428571428572,396.62500000000006,17.271428571428572,399.00000000000006,17.271428571428572C401.375,17.271428571428572,403.75,17.271428571428572,406.12499999999994,17.271428571428572C408.49999999999994,17.271428571428572,410.87499999999994,17.271428571428572,413.24999999999994,17.271428571428572C415.62499999999994,17.271428571428572,418,17.271428571428572,420.375,17.271428571428572C422.75,17.271428571428572,425.125,17.271428571428572,427.5,17.271428571428572C429.875,17.271428571428572,432.25,17.271428571428572,434.625,17.271428571428572C437,17.271428571428572,439.375,17.271428571428572,441.75,17.271428571428572C444.125,17.271428571428572,446.5,17.271428571428572,448.875,17.271428571428572C451.25,17.271428571428572,453.625,17.271428571428572,456,17.271428571428572C458.375,17.271428571428572,460.75,17.271428571428572,463.125,17.271428571428572C465.5,17.271428571428572,467.875,17.271428571428572,470.25,17.271428571428572C472.625,17.271428571428572,475.00000000000006,17.271428571428572,477.37500000000006,17.271428571428572C479.75000000000006,17.271428571428572,482.12500000000006,17.271428571428572,484.50000000000006,17.271428571428572C486.875,17.271428571428572,489.25,17.271428571428572,491.62499999999994,17.271428571428572C493.99999999999994,17.271428571428572,496.37499999999994,17.271428571428572,498.74999999999994,17.271428571428572C501.12499999999994,17.271428571428572,503.5,17.271428571428572,505.875,17.271428571428572C508.25,17.271428571428572,510.625,17.271428571428572,513,17.271428571428572C515.375,17.271428571428572,517.75,17.271428571428572,520.125,17.271428571428572C522.5,17.271428571428572,524.875,17.271428571428572,527.25,17.271428571428572C529.625,17.271428571428572,532,17.271428571428572,534.375,17.271428571428572C536.75,17.271428571428572,539.125,17.271428571428572,541.5,17.271428571428572C543.875,17.271428571428572,546.25,17.271428571428572,548.625,17.271428571428572C551,17.271428571428572,553.375,17.271428571428572,555.75,17.271428571428572C558.125,17.271428571428572,560.5,17.271428571428572,562.875,17.271428571428572C565.25,17.271428571428572,567.625,17.271428571428572,570,17.271428571428572C572.375,17.271428571428572,574.75,17.271428571428572,577.125,17.271428571428572C579.5,17.271428571428572,581.875,17.271428571428572,584.25,17.271428571428572C586.625,17.271428571428572,589,17.271428571428572,591.375,17.271428571428572C593.75,17.271428571428572,596.125,17.271428571428572,598.5,17.271428571428572C600.875,17.271428571428572,603.25,17.271428571428572,605.625,17.271428571428572C608,17.271428571428572,610.375,17.271428571428572,612.75,17.271428571428572C615.125,17.271428571428572,617.5,17.271428571428572,619.875,17.271428571428572C622.25,17.271428571428572,624.625,17.271428571428572,627,17.271428571428572C629.375,17.271428571428572,631.75,17.271428571428572,634.125,17.271428571428572C636.5,17.271428571428572,638.875,17.271428571428572,641.25,17.271428571428572C643.625,17.271428571428572,646,17.271428571428572,648.375,17.271428571428572C650.75,17.271428571428572,653.125,17.271428571428572,655.5,17.271428571428572C657.875,17.271428571428572,660.25,17.271428571428572,662.625,17.271428571428572C665,17.271428571428572,667.375,17.271428571428572,669.75,17.271428571428572C672.125,17.271428571428572,674.5,17.271428571428572,676.875,17.271428571428572C679.25,17.271428571428572,681.625,17.271428571428572,684,17.271428571428572C686.375,17.271428571428572,688.75,17.271428571428572,691.125,17.271428571428572C693.5,17.271428571428572,695.875,17.271428571428572,698.25,17.271428571428572C700.625,17.271428571428572,703,17.271428571428572,705.375,17.271428571428572C707.75,17.271428571428572,710.125,17.271428571428572,712.5,17.271428571428572C714.875,17.271428571428572,717.25,17.271428571428572,719.625,17.271428571428572C722,17.271428571428572,724.375,17.271428571428572,726.75,17.271428571428572C729.125,17.271428571428572,731.5,17.271428571428572,733.875,17.271428571428572C736.25,17.271428571428572,738.625,17.271428571428572,741,17.271428571428572C743.375,17.271428571428572,745.75,17.271428571428572,748.125,17.271428571428572C750.5,17.271428571428572,752.875,17.271428571428572,755.25,17.271428571428572C757.625,17.271428571428572,760,17.271428571428572,762.375,17.271428571428572C764.75,17.271428571428572,767.125,17.271428571428572,769.5,17.271428571428572C771.875,17.271428571428572,774.2500000000001,17.271428571428572,776.6250000000001,17.271428571428572C779.0000000000001,17.271428571428572,781.3750000000001,17.271428571428572,783.7500000000001,17.271428571428572C786.1250000000001,17.271428571428572,788.5000000000001,17.271428571428572,790.8750000000001,17.271428571428572C793.2500000000001,17.271428571428572,795.6250000000001,17.271428571428572,798.0000000000001,17.271428571428572C800.375,17.271428571428572,802.75,17.271428571428572,805.1249999999999,17.271428571428572C807.4999999999999,17.271428571428572,809.8749999999999,17.271428571428572,812.2499999999999,17.271428571428572C814.6249999999999,17.271428571428572,816.9999999999999,17.271428571428572,819.3749999999999,17.271428571428572C821.7499999999999,17.271428571428572,824.1249999999999,17.271428571428572,826.4999999999999,17.271428571428572C828.8749999999999,17.271428571428572,831.25,17.271428571428572,833.625,17.271428571428572C836,17.271428571428572,838.375,17.271428571428572,840.75,17.271428571428572C843.125,17.271428571428572,845.5,17.271428571428572,847.875,17.271428571428572C850.25,17.271428571428572,852.625,17.271428571428572,855,17.271428571428572C857.375,17.271428571428572,859.75,17.271428571428572,862.125,17.271428571428572C864.5,17.271428571428572,866.875,17.271428571428572,869.25,17.271428571428572C871.625,17.271428571428572,874,17.271428571428572,876.375,17.271428571428572C878.75,17.271428571428572,881.125,17.271428571428572,883.5,17.271428571428572C885.875,17.271428571428572,888.25,17.271428571428572,890.625,17.271428571428572C893,17.271428571428572,895.375,17.271428571428572,897.75,17.271428571428572C900.125,17.271428571428572,902.5,17.271428571428572,904.875,17.271428571428572C907.25,17.271428571428572,909.625,17.271428571428572,912,17.271428571428572C914.375,17.271428571428572,916.75,17.271428571428572,919.125,17.271428571428572C921.5,17.271428571428572,923.875,17.271428571428572,926.25,17.271428571428572C928.625,17.271428571428572,931,17.271428571428572,933.375,17.271428571428572C935.75,17.271428571428572,938.125,17.271428571428572,940.5,17.271428571428572C942.875,17.271428571428572,945.25,17.271428571428572,947.625,17.271428571428572C950,17.271428571428572,952.3750000000001,17.271428571428572,954.7500000000001,17.271428571428572C957.1250000000001,17.271428571428572,959.5000000000001,17.271428571428572,961.8750000000001,17.271428571428572C964.2500000000001,17.271428571428572,966.6250000000001,17.271428571428572,969.0000000000001,17.271428571428572C971.3750000000001,17.271428571428572,973.7500000000001,17.271428571428572,976.1250000000001,17.271428571428572C978.5,17.271428571428572,980.875,17.271428571428572,983.2499999999999,17.271428571428572C985.6249999999999,17.271428571428572,987.9999999999999,17.271428571428572,990.3749999999999,17.271428571428572C992.7499999999999,17.271428571428572,995.1249999999999,17.271428571428572,997.4999999999999,17.271428571428572C999.8749999999999,17.271428571428572,1002.2499999999999,17.271428571428572,1004.6249999999999,17.271428571428572C1006.9999999999999,17.271428571428572,1009.375,17.271428571428572,1011.75,17.271428571428572C1014.125,17.271428571428572,1016.5,17.271428571428572,1018.875,17.271428571428572C1021.25,17.271428571428572,1023.625,17.271428571428572,1026,17.271428571428572C1028.375,17.271428571428572,1030.75,17.271428571428572,1033.125,17.271428571428572C1035.5,17.271428571428572,1037.875,17.271428571428572,1040.25,17.271428571428572C1042.625,17.271428571428572,1045,17.271428571428572,1047.375,17.271428571428572C1049.75,17.271428571428572,1052.125,17.271428571428572,1054.5,17.271428571428572C1056.875,17.271428571428572,1059.25,17.271428571428572,1061.625,17.271428571428572C1064,17.271428571428572,1066.375,17.271428571428572,1068.75,17.271428571428572C1071.125,17.271428571428572,1073.5,17.271428571428572,1075.875,17.271428571428572C1078.25,17.271428571428572,1080.625,17.271428571428572,1083,17.271428571428572C1085.375,17.271428571428572,1087.75,17.271428571428572,1090.125,17.271428571428572C1092.5,17.271428571428572,1094.875,17.271428571428572,1097.25,17.271428571428572C1099.625,17.271428571428572,1102,17.271428571428572,1104.375,17.271428571428572C1106.75,17.271428571428572,1109.125,17.271428571428572,1111.5,17.271428571428572C1113.875,17.271428571428572,1116.25,17.271428571428572,1118.625,17.271428571428572C1121,17.271428571428572,1123.375,17.271428571428572,1125.75,17.271428571428572C1128.125,17.271428571428572,1130.5,17.271428571428572,1132.875,17.271428571428572C1135.25,17.271428571428572,1137.625,17.271428571428572,1140,17.271428571428572C1142.375,17.271428571428572,1144.75,17.271428571428572,1147.125,17.271428571428572C1149.5,17.271428571428572,1151.875,17.271428571428572,1154.25,17.271428571428572C1156.625,17.271428571428572,1159,17.271428571428572,1161.375,17.271428571428572C1163.75,17.271428571428572,1166.125,17.271428571428572,1168.5,17.271428571428572C1170.875,17.271428571428572,1173.25,17.271428571428572,1175.625,17.271428571428572C1178,17.271428571428572,1180.375,17.271428571428572,1182.75,17.271428571428572C1185.125,17.271428571428572,1187.5,17.271428571428572,1189.875,17.271428571428572C1192.25,17.271428571428572,1194.625,17.271428571428572,1197,17.271428571428572C1199.375,17.271428571428572,1201.75,17.271428571428572,1204.125,17.271428571428572C1206.5,17.271428571428572,1208.875,17.271428571428572,1211.25,17.271428571428572C1213.625,17.271428571428572,1216,17.271428571428572,1218.375,17.271428571428572C1220.75,17.271428571428572,1223.125,17.271428571428572,1225.5,17.271428571428572C1227.875,17.271428571428572,1230.25,17.271428571428572,1232.625,17.271428571428572C1235,17.271428571428572,1237.375,17.271428571428572,1239.75,17.271428571428572C1242.125,17.271428571428572,1244.5,17.271428571428572,1246.875,17.271428571428572C1249.25,17.271428571428572,1251.625,17.271428571428572,1254,17.271428571428572C1256.375,17.271428571428572,1258.75,17.271428571428572,1261.125,17.271428571428572C1263.5,17.271428571428572,1265.875,17.271428571428572,1268.25,17.271428571428572C1270.625,17.271428571428572,1273,17.271428571428572,1275.375,17.271428571428572C1277.75,17.271428571428572,1280.125,17.271428571428572,1282.5,17.271428571428572C1284.875,17.271428571428572,1287.25,17.271428571428572,1289.625,17.271428571428572C1292,17.271428571428572,1294.375,17.271428571428572,1296.75,17.271428571428572C1299.125,17.271428571428572,1301.5,17.271428571428572,1303.875,17.271428571428572C1306.25,17.271428571428572,1308.625,17.271428571428572,1311,17.271428571428572C1313.375,17.271428571428572,1315.75,17.271428571428572,1318.125,17.271428571428572C1320.5,17.271428571428572,1322.875,17.271428571428572,1325.25,17.271428571428572C1327.625,17.271428571428572,1330,17.271428571428572,1332.375,17.271428571428572C1334.75,17.271428571428572,1337.125,17.271428571428572,1339.5,17.271428571428572C1341.875,17.271428571428572,1344.25,17.271428571428572,1346.625,17.271428571428572C1349,17.271428571428572,1351.375,17.271428571428572,1353.75,17.271428571428572C1356.125,17.271428571428572,1358.5,17.271428571428572,1360.875,17.271428571428572C1363.25,17.271428571428572,1365.625,17.271428571428572,1368,17.271428571428572C1370.375,17.271428571428572,1372.75,17.271428571428572,1375.125,17.271428571428572C1377.5,17.271428571428572,1379.875,17.271428571428572,1382.25,17.271428571428572C1384.625,17.271428571428572,1387,17.271428571428572,1389.375,17.271428571428572C1391.75,17.271428571428572,1394.125,17.271428571428572,1396.5,17.271428571428572C1398.875,17.271428571428572,1401.25,17.271428571428572,1403.625,17.271428571428572C1406,17.271428571428572,1408.375,17.271428571428572,1410.75,17.271428571428572C1413.125,17.271428571428572,1415.5,17.271428571428572,1417.875,17.271428571428572C1420.25,17.271428571428572,1422.625,17.271428571428572,1425,17.271428571428572" fill="transparent" stroke-linecap="round" stroke="#1AD4B3" stroke-width="2"></path><g class="visx-group visx-axis visx-axis-bottom" transform="translate(0, 155)"><g class="visx-group visx-axis-tick" transform="translate(0, 0)"><line class="visx-line" x1="0" y1="0" x2="0" y2="8" fill="transparent" shape-rendering="crispEdges" stroke="#F2F0F9" stroke-width="1" stroke-linecap="square"></line><svg x="0" y="0" font-size="11" style="overflow:visible"><text transform="" x="0" y="19" fill="#1B2030" font-size="11" text-anchor="middle"><tspan x="0" dy="0em">0%</tspan></text></svg></g><g class="visx-group visx-axis-tick" transform="translate(0, 0)"><line class="visx-line" x1="356.25" y1="0" x2="356.25" y2="8" fill="transparent" shape-rendering="crispEdges" stroke="#F2F0F9" stroke-width="1" stroke-linecap="square"></line><svg x="0" y="0" font-size="11" style="overflow:visible"><text transform="" x="356.25" y="19" fill="#1B2030" font-size="11" text-anchor="middle"><tspan x="356.25" dy="0em">25%</tspan></text></svg></g><g class="visx-group visx-axis-tick" transform="translate(0, 0)"><line class="visx-line" x1="712.5" y1="0" x2="712.5" y2="8" fill="transparent" shape-rendering="crispEdges" stroke="#F2F0F9" stroke-width="1" stroke-linecap="square"></line><svg x="0" y="0" font-size="11" style="overflow:visible"><text transform="" x="712.5" y="19" fill="#1B2030" font-size="11" text-anchor="middle"><tspan x="712.5" dy="0em">50%</tspan></text></svg></g><g class="visx-group visx-axis-tick" transform="translate(0, 0)"><line class="visx-line" x1="1068.75" y1="0" x2="1068.75" y2="8" fill="transparent" shape-rendering="crispEdges" stroke="#F2F0F9" stroke-width="1" stroke-linecap="square"></line><svg x="0" y="0" font-size="11" style="overflow:visible"><text transform="" x="1068.75" y="19" fill="#1B2030" font-size="11" text-anchor="middle"><tspan x="1068.75" dy="0em">75%</tspan></text></svg></g><g class="visx-group visx-axis-tick" transform="translate(0, 0)"><line class="visx-line" x1="1425" y1="0" x2="1425" y2="8" fill="transparent" shape-rendering="crispEdges" stroke="#F2F0F9" stroke-width="1" stroke-linecap="square"></line><svg x="0" y="0" font-size="11" style="overflow:visible"><text transform="" x="1425" y="19" fill="#1B2030" font-size="11" text-anchor="middle"><tspan x="1425" dy="0em">100%</tspan></text></svg></g></g><g class="visx-group visx-axis visx-axis-left" transform="translate(0, 0)"><g class="visx-group visx-axis-tick" transform="translate(0, 0)"><line class="visx-line" x1="0" y1="155" x2="-8" y2="155" fill="transparent" shape-rendering="crispEdges" stroke="#F2F0F9" stroke-width="1" stroke-linecap="square"></line><svg x="-30" y="0" font-size="11" style="overflow:visible"><text transform="" x="-8" y="155" fill="#1B2030" font-size="11" text-anchor="start"><tspan x="-8" dy="0em">0%</tspan></text></svg></g><g class="visx-group visx-axis-tick" transform="translate(0, 0)"><line class="visx-line" x1="0" y1="110.71428571428572" x2="-8" y2="110.71428571428572" fill="transparent" shape-rendering="crispEdges" stroke="#F2F0F9" stroke-width="1" stroke-linecap="square"></line><svg x="-30" y="0" font-size="11" style="overflow:visible"><text transform="" x="-8" y="110.71428571428572" fill="#1B2030" font-size="11" text-anchor="start"><tspan x="-8" dy="0em">2%</tspan></text></svg></g><g class="visx-group visx-axis-tick" transform="translate(0, 0)"><line class="visx-line" x1="0" y1="66.42857142857143" x2="-8" y2="66.42857142857143" fill="transparent" shape-rendering="crispEdges" stroke="#F2F0F9" stroke-width="1" stroke-linecap="square"></line><svg x="-30" y="0" font-size="11" style="overflow:visible"><text transform="" x="-8" y="66.42857142857143" fill="#1B2030" font-size="11" text-anchor="start"><tspan x="-8" dy="0em">4%</tspan></text></svg></g><g class="visx-group visx-axis-tick" transform="translate(0, 0)"><line class="visx-line" x1="0" y1="22.14285714285715" x2="-8" y2="22.14285714285715" fill="transparent" shape-rendering="crispEdges" stroke="#F2F0F9" stroke-width="1" stroke-linecap="square"></line><svg x="-30" y="0" font-size="11" style="overflow:visible"><text transform="" x="-8" y="22.14285714285715" fill="#1B2030" font-size="11" text-anchor="start"><tspan x="-8" dy="0em">6%</tspan></text></svg></g><line class="visx-line visx-axis-line" x1="0" y1="155.5" x2="0" y2="0.5" fill="transparent" shape-rendering="crispEdges" stroke="#F2F0F9" stroke-width="1"></line></g><rect class="visx-bar" width="1425" height="155" fill="transparent"></rect><line class="visx-line" x1="0" y1="58" x2="0" y2="155" fill="transparent" shape-rendering="crispEdges" stroke="#CDC8E1" stroke-width="1" pointer-events="none" stroke-dasharray="5"></line><svg x="0" y="0" font-size="11px" style="overflow:visible"><text transform="" x="0" y="50" font-size="11px" fill="#555069" stroke="#FFFFFF" stroke-width="1px" text-anchor="middle"><tspan x="0" dy="0.355em">uOptimal 0%</tspan></text></svg><svg x="0" y="0" font-size="11px" style="overflow:visible"><text transform="" x="0" y="50" font-size="11px" fill="#CDC8E1" text-anchor="middle"><tspan x="0" dy="0.355em">uOptimal 0%</tspan></text></svg></g></svg>