<?xml version="1.0"?><svg xmlns="http://www.w3.org/2000/svg" xmlns:xlink= "http://www.w3.org/1999/xlink" style="background: white;" width="1500" height="300"> <g style="color: black; font-size: 13px; font-family: sans-serif; transform: translate(18px, 25px);"><g><circle r="3" cx="-6" cy="-5" style="fill: #1AD4B3" /><text>Borrow APR, variable</text></g><g style="transform: translateX(150px);"><circle r="3" cx="-6" cy="-5" style="fill: #101423" /><text>Borrow APR, stable</text></g></g><g class="visx-group" transform="translate(45, 50)"><g class="visx-group visx-rows" transform="translate(0, 0)"></g><path class="visx-linepath" d="M0,0C2.375,77.49999999999999,4.75,155,7.125,155C9.5,155,11.875,155,14.25,155C16.625,155,19,155,21.375,155C23.75,155,26.125,155,28.5,155C30.875,155,33.25,155,35.625,155C38,155,40.375,155,42.75,155C45.125,155,47.50000000000001,155,49.87500000000001,155C52.25000000000001,155,54.625,155,57,155C59.375,155,61.75,155,64.125,155C66.5,155,68.875,155,71.25,155C73.625,155,76,155,78.375,155C80.75,155,83.125,155,85.5,155C87.875,155,90.25,155,92.625,155C95,155,97.37500000000001,155,99.75000000000001,155C102.12500000000001,155,104.5,155,106.875,155C109.25,155,111.625,155,114,155C116.375,155,118.75000000000001,155,121.12500000000001,155C123.50000000000001,155,125.875,155,128.25,155C130.625,155,133,155,135.375,155C137.75,155,140.125,155,142.5,155C144.875,155,147.25,155,149.625,155C152,155,154.375,155,156.75,155C159.125,155,161.5,155,163.875,155C166.25,155,168.625,155,171,155C173.375,155,175.75,155,178.125,155C180.5,155,182.875,155,185.25,155C187.625,155,190,155,192.375,155C194.75,155,197.12500000000003,155,199.50000000000003,155C201.875,155,204.25,155,206.62499999999997,155C208.99999999999997,155,211.375,155,213.75,155C216.125,155,218.5,155,220.875,155C223.25,155,225.625,155,228,155C230.375,155,232.75,155,235.125,155C237.5,155,239.87500000000003,155,242.25000000000003,155C244.625,155,247,155,249.37499999999997,155C251.74999999999997,155,254.125,155,256.5,155C258.875,155,261.25,155,263.625,155C266,155,268.375,155,270.75,155C273.125,155,275.5,155,277.875,155C280.25,155,282.625,155,285,155C287.375,155,289.75,155,292.125,155C294.5,155,296.875,155,299.25,155C301.625,155,304,155,306.375,155C308.75,155,311.125,155,313.5,155C315.875,155,318.25,155,320.625,155C323,155,325.375,155,327.75,155C330.125,155,332.5,155,334.875,155C337.25,155,339.625,155,342,155C344.375,155,346.75,155,349.125,155C351.5,155,353.875,155,356.25,155C358.625,155,361,155,363.375,155C365.75,155,368.125,155,370.5,155C372.875,155,375.25,155,377.625,155C380,155,382.375,155,384.75,155C387.125,155,389.50000000000006,155,391.87500000000006,155C394.25000000000006,155,396.62500000000006,155,399.00000000000006,155C401.375,155,403.75,155,406.12499999999994,155C408.49999999999994,155,410.87499999999994,155,413.24999999999994,155C415.62499999999994,155,418,155,420.375,155C422.75,155,425.125,155,427.5,155C429.875,155,432.25,155,434.625,155C437,155,439.375,155,441.75,155C444.125,155,446.5,155,448.875,155C451.25,155,453.625,155,456,155C458.375,155,460.75,155,463.125,155C465.5,155,467.875,155,470.25,155C472.625,155,475.00000000000006,155,477.37500000000006,155C479.75000000000006,155,482.12500000000006,155,484.50000000000006,155C486.875,155,489.25,155,491.62499999999994,155C493.99999999999994,155,496.37499999999994,155,498.74999999999994,155C501.12499999999994,155,503.5,155,505.875,155C508.25,155,510.625,155,513,155C515.375,155,517.75,155,520.125,155C522.5,155,524.875,155,527.25,155C529.625,155,532,155,534.375,155C536.75,155,539.125,155,541.5,155C543.875,155,546.25,155,548.625,155C551,155,553.375,155,555.75,155C558.125,155,560.5,155,562.875,155C565.25,155,567.625,155,570,155C572.375,155,574.75,155,577.125,155C579.5,155,581.875,155,584.25,155C586.625,155,589,155,591.375,155C593.75,155,596.125,155,598.5,155C600.875,155,603.25,155,605.625,155C608,155,610.375,155,612.75,155C615.125,155,617.5,155,619.875,155C622.25,155,624.625,155,627,155C629.375,155,631.75,155,634.125,155C636.5,155,638.875,155,641.25,155C643.625,155,646,155,648.375,155C650.75,155,653.125,155,655.5,155C657.875,155,660.25,155,662.625,155C665,155,667.375,155,669.75,155C672.125,155,674.5,155,676.875,155C679.25,155,681.625,155,684,155C686.375,155,688.75,155,691.125,155C693.5,155,695.875,155,698.25,155C700.625,155,703,155,705.375,155C707.75,155,710.125,155,712.5,155C714.875,155,717.25,155,719.625,155C722,155,724.375,155,726.75,155C729.125,155,731.5,155,733.875,155C736.25,155,738.625,155,741,155C743.375,155,745.75,155,748.125,155C750.5,155,752.875,155,755.25,155C757.625,155,760,155,762.375,155C764.75,155,767.125,155,769.5,155C771.875,155,774.2500000000001,155,776.6250000000001,155C779.0000000000001,155,781.3750000000001,155,783.7500000000001,155C786.1250000000001,155,788.5000000000001,155,790.8750000000001,155C793.2500000000001,155,795.6250000000001,155,798.0000000000001,155C800.375,155,802.75,155,805.1249999999999,155C807.4999999999999,155,809.8749999999999,155,812.2499999999999,155C814.6249999999999,155,816.9999999999999,155,819.3749999999999,155C821.7499999999999,155,824.1249999999999,155,826.4999999999999,155C828.8749999999999,155,831.25,155,833.625,155C836,155,838.375,155,840.75,155C843.125,155,845.5,155,847.875,155C850.25,155,852.625,155,855,155C857.375,155,859.75,155,862.125,155C864.5,155,866.875,155,869.25,155C871.625,155,874,155,876.375,155C878.75,155,881.125,155,883.5,155C885.875,155,888.25,155,890.625,155C893,155,895.375,155,897.75,155C900.125,155,902.5,155,904.875,155C907.25,155,909.625,155,912,155C914.375,155,916.75,155,919.125,155C921.5,155,923.875,155,926.25,155C928.625,155,931,155,933.375,155C935.75,155,938.125,155,940.5,155C942.875,155,945.25,155,947.625,155C950,155,952.3750000000001,155,954.7500000000001,155C957.1250000000001,155,959.5000000000001,155,961.8750000000001,155C964.2500000000001,155,966.6250000000001,155,969.0000000000001,155C971.3750000000001,155,973.7500000000001,155,976.1250000000001,155C978.5,155,980.875,155,983.2499999999999,155C985.6249999999999,155,987.9999999999999,155,990.3749999999999,155C992.7499999999999,155,995.1249999999999,155,997.4999999999999,155C999.8749999999999,155,1002.2499999999999,155,1004.6249999999999,155C1006.9999999999999,155,1009.375,155,1011.75,155C1014.125,155,1016.5,155,1018.875,155C1021.25,155,1023.625,155,1026,155C1028.375,155,1030.75,155,1033.125,155C1035.5,155,1037.875,155,1040.25,155C1042.625,155,1045,155,1047.375,155C1049.75,155,1052.125,155,1054.5,155C1056.875,155,1059.25,155,1061.625,155C1064,155,1066.375,155,1068.75,155C1071.125,155,1073.5,155,1075.875,155C1078.25,155,1080.625,155,1083,155C1085.375,155,1087.75,155,1090.125,155C1092.5,155,1094.875,155,1097.25,155C1099.625,155,1102,155,1104.375,155C1106.75,155,1109.125,155,1111.5,155C1113.875,155,1116.25,155,1118.625,155C1121,155,1123.375,155,1125.75,155C1128.125,155,1130.5,155,1132.875,155C1135.25,155,1137.625,155,1140,155C1142.375,155,1144.75,155,1147.125,155C1149.5,155,1151.875,155,1154.25,155C1156.625,155,1159,155,1161.375,155C1163.75,155,1166.125,155,1168.5,155C1170.875,155,1173.25,155,1175.625,155C1178,155,1180.375,155,1182.75,155C1185.125,155,1187.5,155,1189.875,155C1192.25,155,1194.625,155,1197,155C1199.375,155,1201.75,155,1204.125,155C1206.5,155,1208.875,155,1211.25,155C1213.625,155,1216,155,1218.375,155C1220.75,155,1223.125,155,1225.5,155C1227.875,155,1230.25,155,1232.625,155C1235,155,1237.375,155,1239.75,155C1242.125,155,1244.5,155,1246.875,155C1249.25,155,1251.625,155,1254,155C1256.375,155,1258.75,155,1261.125,155C1263.5,155,1265.875,155,1268.25,155C1270.625,155,1273,155,1275.375,155C1277.75,155,1280.125,155,1282.5,155C1284.875,155,1287.25,155,1289.625,155C1292,155,1294.375,155,1296.75,155C1299.125,155,1301.5,155,1303.875,155C1306.25,155,1308.625,155,1311,155C1313.375,155,1315.75,155,1318.125,155C1320.5,155,1322.875,155,1325.25,155C1327.625,155,1330,155,1332.375,155C1334.75,155,1337.125,155,1339.5,155C1341.875,155,1344.25,155,1346.625,155C1349,155,1351.375,155,1353.75,155C1356.125,155,1358.5,155,1360.875,155C1363.25,155,1365.625,155,1368,155C1370.375,155,1372.75,155,1375.125,155C1377.5,155,1379.875,155,1382.25,155C1384.625,155,1387,155,1389.375,155C1391.75,155,1394.125,155,1396.5,155C1398.875,155,1401.25,155,1403.625,155C1406,155,1408.375,155,1410.75,155C1413.125,155,1415.5,155,1417.875,155C1420.25,155,1422.625,155,1425,155" fill="transparent" stroke-linecap="round" stroke="#1AD4B3" stroke-width="2"></path><path class="visx-linepath" d="M0,NaNC2.375,NaN,4.75,155,7.125,155C9.5,155,11.875,155,14.25,155C16.625,155,19,155,21.375,155C23.75,155,26.125,155,28.5,155C30.875,155,33.25,155,35.625,155C38,155,40.375,155,42.75,155C45.125,155,47.50000000000001,155,49.87500000000001,155C52.25000000000001,155,54.625,155,57,155C59.375,155,61.75,155,64.125,155C66.5,155,68.875,155,71.25,155C73.625,155,76,155,78.375,155C80.75,155,83.125,155,85.5,155C87.875,155,90.25,155,92.625,155C95,155,97.37500000000001,155,99.75000000000001,155C102.12500000000001,155,104.5,155,106.875,155C109.25,155,111.625,155,114,155C116.375,155,118.75000000000001,155,121.12500000000001,155C123.50000000000001,155,125.875,155,128.25,155C130.625,155,133,155,135.375,155C137.75,155,140.125,155,142.5,155C144.875,155,147.25,155,149.625,155C152,155,154.375,155,156.75,155C159.125,155,161.5,155,163.875,155C166.25,155,168.625,155,171,155C173.375,155,175.75,155,178.125,155C180.5,155,182.875,155,185.25,155C187.625,155,190,155,192.375,155C194.75,155,197.12500000000003,155,199.50000000000003,155C201.875,155,204.25,155,206.62499999999997,155C208.99999999999997,155,211.375,155,213.75,155C216.125,155,218.5,155,220.875,155C223.25,155,225.625,155,228,155C230.375,155,232.75,155,235.125,155C237.5,155,239.87500000000003,155,242.25000000000003,155C244.625,155,247,155,249.37499999999997,155C251.74999999999997,155,254.125,155,256.5,155C258.875,155,261.25,155,263.625,155C266,155,268.375,155,270.75,155C273.125,155,275.5,155,277.875,155C280.25,155,282.625,155,285,155C287.375,155,289.75,155,292.125,155C294.5,155,296.875,155,299.25,155C301.625,155,304,155,306.375,155C308.75,155,311.125,155,313.5,155C315.875,155,318.25,155,320.625,155C323,155,325.375,155,327.75,155C330.125,155,332.5,155,334.875,155C337.25,155,339.625,155,342,155C344.375,155,346.75,155,349.125,155C351.5,155,353.875,155,356.25,155C358.625,155,361,155,363.375,155C365.75,155,368.125,155,370.5,155C372.875,155,375.25,155,377.625,155C380,155,382.375,155,384.75,155C387.125,155,389.50000000000006,155,391.87500000000006,155C394.25000000000006,155,396.62500000000006,155,399.00000000000006,155C401.375,155,403.75,155,406.12499999999994,155C408.49999999999994,155,410.87499999999994,155,413.24999999999994,155C415.62499999999994,155,418,155,420.375,155C422.75,155,425.125,155,427.5,155C429.875,155,432.25,155,434.625,155C437,155,439.375,155,441.75,155C444.125,155,446.5,155,448.875,155C451.25,155,453.625,155,456,155C458.375,155,460.75,155,463.125,155C465.5,155,467.875,155,470.25,155C472.625,155,475.00000000000006,155,477.37500000000006,155C479.75000000000006,155,482.12500000000006,155,484.50000000000006,155C486.875,155,489.25,155,491.62499999999994,155C493.99999999999994,155,496.37499999999994,155,498.74999999999994,155C501.12499999999994,155,503.5,155,505.875,155C508.25,155,510.625,155,513,155C515.375,155,517.75,155,520.125,155C522.5,155,524.875,155,527.25,155C529.625,155,532,155,534.375,155C536.75,155,539.125,155,541.5,155C543.875,155,546.25,155,548.625,155C551,155,553.375,155,555.75,155C558.125,155,560.5,155,562.875,155C565.25,155,567.625,155,570,155C572.375,155,574.75,155,577.125,155C579.5,155,581.875,155,584.25,155C586.625,155,589,155,591.375,155C593.75,155,596.125,155,598.5,155C600.875,155,603.25,155,605.625,155C608,155,610.375,155,612.75,155C615.125,155,617.5,155,619.875,155C622.25,155,624.625,155,627,155C629.375,155,631.75,155,634.125,155C636.5,155,638.875,155,641.25,155C643.625,155,646,155,648.375,155C650.75,155,653.125,155,655.5,155C657.875,155,660.25,155,662.625,155C665,155,667.375,155,669.75,155C672.125,155,674.5,155,676.875,155C679.25,155,681.625,155,684,155C686.375,155,688.75,155,691.125,155C693.5,155,695.875,155,698.25,155C700.625,155,703,155,705.375,155C707.75,155,710.125,155,712.5,155C714.875,155,717.25,155,719.625,155C722,155,724.375,155,726.75,155C729.125,155,731.5,155,733.875,155C736.25,155,738.625,155,741,155C743.375,155,745.75,155,748.125,155C750.5,155,752.875,155,755.25,155C757.625,155,760,155,762.375,155C764.75,155,767.125,155,769.5,155C771.875,155,774.2500000000001,155,776.6250000000001,155C779.0000000000001,155,781.3750000000001,155,783.7500000000001,155C786.1250000000001,155,788.5000000000001,155,790.8750000000001,155C793.2500000000001,155,795.6250000000001,155,798.0000000000001,155C800.375,155,802.75,155,805.1249999999999,155C807.4999999999999,155,809.8749999999999,155,812.2499999999999,155C814.6249999999999,155,816.9999999999999,155,819.3749999999999,155C821.7499999999999,155,824.1249999999999,155,826.4999999999999,155C828.8749999999999,155,831.25,155,833.625,155C836,155,838.375,155,840.75,155C843.125,155,845.5,155,847.875,155C850.25,155,852.625,155,855,155C857.375,155,859.75,155,862.125,155C864.5,155,866.875,155,869.25,155C871.625,155,874,155,876.375,155C878.75,155,881.125,155,883.5,155C885.875,155,888.25,155,890.625,155C893,155,895.375,155,897.75,155C900.125,155,902.5,155,904.875,155C907.25,155,909.625,155,912,155C914.375,155,916.75,155,919.125,155C921.5,155,923.875,155,926.25,155C928.625,155,931,155,933.375,155C935.75,155,938.125,155,940.5,155C942.875,155,945.25,155,947.625,155C950,155,952.3750000000001,155,954.7500000000001,155C957.1250000000001,155,959.5000000000001,155,961.8750000000001,155C964.2500000000001,155,966.6250000000001,155,969.0000000000001,155C971.3750000000001,155,973.7500000000001,155,976.1250000000001,155C978.5,155,980.875,155,983.2499999999999,155C985.6249999999999,155,987.9999999999999,155,990.3749999999999,155C992.7499999999999,155,995.1249999999999,155,997.4999999999999,155C999.8749999999999,155,1002.2499999999999,155,1004.6249999999999,155C1006.9999999999999,155,1009.375,155,1011.75,155C1014.125,155,1016.5,155,1018.875,155C1021.25,155,1023.625,155,1026,155C1028.375,155,1030.75,155,1033.125,155C1035.5,155,1037.875,155,1040.25,155C1042.625,155,1045,155,1047.375,155C1049.75,155,1052.125,155,1054.5,155C1056.875,155,1059.25,155,1061.625,155C1064,155,1066.375,155,1068.75,155C1071.125,155,1073.5,155,1075.875,155C1078.25,155,1080.625,155,1083,155C1085.375,155,1087.75,155,1090.125,155C1092.5,155,1094.875,155,1097.25,155C1099.625,155,1102,155,1104.375,155C1106.75,155,1109.125,155,1111.5,155C1113.875,155,1116.25,155,1118.625,155C1121,155,1123.375,155,1125.75,155C1128.125,155,1130.5,155,1132.875,155C1135.25,155,1137.625,155,1140,155C1142.375,155,1144.75,155,1147.125,155C1149.5,155,1151.875,155,1154.25,155C1156.625,155,1159,155,1161.375,155C1163.75,155,1166.125,155,1168.5,155C1170.875,155,1173.25,155,1175.625,155C1178,155,1180.375,155,1182.75,155C1185.125,155,1187.5,155,1189.875,155C1192.25,155,1194.625,155,1197,155C1199.375,155,1201.75,155,1204.125,155C1206.5,155,1208.875,155,1211.25,155C1213.625,155,1216,155,1218.375,155C1220.75,155,1223.125,155,1225.5,155C1227.875,155,1230.25,155,1232.625,155C1235,155,1237.375,155,1239.75,155C1242.125,155,1244.5,155,1246.875,155C1249.25,155,1251.625,155,1254,155C1256.375,155,1258.75,155,1261.125,155C1263.5,155,1265.875,155,1268.25,155C1270.625,155,1273,155,1275.375,155C1277.75,155,1280.125,155,1282.5,155C1284.875,155,1287.25,155,1289.625,155C1292,155,1294.375,155,1296.75,155C1299.125,155,1301.5,155,1303.875,155C1306.25,155,1308.625,155,1311,155C1313.375,155,1315.75,155,1318.125,155C1320.5,155,1322.875,155,1325.25,155C1327.625,155,1330,155,1332.375,155C1334.75,155,1337.125,155,1339.5,155C1341.875,155,1344.25,155,1346.625,155C1349,155,1351.375,155,1353.75,155C1356.125,155,1358.5,155,1360.875,155C1363.25,155,1365.625,155,1368,155C1370.375,155,1372.75,155,1375.125,155C1377.5,155,1379.875,155,1382.25,155C1384.625,155,1387,155,1389.375,155C1391.75,155,1394.125,155,1396.5,155C1398.875,155,1401.25,155,1403.625,155C1406,155,1408.375,155,1410.75,155C1413.125,155,1415.5,155,1417.875,155C1420.25,155,1422.625,155,1425,155" fill="transparent" stroke-linecap="round" stroke="#1B2030" stroke-width="2"></path><g class="visx-group visx-axis visx-axis-bottom" transform="translate(0, 155)"><g class="visx-group visx-axis-tick" transform="translate(0, 0)"><line class="visx-line" x1="0" y1="0" x2="0" y2="8" fill="transparent" shape-rendering="crispEdges" stroke="#F2F0F9" stroke-width="1" stroke-linecap="square"></line><svg x="0" y="0" font-size="11" style="overflow:visible"><text transform="" x="0" y="19" fill="#1B2030" font-size="11" text-anchor="middle"><tspan x="0" dy="0em">0%</tspan></text></svg></g><g class="visx-group visx-axis-tick" transform="translate(0, 0)"><line class="visx-line" x1="356.25" y1="0" x2="356.25" y2="8" fill="transparent" shape-rendering="crispEdges" stroke="#F2F0F9" stroke-width="1" stroke-linecap="square"></line><svg x="0" y="0" font-size="11" style="overflow:visible"><text transform="" x="356.25" y="19" fill="#1B2030" font-size="11" text-anchor="middle"><tspan x="356.25" dy="0em">25%</tspan></text></svg></g><g class="visx-group visx-axis-tick" transform="translate(0, 0)"><line class="visx-line" x1="712.5" y1="0" x2="712.5" y2="8" fill="transparent" shape-rendering="crispEdges" stroke="#F2F0F9" stroke-width="1" stroke-linecap="square"></line><svg x="0" y="0" font-size="11" style="overflow:visible"><text transform="" x="712.5" y="19" fill="#1B2030" font-size="11" text-anchor="middle"><tspan x="712.5" dy="0em">50%</tspan></text></svg></g><g class="visx-group visx-axis-tick" transform="translate(0, 0)"><line class="visx-line" x1="1068.75" y1="0" x2="1068.75" y2="8" fill="transparent" shape-rendering="crispEdges" stroke="#F2F0F9" stroke-width="1" stroke-linecap="square"></line><svg x="0" y="0" font-size="11" style="overflow:visible"><text transform="" x="1068.75" y="19" fill="#1B2030" font-size="11" text-anchor="middle"><tspan x="1068.75" dy="0em">75%</tspan></text></svg></g><g class="visx-group visx-axis-tick" transform="translate(0, 0)"><line class="visx-line" x1="1425" y1="0" x2="1425" y2="8" fill="transparent" shape-rendering="crispEdges" stroke="#F2F0F9" stroke-width="1" stroke-linecap="square"></line><svg x="0" y="0" font-size="11" style="overflow:visible"><text transform="" x="1425" y="19" fill="#1B2030" font-size="11" text-anchor="middle"><tspan x="1425" dy="0em">100%</tspan></text></svg></g></g><g class="visx-group visx-axis visx-axis-left" transform="translate(0, 0)"><line class="visx-line visx-axis-line" x1="0" y1="155.5" x2="0" y2="0.5" fill="transparent" shape-rendering="crispEdges" stroke="#F2F0F9" stroke-width="1"></line></g><rect class="visx-bar" width="1425" height="155" fill="transparent"></rect><line class="visx-line" x1="0" y1="58" x2="0" y2="155" fill="transparent" shape-rendering="crispEdges" stroke="#CDC8E1" stroke-width="1" pointer-events="none" stroke-dasharray="5"></line><svg x="0" y="0" font-size="11px" style="overflow:visible"><text transform="" x="0" y="50" font-size="11px" fill="#555069" stroke="#FFFFFF" stroke-width="1px" text-anchor="middle"><tspan x="0" dy="0.355em">uOptimal 0%</tspan></text></svg><svg x="0" y="0" font-size="11px" style="overflow:visible"><text transform="" x="0" y="50" font-size="11px" fill="#CDC8E1" text-anchor="middle"><tspan x="0" dy="0.355em">uOptimal 0%</tspan></text></svg></g></svg>