<?xml version="1.0"?><svg xmlns="http://www.w3.org/2000/svg" xmlns:xlink= "http://www.w3.org/1999/xlink" style="background: white;" width="1500" height="300"> <g style="color: black; font-size: 13px; font-family: sans-serif; transform: translate(18px, 25px);"><g><circle r="3" cx="-6" cy="-5" style="fill: #1AD4B3" /><text>Borrow APR, variable</text></g><g style="transform: translateX(150px);"><circle r="3" cx="-6" cy="-5" style="fill: #101423" /><text>Borrow APR, stable</text></g></g><g class="visx-group" transform="translate(45, 50)"><g class="visx-group visx-rows" transform="translate(0, 0)"><line class="visx-line" x1="0" y1="155" x2="1425" y2="155" fill="transparent" shape-rendering="crispEdges" stroke="#F2F0F9" stroke-width="1" pointer-events="none"></line><line class="visx-line" x1="0" y1="95.38461538461539" x2="1425" y2="95.38461538461539" fill="transparent" shape-rendering="crispEdges" stroke="#F2F0F9" stroke-width="1" pointer-events="none"></line><line class="visx-line" x1="0" y1="35.76923076923076" x2="1425" y2="35.76923076923076" fill="transparent" shape-rendering="crispEdges" stroke="#F2F0F9" stroke-width="1" pointer-events="none"></line></g><path class="visx-linepath" d="M0,154.99999999950816C2.375,154.91802884586693,4.75,154.83605769222572,7.125,154.75408653846154C9.5,154.67211538469735,11.875,154.59014423076923,14.25,154.50817307692307C16.625,154.42620192307692,19,154.3442307692308,21.375,154.26225961538464C23.75,154.18028846153848,26.125,154.0983173076923,28.5,154.01634615384614C30.875,153.934375,33.25,153.85240384615383,35.625,153.77043269230768C38,153.68846153846152,40.375,153.60649038461537,42.75,153.52451923076922C45.125,153.44254807692306,47.50000000000001,153.36057692307693,49.87500000000001,153.27860576923078C52.25000000000001,153.19663461538462,54.625,153.11466346153847,57,153.03269230769232C59.375,152.95072115384616,61.75,152.86875,64.125,152.78677884615385C66.5,152.7048076923077,68.875,152.62283653846154,71.25,152.5408653846154C73.625,152.45889423076923,76,152.37692307692308,78.375,152.29495192307692C80.75,152.21298076923077,83.125,152.1310096153846,85.5,152.04903846153846C87.875,151.9670673076923,90.25,151.88509615384615,92.625,151.803125C95,151.72115384615384,97.37500000000001,151.63918269230768,99.75000000000001,151.55721153846153C102.12500000000001,151.47524038461538,104.5,151.39326923076925,106.875,151.3112980769231C109.25,151.22932692307694,111.625,151.14735576923078,114,151.06538461538463C116.375,150.98341346153848,118.75000000000001,150.9014423076923,121.12500000000001,150.81947115384614C123.50000000000001,150.73749999999998,125.875,150.65552884615383,128.25,150.57355769230767C130.625,150.49158653846152,133,150.4096153846154,135.375,150.32764423076924C137.75,150.24567307692308,140.125,150.16370192307693,142.5,150.08173076923077C144.875,149.99975961538462,147.25,149.91778846153846,149.625,149.8358173076923C152,149.75384615384615,154.375,149.671875,156.75,149.58990384615385C159.125,149.5079326923077,161.5,149.42596153846154,163.875,149.34399038461538C166.25,149.26201923076923,168.625,149.18004807692307,171,149.09807692307692C173.375,149.01610576923076,175.75,148.9341346153846,178.125,148.85216346153845C180.5,148.7701923076923,182.875,148.68822115384614,185.25,148.60625C187.625,148.52427884615383,190,148.4423076923077,192.375,148.36033653846155C194.75,148.2783653846154,197.12500000000003,148.19639423076924,199.50000000000003,148.1144230769231C201.875,148.03245192307693,204.25,147.95048076923078,206.62499999999997,147.86850961538462C208.99999999999997,147.78653846153847,211.375,147.7045673076923,213.75,147.62259615384613C216.125,147.54062499999998,218.5,147.45865384615385,220.875,147.3766826923077C223.25,147.29471153846154,225.625,147.2127403846154,228,147.13076923076923C230.375,147.04879807692308,232.75,146.96682692307692,235.125,146.88485576923077C237.5,146.8028846153846,239.87500000000003,146.72091346153846,242.25000000000003,146.6389423076923C244.625,146.55697115384615,247,146.475,249.37499999999997,146.39302884615384C251.74999999999997,146.31105769230768,254.125,146.22908653846156,256.5,146.1471153846154C258.875,146.06514423076925,261.25,145.98317307692307,263.625,145.9012019230769C266,145.81923076923076,268.375,145.7372596153846,270.75,145.65528846153845C273.125,145.5733173076923,275.5,145.49134615384617,277.875,145.409375C280.25,145.32740384615386,282.625,145.2454326923077,285,145.16346153846155C287.375,145.0814903846154,289.75,144.99951923076924,292.125,144.91754807692308C294.5,144.83557692307693,296.875,144.75360576923077,299.25,144.67163461538462C301.625,144.58966346153846,304,144.5076923076923,306.375,144.42572115384615C308.75,144.34375,311.125,144.26177884615385,313.5,144.1798076923077C315.875,144.09783653846154,318.25,144.01586538461538,320.625,143.93389423076923C323,143.85192307692307,325.375,143.76995192307692,327.75,143.68798076923076C330.125,143.6060096153846,332.5,143.52403846153845,334.875,143.4420673076923C337.25,143.36009615384614,339.625,143.27812500000002,342,143.19615384615386C344.375,143.1141826923077,346.75,143.03221153846155,349.125,142.9502403846154C351.5,142.86826923076924,353.875,142.78629807692306,356.25,142.7043269230769C358.625,142.62235576923075,361,142.54038461538462,363.375,142.45841346153847C365.75,142.37644230769232,368.125,142.29447115384616,370.5,142.2125C372.875,142.13052884615385,375.25,142.0485576923077,377.625,141.96658653846154C380,141.8846153846154,382.375,141.80264423076923,384.75,141.72067307692308C387.125,141.63870192307692,389.50000000000006,141.55673076923077,391.87500000000006,141.4747596153846C394.25000000000006,141.39278846153846,396.62500000000006,141.3108173076923,399.00000000000006,141.22884615384615C401.375,141.146875,403.75,141.06490384615384,406.12499999999994,140.98293269230768C408.49999999999994,140.90096153846153,410.87499999999994,140.81899038461538,413.24999999999994,140.73701923076922C415.62499999999994,140.65504807692307,418,140.5730769230769,420.375,140.49110576923076C422.75,140.4091346153846,425.125,140.32716346153848,427.5,140.24519230769232C429.875,140.16322115384617,432.25,140.08125,434.625,139.99927884615386C437,139.9173076923077,439.375,139.83533653846155,441.75,139.7533653846154C444.125,139.67139423076924,446.5,139.58942307692308,448.875,139.50745192307693C451.25,139.42548076923077,453.625,139.34350961538462,456,139.26153846153846C458.375,139.1795673076923,460.75,139.09759615384615,463.125,139.015625C465.5,138.93365384615385,467.875,138.8516826923077,470.25,138.76971153846154C472.625,138.68774038461538,475.00000000000006,138.60576923076923,477.37500000000006,138.52379807692307C479.75000000000006,138.44182692307692,482.12500000000006,138.35985576923076,484.50000000000006,138.2778846153846C486.875,138.19591346153845,489.25,138.1139423076923,491.62499999999994,138.03197115384614C493.99999999999994,137.95,496.37499999999994,137.86802884615383,498.74999999999994,137.78605769230768C501.12499999999994,137.70408653846152,503.5,137.62211538461537,505.875,137.54014423076922C508.25,137.45817307692306,510.625,137.37620192307693,513,137.29423076923078C515.375,137.21225961538462,517.75,137.13028846153847,520.125,137.04831730769232C522.5,136.96634615384616,524.875,136.884375,527.25,136.80240384615385C529.625,136.7204326923077,532,136.63846153846154,534.375,136.5564903846154C536.75,136.47451923076923,539.125,136.39254807692308,541.5,136.31057692307692C543.875,136.22860576923077,546.25,136.1466346153846,548.625,136.06466346153846C551,135.9826923076923,553.375,135.90072115384615,555.75,135.81875C558.125,135.73677884615384,560.5,135.65480769230768,562.875,135.57283653846153C565.25,135.49086538461538,567.625,135.40889423076922,570,135.32692307692307C572.375,135.2449519230769,574.75,135.16298076923078,577.125,135.08100961538463C579.5,134.99903846153848,581.875,134.91706730769232,584.25,134.83509615384617C586.625,134.753125,589,134.67115384615383,591.375,134.58918269230767C593.75,134.50721153846152,596.125,134.4252403846154,598.5,134.34326923076924C600.875,134.26129807692308,603.25,134.17932692307693,605.625,134.09735576923077C608,134.01538461538462,610.375,133.93341346153846,612.75,133.8514423076923C615.125,133.76947115384615,617.5,133.6875,619.875,133.60552884615385C622.25,133.5235576923077,624.625,133.44158653846154,627,133.35961538461538C629.375,133.27764423076923,631.75,133.19567307692307,634.125,133.11370192307692C636.5,133.03173076923076,638.875,132.9497596153846,641.25,132.86778846153845C643.625,132.7858173076923,646,132.70384615384614,648.375,132.621875C650.75,132.53990384615383,653.125,132.45793269230768,655.5,132.37596153846152C657.875,132.29399038461537,660.25,132.21201923076924,662.625,132.1300480769231C665,132.04807692307693,667.375,131.96610576923078,669.75,131.88413461538462C672.125,131.80216346153847,674.5,131.7201923076923,676.875,131.63822115384613C679.25,131.55624999999998,681.625,131.47427884615385,684,131.3923076923077C686.375,131.31033653846154,688.75,131.2283653846154,691.125,131.14639423076923C693.5,131.06442307692308,695.875,130.98245192307692,698.25,130.90048076923077C700.625,130.8185096153846,703,130.73653846153846,705.375,130.6545673076923C707.75,130.57259615384615,710.125,130.490625,712.5,130.40865384615384C714.875,130.32668269230768,717.25,130.24471153846153,719.625,130.16274038461538C722,130.08076923076922,724.375,129.99879807692307,726.75,129.9168269230769C729.125,129.83485576923076,731.5,129.75288461538463,733.875,129.67091346153848C736.25,129.58894230769232,738.625,129.50697115384614,741,129.42499999999998C743.375,129.34302884615383,745.75,129.2610576923077,748.125,129.17908653846155C750.5,129.0971153846154,752.875,129.01514423076924,755.25,128.93317307692308C757.625,128.85120192307693,760,128.76923076923077,762.375,128.68725961538462C764.75,128.60528846153846,767.125,128.5233173076923,769.5,128.44134615384615C771.875,128.359375,774.2500000000001,128.27740384615385,776.6250000000001,128.1954326923077C779.0000000000001,128.11346153846154,781.3750000000001,128.0314903846154,783.7500000000001,127.94951923076924C786.1250000000001,127.86754807692309,788.5000000000001,127.78557692307692,790.8750000000001,127.70360576923076C793.2500000000001,127.62163461538461,795.6250000000001,127.53966346153847,798.0000000000001,127.45769230769231C800.375,127.37572115384616,802.75,127.29375,805.1249999999999,127.21177884615385C807.4999999999999,127.1298076923077,809.8749999999999,127.04783653846154,812.2499999999999,126.96586538461538C814.6249999999999,126.88389423076923,816.9999999999999,126.80192307692309,819.3749999999999,126.71995192307693C821.7499999999999,126.63798076923078,824.1249999999999,126.55600961538462,826.4999999999999,126.47403846153847C828.8749999999999,126.39206730769232,831.25,126.31009615384616,833.625,126.228125C836,126.14615384615385,838.375,126.0641826923077,840.75,125.98221153846154C843.125,125.90024038461539,845.5,125.81826923076923,847.875,125.73629807692308C850.25,125.65432692307692,852.625,125.57235576923077,855,125.49038461538461C857.375,125.40841346153846,859.75,125.32644230769232,862.125,125.24447115384616C864.5,125.16250000000001,866.875,125.08052884615385,869.25,124.9985576923077C871.625,124.91658653846154,874,124.83461538461538,876.375,124.75264423076922C878.75,124.67067307692307,881.125,124.58870192307693,883.5,124.50673076923077C885.875,124.42475961538462,888.25,124.34278846153846,890.625,124.2608173076923C893,124.17884615384615,895.375,124.096875,897.75,124.01490384615384C900.125,123.93293269230769,902.5,123.85096153846155,904.875,123.76899038461539C907.25,123.68701923076924,909.625,123.60504807692307,912,123.52307692307691C914.375,123.44110576923076,916.75,123.35913461538462,919.125,123.27716346153846C921.5,123.19519230769231,923.875,123.11322115384615,926.25,123.03125C928.625,122.94927884615385,931,122.86730769230769,933.375,122.78533653846154C935.75,122.70336538461538,938.125,122.62139423076923,940.5,122.53942307692307C942.875,122.45745192307692,945.25,122.37548076923078,947.625,122.29350961538462C950,122.21153846153847,952.3750000000001,122.12956730769231,954.7500000000001,122.04759615384616C957.1250000000001,121.965625,959.5000000000001,121.88365384615385,961.8750000000001,121.8016826923077C964.2500000000001,121.71971153846154,966.6250000000001,121.6377403846154,969.0000000000001,121.55576923076924C971.3750000000001,121.47379807692309,973.7500000000001,121.39182692307692,976.1250000000001,121.30985576923077C978.5,121.22788461538461,980.875,121.14591346153846,983.2499999999999,121.0639423076923C985.6249999999999,120.98197115384615,987.9999999999999,120.9,990.3749999999999,120.81802884615385C992.7499999999999,120.7360576923077,995.1249999999999,120.65408653846154,997.4999999999999,120.57211538461539C999.8749999999999,120.49014423076923,1002.2499999999999,120.40817307692308,1004.6249999999999,120.32620192307692C1006.9999999999999,120.24423076923077,1009.375,120.16225961538461,1011.75,120.08028846153846C1014.125,119.9983173076923,1016.5,119.91634615384616,1018.875,119.83437500000001C1021.25,119.75240384615385,1023.625,119.67043269230768,1026,119.58846153846153C1028.375,119.50649038461538,1030.75,119.42451923076923,1033.125,119.34254807692308C1035.5,119.26057692307693,1037.875,119.17860576923077,1040.25,119.09663461538462C1042.625,119.01466346153846,1045,118.9326923076923,1047.375,118.85072115384615C1049.75,118.76875,1052.125,118.68677884615386,1054.5,118.6048076923077C1056.875,118.52283653846155,1059.25,118.44086538461538,1061.625,118.35889423076922C1064,118.27692307692307,1066.375,118.19495192307693,1068.75,118.11298076923077C1071.125,118.03100961538462,1073.5,117.94903846153846,1075.875,117.86706730769231C1078.25,117.78509615384615,1080.625,117.703125,1083,117.62115384615385C1085.375,117.53918269230769,1087.75,117.45721153846154,1090.125,117.37524038461538C1092.5,117.29326923076923,1094.875,117.21129807692309,1097.25,117.12932692307693C1099.625,117.04735576923078,1102,116.96538461538462,1104.375,116.88341346153847C1106.75,116.80144230769231,1109.125,116.71947115384614,1111.5,116.63749999999999C1113.875,116.55552884615383,1116.25,116.4735576923077,1118.625,116.39158653846154C1121,116.30961538461538,1123.375,116.22764423076923,1125.75,116.14567307692307C1128.125,116.06370192307692,1130.5,115.98173076923077,1132.875,115.89975961538461C1135.25,115.81778846153846,1137.625,115.81778846153846,1140,115.65384615384616C1142.375,115.48990384615387,1144.75,114.06410256410255,1147.125,113.26923076923076C1149.5,112.47435897435896,1151.875,111.67948717948718,1154.25,110.88461538461539C1156.625,110.08974358974359,1159,109.2948717948718,1161.375,108.5C1163.75,107.7051282051282,1166.125,106.91025641025641,1168.5,106.11538461538461C1170.875,105.32051282051282,1173.25,104.52564102564104,1175.625,103.73076923076924C1178,102.93589743589745,1180.375,102.14102564102565,1182.75,101.34615384615385C1185.125,100.55128205128206,1187.5,99.75641025641025,1189.875,98.96153846153845C1192.25,98.16666666666666,1194.625,97.37179487179488,1197,96.57692307692308C1199.375,95.78205128205128,1201.75,94.9871794871795,1204.125,94.19230769230771C1206.5,93.39743589743591,1208.875,92.6025641025641,1211.25,91.8076923076923C1213.625,91.01282051282051,1216,90.21794871794872,1218.375,89.42307692307692C1220.75,88.62820512820512,1223.125,87.83333333333333,1225.5,87.03846153846153C1227.875,86.24358974358974,1230.25,85.44871794871796,1232.625,84.65384615384616C1235,83.85897435897436,1237.375,83.06410256410257,1239.75,82.26923076923077C1242.125,81.47435897435898,1244.5,80.67948717948717,1246.875,79.88461538461537C1249.25,79.08974358974358,1251.625,78.2948717948718,1254,77.5C1256.375,76.7051282051282,1258.75,75.91025641025641,1261.125,75.11538461538461C1263.5,74.32051282051282,1265.875,73.52564102564102,1268.25,72.73076923076923C1270.625,71.93589743589743,1273,71.14102564102565,1275.375,70.34615384615385C1277.75,69.55128205128206,1280.125,68.75641025641026,1282.5,67.96153846153847C1284.875,67.16666666666667,1287.25,66.37179487179488,1289.625,65.57692307692308C1292,64.78205128205128,1294.375,63.98717948717949,1296.75,63.19230769230769C1299.125,62.3974358974359,1301.5,61.602564102564095,1303.875,60.8076923076923C1306.25,60.012820512820504,1308.625,59.217948717948715,1311,58.42307692307692C1313.375,57.628205128205124,1315.75,56.83333333333332,1318.125,56.038461538461526C1320.5,55.24358974358973,1322.875,54.44871794871794,1325.25,53.65384615384615C1327.625,52.858974358974365,1330,52.06410256410257,1332.375,51.269230769230774C1334.75,50.47435897435898,1337.125,49.679487179487175,1339.5,48.88461538461538C1341.875,48.089743589743584,1344.25,47.2948717948718,1346.625,46.50000000000001C1349,45.70512820512821,1351.375,44.91025641025641,1353.75,44.11538461538461C1356.125,43.32051282051282,1358.5,42.525641025641036,1360.875,41.73076923076924C1363.25,40.935897435897445,1365.625,40.14102564102562,1368,39.346153846153825C1370.375,38.55128205128203,1372.75,37.75641025641025,1375.125,36.96153846153845C1377.5,36.16666666666666,1379.875,35.37179487179485,1382.25,34.57692307692306C1384.625,33.78205128205127,1387,32.98717948717949,1389.375,32.1923076923077C1391.75,31.39743589743591,1394.125,30.602564102564102,1396.5,29.807692307692307C1398.875,29.01282051282051,1401.25,28.217948717948726,1403.625,27.42307692307693C1406,26.628205128205135,1408.375,25.833333333333332,1410.75,25.038461538461537C1413.125,24.24358974358974,1415.5,23.448717948717956,1417.875,22.65384615384616C1420.25,21.858974358974365,1422.625,21.064102564102566,1425,20.269230769230766" fill="transparent" stroke-linecap="round" stroke="#1AD4B3" stroke-width="2"></path><g class="visx-group visx-axis visx-axis-bottom" transform="translate(0, 155)"><g class="visx-group visx-axis-tick" transform="translate(0, 0)"><line class="visx-line" x1="0" y1="0" x2="0" y2="8" fill="transparent" shape-rendering="crispEdges" stroke="#F2F0F9" stroke-width="1" stroke-linecap="square"></line><svg x="0" y="0" font-size="11" style="overflow:visible"><text transform="" x="0" y="19" fill="#1B2030" font-size="11" text-anchor="middle"><tspan x="0" dy="0em">0%</tspan></text></svg></g><g class="visx-group visx-axis-tick" transform="translate(0, 0)"><line class="visx-line" x1="356.25" y1="0" x2="356.25" y2="8" fill="transparent" shape-rendering="crispEdges" stroke="#F2F0F9" stroke-width="1" stroke-linecap="square"></line><svg x="0" y="0" font-size="11" style="overflow:visible"><text transform="" x="356.25" y="19" fill="#1B2030" font-size="11" text-anchor="middle"><tspan x="356.25" dy="0em">25%</tspan></text></svg></g><g class="visx-group visx-axis-tick" transform="translate(0, 0)"><line class="visx-line" x1="712.5" y1="0" x2="712.5" y2="8" fill="transparent" shape-rendering="crispEdges" stroke="#F2F0F9" stroke-width="1" stroke-linecap="square"></line><svg x="0" y="0" font-size="11" style="overflow:visible"><text transform="" x="712.5" y="19" fill="#1B2030" font-size="11" text-anchor="middle"><tspan x="712.5" dy="0em">50%</tspan></text></svg></g><g class="visx-group visx-axis-tick" transform="translate(0, 0)"><line class="visx-line" x1="1068.75" y1="0" x2="1068.75" y2="8" fill="transparent" shape-rendering="crispEdges" stroke="#F2F0F9" stroke-width="1" stroke-linecap="square"></line><svg x="0" y="0" font-size="11" style="overflow:visible"><text transform="" x="1068.75" y="19" fill="#1B2030" font-size="11" text-anchor="middle"><tspan x="1068.75" dy="0em">75%</tspan></text></svg></g><g class="visx-group visx-axis-tick" transform="translate(0, 0)"><line class="visx-line" x1="1425" y1="0" x2="1425" y2="8" fill="transparent" shape-rendering="crispEdges" stroke="#F2F0F9" stroke-width="1" stroke-linecap="square"></line><svg x="0" y="0" font-size="11" style="overflow:visible"><text transform="" x="1425" y="19" fill="#1B2030" font-size="11" text-anchor="middle"><tspan x="1425" dy="0em">100%</tspan></text></svg></g></g><g class="visx-group visx-axis visx-axis-left" transform="translate(0, 0)"><g class="visx-group visx-axis-tick" transform="translate(0, 0)"><line class="visx-line" x1="0" y1="155" x2="-8" y2="155" fill="transparent" shape-rendering="crispEdges" stroke="#F2F0F9" stroke-width="1" stroke-linecap="square"></line><svg x="-30" y="0" font-size="11" style="overflow:visible"><text transform="" x="-8" y="155" fill="#1B2030" font-size="11" text-anchor="start"><tspan x="-8" dy="0em">0%</tspan></text></svg></g><g class="visx-group visx-axis-tick" transform="translate(0, 0)"><line class="visx-line" x1="0" y1="95.38461538461539" x2="-8" y2="95.38461538461539" fill="transparent" shape-rendering="crispEdges" stroke="#F2F0F9" stroke-width="1" stroke-linecap="square"></line><svg x="-30" y="0" font-size="11" style="overflow:visible"><text transform="" x="-8" y="95.38461538461539" fill="#1B2030" font-size="11" text-anchor="start"><tspan x="-8" dy="0em">5%</tspan></text></svg></g><g class="visx-group visx-axis-tick" transform="translate(0, 0)"><line class="visx-line" x1="0" y1="35.76923076923076" x2="-8" y2="35.76923076923076" fill="transparent" shape-rendering="crispEdges" stroke="#F2F0F9" stroke-width="1" stroke-linecap="square"></line><svg x="-30" y="0" font-size="11" style="overflow:visible"><text transform="" x="-8" y="35.76923076923076" fill="#1B2030" font-size="11" text-anchor="start"><tspan x="-8" dy="0em">10%</tspan></text></svg></g><line class="visx-line visx-axis-line" x1="0" y1="155.5" x2="0" y2="0.5" fill="transparent" shape-rendering="crispEdges" stroke="#F2F0F9" stroke-width="1"></line></g><rect class="visx-bar" width="1425" height="155" fill="transparent"></rect><line class="visx-line" x1="1140" y1="58" x2="1140" y2="155" fill="transparent" shape-rendering="crispEdges" stroke="#CDC8E1" stroke-width="1" pointer-events="none" stroke-dasharray="5"></line><svg x="0" y="0" font-size="11px" style="overflow:visible"><text transform="" x="1140" y="50" font-size="11px" fill="#555069" stroke="#FFFFFF" stroke-width="1px" text-anchor="middle"><tspan x="1140" dy="0.355em">uOptimal 80%</tspan></text></svg><svg x="0" y="0" font-size="11px" style="overflow:visible"><text transform="" x="1140" y="50" font-size="11px" fill="#CDC8E1" text-anchor="middle"><tspan x="1140" dy="0.355em">uOptimal 80%</tspan></text></svg></g></svg>