<?xml version="1.0"?><svg xmlns="http://www.w3.org/2000/svg" xmlns:xlink= "http://www.w3.org/1999/xlink" style="background: white;" width="1500" height="300"> <g style="color: black; font-size: 13px; font-family: sans-serif; transform: translate(18px, 25px);"><g><circle r="3" cx="-6" cy="-5" style="fill: #1AD4B3" /><text>Borrow APR, variable</text></g><g style="transform: translateX(150px);"><circle r="3" cx="-6" cy="-5" style="fill: #101423" /><text>Borrow APR, stable</text></g></g><g class="visx-group" transform="translate(45, 50)"><g class="visx-group visx-rows" transform="translate(0, 0)"><line class="visx-line" x1="0" y1="155" x2="1425" y2="155" fill="transparent" shape-rendering="crispEdges" stroke="#F2F0F9" stroke-width="1" pointer-events="none"></line><line class="visx-line" x1="0" y1="103.33333333333334" x2="1425" y2="103.33333333333334" fill="transparent" shape-rendering="crispEdges" stroke="#F2F0F9" stroke-width="1" pointer-events="none"></line><line class="visx-line" x1="0" y1="51.66666666666667" x2="1425" y2="51.66666666666667" fill="transparent" shape-rendering="crispEdges" stroke="#F2F0F9" stroke-width="1" pointer-events="none"></line><line class="visx-line" x1="0" y1="0" x2="1425" y2="0" fill="transparent" shape-rendering="crispEdges" stroke="#F2F0F9" stroke-width="1" pointer-events="none"></line></g><path class="visx-linepath" d="M0,0C2.375,10.074999999999992,4.75,20.149999999999984,7.125,20.149999999999984C9.5,20.149999999999984,11.875,20.149999999999984,14.25,20.149999999999984C16.625,20.149999999999984,19,20.149999999999984,21.375,20.149999999999984C23.75,20.149999999999984,26.125,20.149999999999984,28.5,20.149999999999984C30.875,20.149999999999984,33.25,20.149999999999984,35.625,20.149999999999984C38,20.149999999999984,40.375,20.149999999999984,42.75,20.149999999999984C45.125,20.149999999999984,47.50000000000001,20.149999999999984,49.87500000000001,20.149999999999984C52.25000000000001,20.149999999999984,54.625,20.149999999999984,57,20.149999999999984C59.375,20.149999999999984,61.75,20.149999999999984,64.125,20.149999999999984C66.5,20.149999999999984,68.875,20.149999999999984,71.25,20.149999999999984C73.625,20.149999999999984,76,20.149999999999984,78.375,20.149999999999984C80.75,20.149999999999984,83.125,20.149999999999984,85.5,20.149999999999984C87.875,20.149999999999984,90.25,20.149999999999984,92.625,20.149999999999984C95,20.149999999999984,97.37500000000001,20.149999999999984,99.75000000000001,20.149999999999984C102.12500000000001,20.149999999999984,104.5,20.149999999999984,106.875,20.149999999999984C109.25,20.149999999999984,111.625,20.149999999999984,114,20.149999999999984C116.375,20.149999999999984,118.75000000000001,20.149999999999984,121.12500000000001,20.149999999999984C123.50000000000001,20.149999999999984,125.875,20.149999999999984,128.25,20.149999999999984C130.625,20.149999999999984,133,20.149999999999984,135.375,20.149999999999984C137.75,20.149999999999984,140.125,20.149999999999984,142.5,20.149999999999984C144.875,20.149999999999984,147.25,20.149999999999984,149.625,20.149999999999984C152,20.149999999999984,154.375,20.149999999999984,156.75,20.149999999999984C159.125,20.149999999999984,161.5,20.149999999999984,163.875,20.149999999999984C166.25,20.149999999999984,168.625,20.149999999999984,171,20.149999999999984C173.375,20.149999999999984,175.75,20.149999999999984,178.125,20.149999999999984C180.5,20.149999999999984,182.875,20.149999999999984,185.25,20.149999999999984C187.625,20.149999999999984,190,20.149999999999984,192.375,20.149999999999984C194.75,20.149999999999984,197.12500000000003,20.149999999999984,199.50000000000003,20.149999999999984C201.875,20.149999999999984,204.25,20.149999999999984,206.62499999999997,20.149999999999984C208.99999999999997,20.149999999999984,211.375,20.149999999999984,213.75,20.149999999999984C216.125,20.149999999999984,218.5,20.149999999999984,220.875,20.149999999999984C223.25,20.149999999999984,225.625,20.149999999999984,228,20.149999999999984C230.375,20.149999999999984,232.75,20.149999999999984,235.125,20.149999999999984C237.5,20.149999999999984,239.87500000000003,20.149999999999984,242.25000000000003,20.149999999999984C244.625,20.149999999999984,247,20.149999999999984,249.37499999999997,20.149999999999984C251.74999999999997,20.149999999999984,254.125,20.149999999999984,256.5,20.149999999999984C258.875,20.149999999999984,261.25,20.149999999999984,263.625,20.149999999999984C266,20.149999999999984,268.375,20.149999999999984,270.75,20.149999999999984C273.125,20.149999999999984,275.5,20.149999999999984,277.875,20.149999999999984C280.25,20.149999999999984,282.625,20.149999999999984,285,20.149999999999984C287.375,20.149999999999984,289.75,20.149999999999984,292.125,20.149999999999984C294.5,20.149999999999984,296.875,20.149999999999984,299.25,20.149999999999984C301.625,20.149999999999984,304,20.149999999999984,306.375,20.149999999999984C308.75,20.149999999999984,311.125,20.149999999999984,313.5,20.149999999999984C315.875,20.149999999999984,318.25,20.149999999999984,320.625,20.149999999999984C323,20.149999999999984,325.375,20.149999999999984,327.75,20.149999999999984C330.125,20.149999999999984,332.5,20.149999999999984,334.875,20.149999999999984C337.25,20.149999999999984,339.625,20.149999999999984,342,20.149999999999984C344.375,20.149999999999984,346.75,20.149999999999984,349.125,20.149999999999984C351.5,20.149999999999984,353.875,20.149999999999984,356.25,20.149999999999984C358.625,20.149999999999984,361,20.149999999999984,363.375,20.149999999999984C365.75,20.149999999999984,368.125,20.149999999999984,370.5,20.149999999999984C372.875,20.149999999999984,375.25,20.149999999999984,377.625,20.149999999999984C380,20.149999999999984,382.375,20.149999999999984,384.75,20.149999999999984C387.125,20.149999999999984,389.50000000000006,20.149999999999984,391.87500000000006,20.149999999999984C394.25000000000006,20.149999999999984,396.62500000000006,20.149999999999984,399.00000000000006,20.149999999999984C401.375,20.149999999999984,403.75,20.149999999999984,406.12499999999994,20.149999999999984C408.49999999999994,20.149999999999984,410.87499999999994,20.149999999999984,413.24999999999994,20.149999999999984C415.62499999999994,20.149999999999984,418,20.149999999999984,420.375,20.149999999999984C422.75,20.149999999999984,425.125,20.149999999999984,427.5,20.149999999999984C429.875,20.149999999999984,432.25,20.149999999999984,434.625,20.149999999999984C437,20.149999999999984,439.375,20.149999999999984,441.75,20.149999999999984C444.125,20.149999999999984,446.5,20.149999999999984,448.875,20.149999999999984C451.25,20.149999999999984,453.625,20.149999999999984,456,20.149999999999984C458.375,20.149999999999984,460.75,20.149999999999984,463.125,20.149999999999984C465.5,20.149999999999984,467.875,20.149999999999984,470.25,20.149999999999984C472.625,20.149999999999984,475.00000000000006,20.149999999999984,477.37500000000006,20.149999999999984C479.75000000000006,20.149999999999984,482.12500000000006,20.149999999999984,484.50000000000006,20.149999999999984C486.875,20.149999999999984,489.25,20.149999999999984,491.62499999999994,20.149999999999984C493.99999999999994,20.149999999999984,496.37499999999994,20.149999999999984,498.74999999999994,20.149999999999984C501.12499999999994,20.149999999999984,503.5,20.149999999999984,505.875,20.149999999999984C508.25,20.149999999999984,510.625,20.149999999999984,513,20.149999999999984C515.375,20.149999999999984,517.75,20.149999999999984,520.125,20.149999999999984C522.5,20.149999999999984,524.875,20.149999999999984,527.25,20.149999999999984C529.625,20.149999999999984,532,20.149999999999984,534.375,20.149999999999984C536.75,20.149999999999984,539.125,20.149999999999984,541.5,20.149999999999984C543.875,20.149999999999984,546.25,20.149999999999984,548.625,20.149999999999984C551,20.149999999999984,553.375,20.149999999999984,555.75,20.149999999999984C558.125,20.149999999999984,560.5,20.149999999999984,562.875,20.149999999999984C565.25,20.149999999999984,567.625,20.149999999999984,570,20.149999999999984C572.375,20.149999999999984,574.75,20.149999999999984,577.125,20.149999999999984C579.5,20.149999999999984,581.875,20.149999999999984,584.25,20.149999999999984C586.625,20.149999999999984,589,20.149999999999984,591.375,20.149999999999984C593.75,20.149999999999984,596.125,20.149999999999984,598.5,20.149999999999984C600.875,20.149999999999984,603.25,20.149999999999984,605.625,20.149999999999984C608,20.149999999999984,610.375,20.149999999999984,612.75,20.149999999999984C615.125,20.149999999999984,617.5,20.149999999999984,619.875,20.149999999999984C622.25,20.149999999999984,624.625,20.149999999999984,627,20.149999999999984C629.375,20.149999999999984,631.75,20.149999999999984,634.125,20.149999999999984C636.5,20.149999999999984,638.875,20.149999999999984,641.25,20.149999999999984C643.625,20.149999999999984,646,20.149999999999984,648.375,20.149999999999984C650.75,20.149999999999984,653.125,20.149999999999984,655.5,20.149999999999984C657.875,20.149999999999984,660.25,20.149999999999984,662.625,20.149999999999984C665,20.149999999999984,667.375,20.149999999999984,669.75,20.149999999999984C672.125,20.149999999999984,674.5,20.149999999999984,676.875,20.149999999999984C679.25,20.149999999999984,681.625,20.149999999999984,684,20.149999999999984C686.375,20.149999999999984,688.75,20.149999999999984,691.125,20.149999999999984C693.5,20.149999999999984,695.875,20.149999999999984,698.25,20.149999999999984C700.625,20.149999999999984,703,20.149999999999984,705.375,20.149999999999984C707.75,20.149999999999984,710.125,20.149999999999984,712.5,20.149999999999984C714.875,20.149999999999984,717.25,20.149999999999984,719.625,20.149999999999984C722,20.149999999999984,724.375,20.149999999999984,726.75,20.149999999999984C729.125,20.149999999999984,731.5,20.149999999999984,733.875,20.149999999999984C736.25,20.149999999999984,738.625,20.149999999999984,741,20.149999999999984C743.375,20.149999999999984,745.75,20.149999999999984,748.125,20.149999999999984C750.5,20.149999999999984,752.875,20.149999999999984,755.25,20.149999999999984C757.625,20.149999999999984,760,20.149999999999984,762.375,20.149999999999984C764.75,20.149999999999984,767.125,20.149999999999984,769.5,20.149999999999984C771.875,20.149999999999984,774.2500000000001,20.149999999999984,776.6250000000001,20.149999999999984C779.0000000000001,20.149999999999984,781.3750000000001,20.149999999999984,783.7500000000001,20.149999999999984C786.1250000000001,20.149999999999984,788.5000000000001,20.149999999999984,790.8750000000001,20.149999999999984C793.2500000000001,20.149999999999984,795.6250000000001,20.149999999999984,798.0000000000001,20.149999999999984C800.375,20.149999999999984,802.75,20.149999999999984,805.1249999999999,20.149999999999984C807.4999999999999,20.149999999999984,809.8749999999999,20.149999999999984,812.2499999999999,20.149999999999984C814.6249999999999,20.149999999999984,816.9999999999999,20.149999999999984,819.3749999999999,20.149999999999984C821.7499999999999,20.149999999999984,824.1249999999999,20.149999999999984,826.4999999999999,20.149999999999984C828.8749999999999,20.149999999999984,831.25,20.149999999999984,833.625,20.149999999999984C836,20.149999999999984,838.375,20.149999999999984,840.75,20.149999999999984C843.125,20.149999999999984,845.5,20.149999999999984,847.875,20.149999999999984C850.25,20.149999999999984,852.625,20.149999999999984,855,20.149999999999984C857.375,20.149999999999984,859.75,20.149999999999984,862.125,20.149999999999984C864.5,20.149999999999984,866.875,20.149999999999984,869.25,20.149999999999984C871.625,20.149999999999984,874,20.149999999999984,876.375,20.149999999999984C878.75,20.149999999999984,881.125,20.149999999999984,883.5,20.149999999999984C885.875,20.149999999999984,888.25,20.149999999999984,890.625,20.149999999999984C893,20.149999999999984,895.375,20.149999999999984,897.75,20.149999999999984C900.125,20.149999999999984,902.5,20.149999999999984,904.875,20.149999999999984C907.25,20.149999999999984,909.625,20.149999999999984,912,20.149999999999984C914.375,20.149999999999984,916.75,20.149999999999984,919.125,20.149999999999984C921.5,20.149999999999984,923.875,20.149999999999984,926.25,20.149999999999984C928.625,20.149999999999984,931,20.149999999999984,933.375,20.149999999999984C935.75,20.149999999999984,938.125,20.149999999999984,940.5,20.149999999999984C942.875,20.149999999999984,945.25,20.149999999999984,947.625,20.149999999999984C950,20.149999999999984,952.3750000000001,20.149999999999984,954.7500000000001,20.149999999999984C957.1250000000001,20.149999999999984,959.5000000000001,20.149999999999984,961.8750000000001,20.149999999999984C964.2500000000001,20.149999999999984,966.6250000000001,20.149999999999984,969.0000000000001,20.149999999999984C971.3750000000001,20.149999999999984,973.7500000000001,20.149999999999984,976.1250000000001,20.149999999999984C978.5,20.149999999999984,980.875,20.149999999999984,983.2499999999999,20.149999999999984C985.6249999999999,20.149999999999984,987.9999999999999,20.149999999999984,990.3749999999999,20.149999999999984C992.7499999999999,20.149999999999984,995.1249999999999,20.149999999999984,997.4999999999999,20.149999999999984C999.8749999999999,20.149999999999984,1002.2499999999999,20.149999999999984,1004.6249999999999,20.149999999999984C1006.9999999999999,20.149999999999984,1009.375,20.149999999999984,1011.75,20.149999999999984C1014.125,20.149999999999984,1016.5,20.149999999999984,1018.875,20.149999999999984C1021.25,20.149999999999984,1023.625,20.149999999999984,1026,20.149999999999984C1028.375,20.149999999999984,1030.75,20.149999999999984,1033.125,20.149999999999984C1035.5,20.149999999999984,1037.875,20.149999999999984,1040.25,20.149999999999984C1042.625,20.149999999999984,1045,20.149999999999984,1047.375,20.149999999999984C1049.75,20.149999999999984,1052.125,20.149999999999984,1054.5,20.149999999999984C1056.875,20.149999999999984,1059.25,20.149999999999984,1061.625,20.149999999999984C1064,20.149999999999984,1066.375,20.149999999999984,1068.75,20.149999999999984C1071.125,20.149999999999984,1073.5,20.149999999999984,1075.875,20.149999999999984C1078.25,20.149999999999984,1080.625,20.149999999999984,1083,20.149999999999984C1085.375,20.149999999999984,1087.75,20.149999999999984,1090.125,20.149999999999984C1092.5,20.149999999999984,1094.875,20.149999999999984,1097.25,20.149999999999984C1099.625,20.149999999999984,1102,20.149999999999984,1104.375,20.149999999999984C1106.75,20.149999999999984,1109.125,20.149999999999984,1111.5,20.149999999999984C1113.875,20.149999999999984,1116.25,20.149999999999984,1118.625,20.149999999999984C1121,20.149999999999984,1123.375,20.149999999999984,1125.75,20.149999999999984C1128.125,20.149999999999984,1130.5,20.149999999999984,1132.875,20.149999999999984C1135.25,20.149999999999984,1137.625,20.149999999999984,1140,20.149999999999984C1142.375,20.149999999999984,1144.75,20.149999999999984,1147.125,20.149999999999984C1149.5,20.149999999999984,1151.875,20.149999999999984,1154.25,20.149999999999984C1156.625,20.149999999999984,1159,20.149999999999984,1161.375,20.149999999999984C1163.75,20.149999999999984,1166.125,20.149999999999984,1168.5,20.149999999999984C1170.875,20.149999999999984,1173.25,20.149999999999984,1175.625,20.149999999999984C1178,20.149999999999984,1180.375,20.149999999999984,1182.75,20.149999999999984C1185.125,20.149999999999984,1187.5,20.149999999999984,1189.875,20.149999999999984C1192.25,20.149999999999984,1194.625,20.149999999999984,1197,20.149999999999984C1199.375,20.149999999999984,1201.75,20.149999999999984,1204.125,20.149999999999984C1206.5,20.149999999999984,1208.875,20.149999999999984,1211.25,20.149999999999984C1213.625,20.149999999999984,1216,20.149999999999984,1218.375,20.149999999999984C1220.75,20.149999999999984,1223.125,20.149999999999984,1225.5,20.149999999999984C1227.875,20.149999999999984,1230.25,20.149999999999984,1232.625,20.149999999999984C1235,20.149999999999984,1237.375,20.149999999999984,1239.75,20.149999999999984C1242.125,20.149999999999984,1244.5,20.149999999999984,1246.875,20.149999999999984C1249.25,20.149999999999984,1251.625,20.149999999999984,1254,20.149999999999984C1256.375,20.149999999999984,1258.75,20.149999999999984,1261.125,20.149999999999984C1263.5,20.149999999999984,1265.875,20.149999999999984,1268.25,20.149999999999984C1270.625,20.149999999999984,1273,20.149999999999984,1275.375,20.149999999999984C1277.75,20.149999999999984,1280.125,20.149999999999984,1282.5,20.149999999999984C1284.875,20.149999999999984,1287.25,20.149999999999984,1289.625,20.149999999999984C1292,20.149999999999984,1294.375,20.149999999999984,1296.75,20.149999999999984C1299.125,20.149999999999984,1301.5,20.149999999999984,1303.875,20.149999999999984C1306.25,20.149999999999984,1308.625,20.149999999999984,1311,20.149999999999984C1313.375,20.149999999999984,1315.75,20.149999999999984,1318.125,20.149999999999984C1320.5,20.149999999999984,1322.875,20.149999999999984,1325.25,20.149999999999984C1327.625,20.149999999999984,1330,20.149999999999984,1332.375,20.149999999999984C1334.75,20.149999999999984,1337.125,20.149999999999984,1339.5,20.149999999999984C1341.875,20.149999999999984,1344.25,20.149999999999984,1346.625,20.149999999999984C1349,20.149999999999984,1351.375,20.149999999999984,1353.75,20.149999999999984C1356.125,20.149999999999984,1358.5,20.149999999999984,1360.875,20.149999999999984C1363.25,20.149999999999984,1365.625,20.149999999999984,1368,20.149999999999984C1370.375,20.149999999999984,1372.75,20.149999999999984,1375.125,20.149999999999984C1377.5,20.149999999999984,1379.875,20.149999999999984,1382.25,20.149999999999984C1384.625,20.149999999999984,1387,20.149999999999984,1389.375,20.149999999999984C1391.75,20.149999999999984,1394.125,20.149999999999984,1396.5,20.149999999999984C1398.875,20.149999999999984,1401.25,20.149999999999984,1403.625,20.149999999999984C1406,20.149999999999984,1408.375,20.149999999999984,1410.75,20.149999999999984C1413.125,20.149999999999984,1415.5,20.149999999999984,1417.875,20.149999999999984C1420.25,20.149999999999984,1422.625,20.149999999999984,1425,20.149999999999984" fill="transparent" stroke-linecap="round" stroke="#1AD4B3" stroke-width="2"></path><g class="visx-group visx-axis visx-axis-bottom" transform="translate(0, 155)"><g class="visx-group visx-axis-tick" transform="translate(0, 0)"><line class="visx-line" x1="0" y1="0" x2="0" y2="8" fill="transparent" shape-rendering="crispEdges" stroke="#F2F0F9" stroke-width="1" stroke-linecap="square"></line><svg x="0" y="0" font-size="11" style="overflow:visible"><text transform="" x="0" y="19" fill="#1B2030" font-size="11" text-anchor="middle"><tspan x="0" dy="0em">0%</tspan></text></svg></g><g class="visx-group visx-axis-tick" transform="translate(0, 0)"><line class="visx-line" x1="356.25" y1="0" x2="356.25" y2="8" fill="transparent" shape-rendering="crispEdges" stroke="#F2F0F9" stroke-width="1" stroke-linecap="square"></line><svg x="0" y="0" font-size="11" style="overflow:visible"><text transform="" x="356.25" y="19" fill="#1B2030" font-size="11" text-anchor="middle"><tspan x="356.25" dy="0em">25%</tspan></text></svg></g><g class="visx-group visx-axis-tick" transform="translate(0, 0)"><line class="visx-line" x1="712.5" y1="0" x2="712.5" y2="8" fill="transparent" shape-rendering="crispEdges" stroke="#F2F0F9" stroke-width="1" stroke-linecap="square"></line><svg x="0" y="0" font-size="11" style="overflow:visible"><text transform="" x="712.5" y="19" fill="#1B2030" font-size="11" text-anchor="middle"><tspan x="712.5" dy="0em">50%</tspan></text></svg></g><g class="visx-group visx-axis-tick" transform="translate(0, 0)"><line class="visx-line" x1="1068.75" y1="0" x2="1068.75" y2="8" fill="transparent" shape-rendering="crispEdges" stroke="#F2F0F9" stroke-width="1" stroke-linecap="square"></line><svg x="0" y="0" font-size="11" style="overflow:visible"><text transform="" x="1068.75" y="19" fill="#1B2030" font-size="11" text-anchor="middle"><tspan x="1068.75" dy="0em">75%</tspan></text></svg></g><g class="visx-group visx-axis-tick" transform="translate(0, 0)"><line class="visx-line" x1="1425" y1="0" x2="1425" y2="8" fill="transparent" shape-rendering="crispEdges" stroke="#F2F0F9" stroke-width="1" stroke-linecap="square"></line><svg x="0" y="0" font-size="11" style="overflow:visible"><text transform="" x="1425" y="19" fill="#1B2030" font-size="11" text-anchor="middle"><tspan x="1425" dy="0em">100%</tspan></text></svg></g></g><g class="visx-group visx-axis visx-axis-left" transform="translate(0, 0)"><g class="visx-group visx-axis-tick" transform="translate(0, 0)"><line class="visx-line" x1="0" y1="155" x2="-8" y2="155" fill="transparent" shape-rendering="crispEdges" stroke="#F2F0F9" stroke-width="1" stroke-linecap="square"></line><svg x="-30" y="0" font-size="11" style="overflow:visible"><text transform="" x="-8" y="155" fill="#1B2030" font-size="11" text-anchor="start"><tspan x="-8" dy="0em">0%</tspan></text></svg></g><g class="visx-group visx-axis-tick" transform="translate(0, 0)"><line class="visx-line" x1="0" y1="103.33333333333334" x2="-8" y2="103.33333333333334" fill="transparent" shape-rendering="crispEdges" stroke="#F2F0F9" stroke-width="1" stroke-linecap="square"></line><svg x="-30" y="0" font-size="11" style="overflow:visible"><text transform="" x="-8" y="103.33333333333334" fill="#1B2030" font-size="11" text-anchor="start"><tspan x="-8" dy="0em">2%</tspan></text></svg></g><g class="visx-group visx-axis-tick" transform="translate(0, 0)"><line class="visx-line" x1="0" y1="51.66666666666667" x2="-8" y2="51.66666666666667" fill="transparent" shape-rendering="crispEdges" stroke="#F2F0F9" stroke-width="1" stroke-linecap="square"></line><svg x="-30" y="0" font-size="11" style="overflow:visible"><text transform="" x="-8" y="51.66666666666667" fill="#1B2030" font-size="11" text-anchor="start"><tspan x="-8" dy="0em">4%</tspan></text></svg></g><g class="visx-group visx-axis-tick" transform="translate(0, 0)"><line class="visx-line" x1="0" y1="0" x2="-8" y2="0" fill="transparent" shape-rendering="crispEdges" stroke="#F2F0F9" stroke-width="1" stroke-linecap="square"></line><svg x="-30" y="0" font-size="11" style="overflow:visible"><text transform="" x="-8" y="0" fill="#1B2030" font-size="11" text-anchor="start"><tspan x="-8" dy="0em">6%</tspan></text></svg></g><line class="visx-line visx-axis-line" x1="0" y1="155.5" x2="0" y2="0.5" fill="transparent" shape-rendering="crispEdges" stroke="#F2F0F9" stroke-width="1"></line></g><rect class="visx-bar" width="1425" height="155" fill="transparent"></rect><line class="visx-line" x1="0" y1="58" x2="0" y2="155" fill="transparent" shape-rendering="crispEdges" stroke="#CDC8E1" stroke-width="1" pointer-events="none" stroke-dasharray="5"></line><svg x="0" y="0" font-size="11px" style="overflow:visible"><text transform="" x="0" y="50" font-size="11px" fill="#555069" stroke="#FFFFFF" stroke-width="1px" text-anchor="middle"><tspan x="0" dy="0.355em">uOptimal 0%</tspan></text></svg><svg x="0" y="0" font-size="11px" style="overflow:visible"><text transform="" x="0" y="50" font-size="11px" fill="#CDC8E1" text-anchor="middle"><tspan x="0" dy="0.355em">uOptimal 0%</tspan></text></svg></g></svg>