<?xml version="1.0"?><svg xmlns="http://www.w3.org/2000/svg" xmlns:xlink= "http://www.w3.org/1999/xlink" style="background: white;" width="1500" height="300"> <g style="color: black; font-size: 13px; font-family: sans-serif; transform: translate(18px, 25px);"><g><circle r="3" cx="-6" cy="-5" style="fill: #1AD4B3" /><text>Borrow APR, variable</text></g><g style="transform: translateX(150px);"><circle r="3" cx="-6" cy="-5" style="fill: #101423" /><text>Borrow APR, stable</text></g></g><g class="visx-group" transform="translate(45, 50)"><g class="visx-group visx-rows" transform="translate(0, 0)"><line class="visx-line" x1="0" y1="155" x2="1425" y2="155" fill="transparent" shape-rendering="crispEdges" stroke="#F2F0F9" stroke-width="1" pointer-events="none"></line><line class="visx-line" x1="0" y1="90.41666666666666" x2="1425" y2="90.41666666666666" fill="transparent" shape-rendering="crispEdges" stroke="#F2F0F9" stroke-width="1" pointer-events="none"></line><line class="visx-line" x1="0" y1="25.83333333333333" x2="1425" y2="25.83333333333333" fill="transparent" shape-rendering="crispEdges" stroke="#F2F0F9" stroke-width="1" pointer-events="none"></line></g><path class="visx-linepath" d="M0,154.99999999989495C2.375,154.98249074067945,4.75,154.96498148146398,7.125,154.94747222222222C9.5,154.92996296298045,11.875,154.9124537037037,14.25,154.89494444444443C16.625,154.87743518518516,19,154.85992592592595,21.375,154.84241666666668C23.75,154.8249074074074,26.125,154.80739814814817,28.5,154.7898888888889C30.875,154.77237962962963,33.25,154.75487037037038,35.625,154.7373611111111C38,154.71985185185184,40.375,154.7023425925926,42.75,154.68483333333333C45.125,154.66732407407406,47.50000000000001,154.64981481481482,49.87500000000001,154.63230555555555C52.25000000000001,154.6147962962963,54.625,154.59728703703703,57,154.5797777777778C59.375,154.56226851851852,61.75,154.54475925925928,64.125,154.52725C66.5,154.50974074074074,68.875,154.4922314814815,71.25,154.47472222222223C73.625,154.45721296296296,76,154.4397037037037,78.375,154.42219444444444C80.75,154.40468518518517,83.125,154.38717592592593,85.5,154.36966666666666C87.875,154.3521574074074,90.25,154.33464814814812,92.625,154.31713888888888C95,154.2996296296296,97.37500000000001,154.2821203703704,99.75000000000001,154.26461111111112C102.12500000000001,154.24710185185188,104.5,154.2295925925926,106.875,154.21208333333334C109.25,154.19457407407407,111.625,154.17706481481483,114,154.15955555555556C116.375,154.1420462962963,118.75000000000001,154.12453703703704,121.12500000000001,154.10702777777777C123.50000000000001,154.0895185185185,125.875,154.07200925925923,128.25,154.0545C130.625,154.03699074074072,133,154.01948148148148,135.375,154.00197222222224C137.75,153.984462962963,140.125,153.96695370370372,142.5,153.94944444444445C144.875,153.93193518518518,147.25,153.91442592592594,149.625,153.89691666666667C152,153.8794074074074,154.375,153.86189814814816,156.75,153.8443888888889C159.125,153.82687962962962,161.5,153.80937037037037,163.875,153.7918611111111C166.25,153.77435185185183,168.625,153.7568425925926,171,153.73933333333332C173.375,153.72182407407405,175.75,153.70431481481484,178.125,153.68680555555557C180.5,153.6692962962963,182.875,153.65178703703705,185.25,153.63427777777778C187.625,153.6167685185185,190,153.59925925925927,192.375,153.58175C194.75,153.56424074074073,197.12500000000003,153.5467314814815,199.50000000000003,153.52922222222222C201.875,153.51171296296295,204.25,153.49420370370368,206.62499999999997,153.47669444444443C208.99999999999997,153.45918518518516,211.375,153.44167592592595,213.75,153.42416666666668C216.125,153.40665740740744,218.5,153.38914814814817,220.875,153.3716388888889C223.25,153.35412962962963,225.625,153.33662037037038,228,153.3191111111111C230.375,153.30160185185184,232.75,153.2840925925926,235.125,153.26658333333333C237.5,153.24907407407406,239.87500000000003,153.23156481481482,242.25000000000003,153.21405555555555C244.625,153.1965462962963,247,153.17903703703703,249.37499999999997,153.1615277777778C251.74999999999997,153.14401851851852,254.125,153.12650925925928,256.5,153.109C258.875,153.09149074074074,261.25,153.0739814814815,263.625,153.05647222222223C266,153.03896296296296,268.375,153.0214537037037,270.75,153.00394444444444C273.125,152.98643518518517,275.5,152.96892592592593,277.875,152.95141666666666C280.25,152.9339074074074,282.625,152.91639814814818,285,152.8988888888889C287.375,152.88137962962963,289.75,152.8638703703704,292.125,152.84636111111112C294.5,152.82885185185185,296.875,152.8113425925926,299.25,152.79383333333334C301.625,152.77632407407407,304,152.75881481481483,306.375,152.74130555555556C308.75,152.72379629629629,311.125,152.70628703703704,313.5,152.68877777777777C315.875,152.6712685185185,318.25,152.65375925925923,320.625,152.63625C323,152.61874074074075,325.375,152.60123148148148,327.75,152.58372222222224C330.125,152.566212962963,332.5,152.54870370370372,334.875,152.53119444444445C337.25,152.51368518518518,339.625,152.49617592592594,342,152.47866666666667C344.375,152.4611574074074,346.75,152.44364814814816,349.125,152.4261388888889C351.5,152.40862962962962,353.875,152.39112037037034,356.25,152.3736111111111C358.625,152.35610185185186,361,152.3385925925926,363.375,152.32108333333335C365.75,152.3035740740741,368.125,152.28606481481484,370.5,152.26855555555557C372.875,152.2510462962963,375.25,152.23353703703705,377.625,152.21602777777778C380,152.1985185185185,382.375,152.18100925925927,384.75,152.1635C387.125,152.14599074074073,389.50000000000006,152.1284814814815,391.87500000000006,152.11097222222222C394.25000000000006,152.09346296296295,396.62500000000006,152.0759537037037,399.00000000000006,152.05844444444443C401.375,152.0409351851852,403.75,152.02342592592592,406.12499999999994,152.00591666666668C408.49999999999994,151.9884074074074,410.87499999999994,151.97089814814817,413.24999999999994,151.9533888888889C415.62499999999994,151.93587962962962,418,151.91837037037038,420.375,151.9008611111111C422.75,151.88335185185184,425.125,151.8658425925926,427.5,151.84833333333333C429.875,151.83082407407406,432.25,151.81331481481482,434.625,151.79580555555555C437,151.77829629629628,439.375,151.76078703703706,441.75,151.7432777777778C444.125,151.72576851851852,446.5,151.70825925925928,448.875,151.69075C451.25,151.67324074074074,453.625,151.6557314814815,456,151.63822222222223C458.375,151.62071296296295,460.75,151.6032037037037,463.125,151.58569444444444C465.5,151.56818518518517,467.875,151.5506759259259,470.25,151.53316666666666C472.625,151.5156574074074,475.00000000000006,151.49814814814818,477.37500000000006,151.4806388888889C479.75000000000006,151.46312962962966,482.12500000000006,151.4456203703704,484.50000000000006,151.42811111111112C486.875,151.41060185185185,489.25,151.3930925925926,491.62499999999994,151.37558333333334C493.99999999999994,151.35807407407407,496.37499999999994,151.34056481481483,498.74999999999994,151.32305555555556C501.12499999999994,151.30554629629628,503.5,151.28803703703704,505.875,151.27052777777777C508.25,151.25301851851853,510.625,151.2355092592593,513,151.21800000000002C515.375,151.20049074074075,517.75,151.1829814814815,520.125,151.16547222222223C522.5,151.14796296296296,524.875,151.13045370370372,527.25,151.11294444444445C529.625,151.09543518518518,532,151.07792592592594,534.375,151.06041666666667C536.75,151.0429074074074,539.125,151.02539814814816,541.5,151.00788888888889C543.875,150.99037962962962,546.25,150.97287037037034,548.625,150.9553611111111C551,150.93785185185186,553.375,150.9203425925926,555.75,150.90283333333335C558.125,150.8853240740741,560.5,150.86781481481484,562.875,150.85030555555556C565.25,150.8327962962963,567.625,150.81528703703705,570,150.79777777777778C572.375,150.7802685185185,574.75,150.76275925925927,577.125,150.74525C579.5,150.72774074074073,581.875,150.71023148148146,584.25,150.69272222222222C586.625,150.67521296296297,589,150.6577037037037,591.375,150.64019444444446C593.75,150.62268518518522,596.125,150.60517592592595,598.5,150.58766666666668C600.875,150.5701574074074,603.25,150.55264814814817,605.625,150.5351388888889C608,150.51762962962962,610.375,150.50012037037038,612.75,150.4826111111111C615.125,150.46510185185184,617.5,150.4475925925926,619.875,150.43008333333333C622.25,150.41257407407406,624.625,150.39506481481482,627,150.37755555555555C629.375,150.36004629629628,631.75,150.34253703703706,634.125,150.3250277777778C636.5,150.30751851851852,638.875,150.29000925925928,641.25,150.2725C643.625,150.25499074074074,646,150.2374814814815,648.375,150.21997222222222C650.75,150.20246296296295,653.125,150.1849537037037,655.5,150.16744444444444C657.875,150.14993518518517,660.25,150.13242592592593,662.625,150.11491666666666C665,150.0974074074074,667.375,150.07989814814817,669.75,150.0623888888889C672.125,150.04487962962963,674.5,150.0273703703704,676.875,150.00986111111112C679.25,149.99235185185185,681.625,149.9748425925926,684,149.95733333333334C686.375,149.93982407407407,688.75,149.92231481481483,691.125,149.90480555555555C693.5,149.88729629629628,695.875,149.86978703703704,698.25,149.85227777777777C700.625,149.8347685185185,703,149.8172592592593,705.375,149.79975000000002C707.75,149.78224074074075,710.125,149.7647314814815,712.5,149.74722222222223C714.875,149.72971296296296,717.25,149.71220370370372,719.625,149.69469444444445C722,149.67718518518518,724.375,149.65967592592594,726.75,149.64216666666667C729.125,149.6246574074074,731.5,149.60714814814816,733.875,149.58963888888889C736.25,149.57212962962961,738.625,149.5546203703704,741,149.53711111111113C743.375,149.51960185185186,745.75,149.50209259259262,748.125,149.48458333333335C750.5,149.46707407407408,752.875,149.44956481481483,755.25,149.43205555555556C757.625,149.4145462962963,760,149.39703703703705,762.375,149.37952777777778C764.75,149.3620185185185,767.125,149.34450925925927,769.5,149.327C771.875,149.30949074074073,774.2500000000001,149.29198148148149,776.6250000000001,149.27447222222222C779.0000000000001,149.25696296296297,781.3750000000001,149.2394537037037,783.7500000000001,149.22194444444446C786.1250000000001,149.20443518518522,788.5000000000001,149.18692592592595,790.8750000000001,149.16941666666668C793.2500000000001,149.1519074074074,795.6250000000001,149.13439814814816,798.0000000000001,149.1168888888889C800.375,149.09937962962962,802.75,149.08187037037038,805.1249999999999,149.0643611111111C807.4999999999999,149.04685185185184,809.8749999999999,149.02934259259257,812.2499999999999,149.01183333333333C814.6249999999999,148.9943240740741,816.9999999999999,148.97681481481482,819.3749999999999,148.95930555555557C821.7499999999999,148.94179629629633,824.1249999999999,148.92428703703706,826.4999999999999,148.9067777777778C828.8749999999999,148.88926851851852,831.25,148.87175925925928,833.625,148.85425C836,148.83674074074074,838.375,148.8192314814815,840.75,148.80172222222222C843.125,148.78421296296295,845.5,148.7667037037037,847.875,148.74919444444444C850.25,148.73168518518517,852.625,148.71417592592593,855,148.69666666666666C857.375,148.6791574074074,859.75,148.66164814814817,862.125,148.6441388888889C864.5,148.62662962962963,866.875,148.6091203703704,869.25,148.59161111111112C871.625,148.57410185185185,874,148.5565925925926,876.375,148.53908333333334C878.75,148.52157407407407,881.125,148.50406481481483,883.5,148.48655555555555C885.875,148.46904629629628,888.25,148.45153703703704,890.625,148.43402777777777C893,148.4165185185185,895.375,148.3990092592593,897.75,148.38150000000002C900.125,148.36399074074075,902.5,148.3464814814815,904.875,148.32897222222223C907.25,148.31146296296296,909.625,148.29395370370372,912,148.27644444444445C914.375,148.25893518518518,916.75,148.24142592592594,919.125,148.22391666666667C921.5,148.2064074074074,923.875,148.18889814814816,926.25,148.17138888888888C928.625,148.1538796296296,931,148.1363703703704,933.375,148.11886111111113C935.75,148.10135185185186,938.125,148.08384259259262,940.5,148.06633333333335C942.875,148.04882407407408,945.25,148.03131481481483,947.625,148.01380555555556C950,147.9962962962963,952.3750000000001,147.97878703703705,954.7500000000001,147.96127777777778C957.1250000000001,147.9437685185185,959.5000000000001,147.92625925925927,961.8750000000001,147.90875C964.2500000000001,147.89124074074073,966.6250000000001,147.8737314814815,969.0000000000001,147.85622222222224C971.3750000000001,147.83871296296297,973.7500000000001,147.82120370370373,976.1250000000001,147.80369444444446C978.5,147.7861851851852,980.875,147.76867592592595,983.2499999999999,147.75116666666668C985.6249999999999,147.7336574074074,987.9999999999999,147.71614814814816,990.3749999999999,147.6986388888889C992.7499999999999,147.68112962962962,995.1249999999999,147.66362037037038,997.4999999999999,147.6461111111111C999.8749999999999,147.62860185185184,1002.2499999999999,147.61109259259257,1004.6249999999999,147.59358333333333C1006.9999999999999,147.57607407407406,1009.375,147.55856481481484,1011.75,147.54105555555557C1014.125,147.52354629629633,1016.5,147.50603703703706,1018.875,147.4885277777778C1021.25,147.47101851851852,1023.625,147.45350925925928,1026,147.436C1028.375,147.41849074074074,1030.75,147.4009814814815,1033.125,147.38347222222222C1035.5,147.36596296296295,1037.875,147.34845370370368,1040.25,147.33094444444444C1042.625,147.3134351851852,1045,147.29592592592593,1047.375,147.2784166666667C1049.75,147.26090740740744,1052.125,147.24339814814817,1054.5,147.2258888888889C1056.875,147.20837962962963,1059.25,147.1908703703704,1061.625,147.17336111111112C1064,147.15585185185185,1066.375,147.15585185185185,1068.75,147.12083333333334C1071.125,147.08581481481482,1073.5,145.3986111111111,1075.875,144.5375C1078.25,143.67638888888888,1080.625,142.81527777777777,1083,141.95416666666665C1085.375,141.09305555555554,1087.75,140.23194444444445,1090.125,139.37083333333334C1092.5,138.50972222222222,1094.875,137.64861111111114,1097.25,136.78750000000002C1099.625,135.9263888888889,1102,135.0652777777778,1104.375,134.20416666666668C1106.75,133.34305555555557,1109.125,132.48194444444445,1111.5,131.62083333333334C1113.875,130.75972222222222,1116.25,129.8986111111111,1118.625,129.0375C1121,128.17638888888888,1123.375,127.31527777777778,1125.75,126.45416666666667C1128.125,125.59305555555555,1130.5,124.73194444444445,1132.875,123.87083333333334C1135.25,123.00972222222222,1137.625,122.14861111111111,1140,121.2875C1142.375,120.42638888888888,1144.75,119.56527777777777,1147.125,118.70416666666667C1149.5,117.84305555555557,1151.875,116.98194444444447,1154.25,116.12083333333335C1156.625,115.25972222222224,1159,114.39861111111111,1161.375,113.5375C1163.75,112.67638888888888,1166.125,111.81527777777778,1168.5,110.95416666666667C1170.875,110.09305555555555,1173.25,109.23194444444445,1175.625,108.37083333333334C1178,107.50972222222222,1180.375,106.64861111111111,1182.75,105.7875C1185.125,104.92638888888888,1187.5,104.06527777777777,1189.875,103.20416666666665C1192.25,102.34305555555554,1194.625,101.48194444444445,1197,100.62083333333334C1199.375,99.75972222222222,1201.75,98.89861111111112,1204.125,98.03750000000001C1206.5,97.1763888888889,1208.875,96.31527777777778,1211.25,95.45416666666667C1213.625,94.59305555555555,1216,93.73194444444444,1218.375,92.87083333333332C1220.75,92.00972222222221,1223.125,91.14861111111112,1225.5,90.28750000000001C1227.875,89.4263888888889,1230.25,88.56527777777778,1232.625,87.70416666666667C1235,86.84305555555555,1237.375,85.98194444444444,1239.75,85.12083333333332C1242.125,84.25972222222221,1244.5,83.39861111111111,1246.875,82.5375C1249.25,81.67638888888888,1251.625,80.81527777777777,1254,79.95416666666667C1256.375,79.09305555555557,1258.75,78.23194444444447,1261.125,77.37083333333335C1263.5,76.50972222222224,1265.875,75.64861111111112,1268.25,74.78750000000001C1270.625,73.9263888888889,1273,73.0652777777778,1275.375,72.20416666666668C1277.75,71.34305555555557,1280.125,70.48194444444444,1282.5,69.62083333333332C1284.875,68.75972222222221,1287.25,67.89861111111108,1289.625,67.03749999999998C1292,66.17638888888888,1294.375,65.3152777777778,1296.75,64.45416666666668C1299.125,63.59305555555557,1301.5,62.73194444444445,1303.875,61.87083333333334C1306.25,61.00972222222222,1308.625,60.14861111111112,1311,59.28750000000001C1313.375,58.426388888888894,1315.75,57.56527777777778,1318.125,56.704166666666666C1320.5,55.84305555555555,1322.875,54.981944444444444,1325.25,54.12083333333333C1327.625,53.259722222222216,1330,52.398611111111094,1332.375,51.53749999999999C1334.75,50.67638888888888,1337.125,49.81527777777779,1339.5,48.95416666666668C1341.875,48.09305555555557,1344.25,47.23194444444445,1346.625,46.37083333333334C1349,45.50972222222222,1351.375,44.64861111111112,1353.75,43.787500000000016C1356.125,42.92638888888891,1358.5,42.06527777777779,1360.875,41.20416666666667C1363.25,40.34305555555556,1365.625,39.481944444444444,1368,38.62083333333333C1370.375,37.759722222222216,1372.75,36.898611111111094,1375.125,36.03749999999999C1377.5,35.17638888888888,1379.875,34.31527777777779,1382.25,33.45416666666668C1384.625,32.59305555555557,1387,31.731944444444455,1389.375,30.87083333333334C1391.75,30.009722222222226,1394.125,29.14861111111111,1396.5,28.287499999999998C1398.875,27.426388888888887,1401.25,26.565277777777787,1403.625,25.704166666666676C1406,24.843055555555566,1408.375,23.981944444444444,1410.75,23.120833333333334C1413.125,22.259722222222223,1415.5,21.39861111111112,1417.875,20.53750000000001C1420.25,19.676388888888898,1422.625,18.815277777777784,1425,17.95416666666667" fill="transparent" stroke-linecap="round" stroke="#1AD4B3" stroke-width="2"></path><g class="visx-group visx-axis visx-axis-bottom" transform="translate(0, 155)"><g class="visx-group visx-axis-tick" transform="translate(0, 0)"><line class="visx-line" x1="0" y1="0" x2="0" y2="8" fill="transparent" shape-rendering="crispEdges" stroke="#F2F0F9" stroke-width="1" stroke-linecap="square"></line><svg x="0" y="0" font-size="11" style="overflow:visible"><text transform="" x="0" y="19" fill="#1B2030" font-size="11" text-anchor="middle"><tspan x="0" dy="0em">0%</tspan></text></svg></g><g class="visx-group visx-axis-tick" transform="translate(0, 0)"><line class="visx-line" x1="356.25" y1="0" x2="356.25" y2="8" fill="transparent" shape-rendering="crispEdges" stroke="#F2F0F9" stroke-width="1" stroke-linecap="square"></line><svg x="0" y="0" font-size="11" style="overflow:visible"><text transform="" x="356.25" y="19" fill="#1B2030" font-size="11" text-anchor="middle"><tspan x="356.25" dy="0em">25%</tspan></text></svg></g><g class="visx-group visx-axis-tick" transform="translate(0, 0)"><line class="visx-line" x1="712.5" y1="0" x2="712.5" y2="8" fill="transparent" shape-rendering="crispEdges" stroke="#F2F0F9" stroke-width="1" stroke-linecap="square"></line><svg x="0" y="0" font-size="11" style="overflow:visible"><text transform="" x="712.5" y="19" fill="#1B2030" font-size="11" text-anchor="middle"><tspan x="712.5" dy="0em">50%</tspan></text></svg></g><g class="visx-group visx-axis-tick" transform="translate(0, 0)"><line class="visx-line" x1="1068.75" y1="0" x2="1068.75" y2="8" fill="transparent" shape-rendering="crispEdges" stroke="#F2F0F9" stroke-width="1" stroke-linecap="square"></line><svg x="0" y="0" font-size="11" style="overflow:visible"><text transform="" x="1068.75" y="19" fill="#1B2030" font-size="11" text-anchor="middle"><tspan x="1068.75" dy="0em">75%</tspan></text></svg></g><g class="visx-group visx-axis-tick" transform="translate(0, 0)"><line class="visx-line" x1="1425" y1="0" x2="1425" y2="8" fill="transparent" shape-rendering="crispEdges" stroke="#F2F0F9" stroke-width="1" stroke-linecap="square"></line><svg x="0" y="0" font-size="11" style="overflow:visible"><text transform="" x="1425" y="19" fill="#1B2030" font-size="11" text-anchor="middle"><tspan x="1425" dy="0em">100%</tspan></text></svg></g></g><g class="visx-group visx-axis visx-axis-left" transform="translate(0, 0)"><g class="visx-group visx-axis-tick" transform="translate(0, 0)"><line class="visx-line" x1="0" y1="155" x2="-8" y2="155" fill="transparent" shape-rendering="crispEdges" stroke="#F2F0F9" stroke-width="1" stroke-linecap="square"></line><svg x="-30" y="0" font-size="11" style="overflow:visible"><text transform="" x="-8" y="155" fill="#1B2030" font-size="11" text-anchor="start"><tspan x="-8" dy="0em">0%</tspan></text></svg></g><g class="visx-group visx-axis-tick" transform="translate(0, 0)"><line class="visx-line" x1="0" y1="90.41666666666666" x2="-8" y2="90.41666666666666" fill="transparent" shape-rendering="crispEdges" stroke="#F2F0F9" stroke-width="1" stroke-linecap="square"></line><svg x="-30" y="0" font-size="11" style="overflow:visible"><text transform="" x="-8" y="90.41666666666666" fill="#1B2030" font-size="11" text-anchor="start"><tspan x="-8" dy="0em">50%</tspan></text></svg></g><g class="visx-group visx-axis-tick" transform="translate(0, 0)"><line class="visx-line" x1="0" y1="25.83333333333333" x2="-8" y2="25.83333333333333" fill="transparent" shape-rendering="crispEdges" stroke="#F2F0F9" stroke-width="1" stroke-linecap="square"></line><svg x="-30" y="0" font-size="11" style="overflow:visible"><text transform="" x="-8" y="25.83333333333333" fill="#1B2030" font-size="11" text-anchor="start"><tspan x="-8" dy="0em">100%</tspan></text></svg></g><line class="visx-line visx-axis-line" x1="0" y1="155.5" x2="0" y2="0.5" fill="transparent" shape-rendering="crispEdges" stroke="#F2F0F9" stroke-width="1"></line></g><rect class="visx-bar" width="1425" height="155" fill="transparent"></rect><line class="visx-line" x1="1068.75" y1="58" x2="1068.75" y2="155" fill="transparent" shape-rendering="crispEdges" stroke="#CDC8E1" stroke-width="1" pointer-events="none" stroke-dasharray="5"></line><svg x="0" y="0" font-size="11px" style="overflow:visible"><text transform="" x="1068.75" y="50" font-size="11px" fill="#555069" stroke="#FFFFFF" stroke-width="1px" text-anchor="middle"><tspan x="1068.75" dy="0.355em">uOptimal 75%</tspan></text></svg><svg x="0" y="0" font-size="11px" style="overflow:visible"><text transform="" x="1068.75" y="50" font-size="11px" fill="#CDC8E1" text-anchor="middle"><tspan x="1068.75" dy="0.355em">uOptimal 75%</tspan></text></svg></g></svg>