<?xml version="1.0"?><svg xmlns="http://www.w3.org/2000/svg" xmlns:xlink= "http://www.w3.org/1999/xlink" style="background: white;" width="1500" height="300"> <g style="color: black; font-size: 13px; font-family: sans-serif; transform: translate(18px, 25px);"><g><circle r="3" cx="-6" cy="-5" style="fill: #1AD4B3" /><text>Borrow APR, variable</text></g><g style="transform: translateX(150px);"><circle r="3" cx="-6" cy="-5" style="fill: #101423" /><text>Borrow APR, stable</text></g></g><g class="visx-group" transform="translate(45, 50)"><g class="visx-group visx-rows" transform="translate(0, 0)"><line class="visx-line" x1="0" y1="155" x2="1425" y2="155" fill="transparent" shape-rendering="crispEdges" stroke="#F2F0F9" stroke-width="1" pointer-events="none"></line><line class="visx-line" x1="0" y1="98.63636363636364" x2="1425" y2="98.63636363636364" fill="transparent" shape-rendering="crispEdges" stroke="#F2F0F9" stroke-width="1" pointer-events="none"></line><line class="visx-line" x1="0" y1="42.272727272727266" x2="1425" y2="42.272727272727266" fill="transparent" shape-rendering="crispEdges" stroke="#F2F0F9" stroke-width="1" pointer-events="none"></line></g><path class="visx-linepath" d="M0,0C2.375,10.990909090909092,4.75,21.981818181818184,7.125,21.981818181818184C9.5,21.981818181818184,11.875,21.981818181818184,14.25,21.981818181818184C16.625,21.981818181818184,19,21.981818181818184,21.375,21.981818181818184C23.75,21.981818181818184,26.125,21.981818181818184,28.5,21.981818181818184C30.875,21.981818181818184,33.25,21.981818181818184,35.625,21.981818181818184C38,21.981818181818184,40.375,21.981818181818184,42.75,21.981818181818184C45.125,21.981818181818184,47.50000000000001,21.981818181818184,49.87500000000001,21.981818181818184C52.25000000000001,21.981818181818184,54.625,21.981818181818184,57,21.981818181818184C59.375,21.981818181818184,61.75,21.981818181818184,64.125,21.981818181818184C66.5,21.981818181818184,68.875,21.981818181818184,71.25,21.981818181818184C73.625,21.981818181818184,76,21.981818181818184,78.375,21.981818181818184C80.75,21.981818181818184,83.125,21.981818181818184,85.5,21.981818181818184C87.875,21.981818181818184,90.25,21.981818181818184,92.625,21.981818181818184C95,21.981818181818184,97.37500000000001,21.981818181818184,99.75000000000001,21.981818181818184C102.12500000000001,21.981818181818184,104.5,21.981818181818184,106.875,21.981818181818184C109.25,21.981818181818184,111.625,21.981818181818184,114,21.981818181818184C116.375,21.981818181818184,118.75000000000001,21.981818181818184,121.12500000000001,21.981818181818184C123.50000000000001,21.981818181818184,125.875,21.981818181818184,128.25,21.981818181818184C130.625,21.981818181818184,133,21.981818181818184,135.375,21.981818181818184C137.75,21.981818181818184,140.125,21.981818181818184,142.5,21.981818181818184C144.875,21.981818181818184,147.25,21.981818181818184,149.625,21.981818181818184C152,21.981818181818184,154.375,21.981818181818184,156.75,21.981818181818184C159.125,21.981818181818184,161.5,21.981818181818184,163.875,21.981818181818184C166.25,21.981818181818184,168.625,21.981818181818184,171,21.981818181818184C173.375,21.981818181818184,175.75,21.981818181818184,178.125,21.981818181818184C180.5,21.981818181818184,182.875,21.981818181818184,185.25,21.981818181818184C187.625,21.981818181818184,190,21.981818181818184,192.375,21.981818181818184C194.75,21.981818181818184,197.12500000000003,21.981818181818184,199.50000000000003,21.981818181818184C201.875,21.981818181818184,204.25,21.981818181818184,206.62499999999997,21.981818181818184C208.99999999999997,21.981818181818184,211.375,21.981818181818184,213.75,21.981818181818184C216.125,21.981818181818184,218.5,21.981818181818184,220.875,21.981818181818184C223.25,21.981818181818184,225.625,21.981818181818184,228,21.981818181818184C230.375,21.981818181818184,232.75,21.981818181818184,235.125,21.981818181818184C237.5,21.981818181818184,239.87500000000003,21.981818181818184,242.25000000000003,21.981818181818184C244.625,21.981818181818184,247,21.981818181818184,249.37499999999997,21.981818181818184C251.74999999999997,21.981818181818184,254.125,21.981818181818184,256.5,21.981818181818184C258.875,21.981818181818184,261.25,21.981818181818184,263.625,21.981818181818184C266,21.981818181818184,268.375,21.981818181818184,270.75,21.981818181818184C273.125,21.981818181818184,275.5,21.981818181818184,277.875,21.981818181818184C280.25,21.981818181818184,282.625,21.981818181818184,285,21.981818181818184C287.375,21.981818181818184,289.75,21.981818181818184,292.125,21.981818181818184C294.5,21.981818181818184,296.875,21.981818181818184,299.25,21.981818181818184C301.625,21.981818181818184,304,21.981818181818184,306.375,21.981818181818184C308.75,21.981818181818184,311.125,21.981818181818184,313.5,21.981818181818184C315.875,21.981818181818184,318.25,21.981818181818184,320.625,21.981818181818184C323,21.981818181818184,325.375,21.981818181818184,327.75,21.981818181818184C330.125,21.981818181818184,332.5,21.981818181818184,334.875,21.981818181818184C337.25,21.981818181818184,339.625,21.981818181818184,342,21.981818181818184C344.375,21.981818181818184,346.75,21.981818181818184,349.125,21.981818181818184C351.5,21.981818181818184,353.875,21.981818181818184,356.25,21.981818181818184C358.625,21.981818181818184,361,21.981818181818184,363.375,21.981818181818184C365.75,21.981818181818184,368.125,21.981818181818184,370.5,21.981818181818184C372.875,21.981818181818184,375.25,21.981818181818184,377.625,21.981818181818184C380,21.981818181818184,382.375,21.981818181818184,384.75,21.981818181818184C387.125,21.981818181818184,389.50000000000006,21.981818181818184,391.87500000000006,21.981818181818184C394.25000000000006,21.981818181818184,396.62500000000006,21.981818181818184,399.00000000000006,21.981818181818184C401.375,21.981818181818184,403.75,21.981818181818184,406.12499999999994,21.981818181818184C408.49999999999994,21.981818181818184,410.87499999999994,21.981818181818184,413.24999999999994,21.981818181818184C415.62499999999994,21.981818181818184,418,21.981818181818184,420.375,21.981818181818184C422.75,21.981818181818184,425.125,21.981818181818184,427.5,21.981818181818184C429.875,21.981818181818184,432.25,21.981818181818184,434.625,21.981818181818184C437,21.981818181818184,439.375,21.981818181818184,441.75,21.981818181818184C444.125,21.981818181818184,446.5,21.981818181818184,448.875,21.981818181818184C451.25,21.981818181818184,453.625,21.981818181818184,456,21.981818181818184C458.375,21.981818181818184,460.75,21.981818181818184,463.125,21.981818181818184C465.5,21.981818181818184,467.875,21.981818181818184,470.25,21.981818181818184C472.625,21.981818181818184,475.00000000000006,21.981818181818184,477.37500000000006,21.981818181818184C479.75000000000006,21.981818181818184,482.12500000000006,21.981818181818184,484.50000000000006,21.981818181818184C486.875,21.981818181818184,489.25,21.981818181818184,491.62499999999994,21.981818181818184C493.99999999999994,21.981818181818184,496.37499999999994,21.981818181818184,498.74999999999994,21.981818181818184C501.12499999999994,21.981818181818184,503.5,21.981818181818184,505.875,21.981818181818184C508.25,21.981818181818184,510.625,21.981818181818184,513,21.981818181818184C515.375,21.981818181818184,517.75,21.981818181818184,520.125,21.981818181818184C522.5,21.981818181818184,524.875,21.981818181818184,527.25,21.981818181818184C529.625,21.981818181818184,532,21.981818181818184,534.375,21.981818181818184C536.75,21.981818181818184,539.125,21.981818181818184,541.5,21.981818181818184C543.875,21.981818181818184,546.25,21.981818181818184,548.625,21.981818181818184C551,21.981818181818184,553.375,21.981818181818184,555.75,21.981818181818184C558.125,21.981818181818184,560.5,21.981818181818184,562.875,21.981818181818184C565.25,21.981818181818184,567.625,21.981818181818184,570,21.981818181818184C572.375,21.981818181818184,574.75,21.981818181818184,577.125,21.981818181818184C579.5,21.981818181818184,581.875,21.981818181818184,584.25,21.981818181818184C586.625,21.981818181818184,589,21.981818181818184,591.375,21.981818181818184C593.75,21.981818181818184,596.125,21.981818181818184,598.5,21.981818181818184C600.875,21.981818181818184,603.25,21.981818181818184,605.625,21.981818181818184C608,21.981818181818184,610.375,21.981818181818184,612.75,21.981818181818184C615.125,21.981818181818184,617.5,21.981818181818184,619.875,21.981818181818184C622.25,21.981818181818184,624.625,21.981818181818184,627,21.981818181818184C629.375,21.981818181818184,631.75,21.981818181818184,634.125,21.981818181818184C636.5,21.981818181818184,638.875,21.981818181818184,641.25,21.981818181818184C643.625,21.981818181818184,646,21.981818181818184,648.375,21.981818181818184C650.75,21.981818181818184,653.125,21.981818181818184,655.5,21.981818181818184C657.875,21.981818181818184,660.25,21.981818181818184,662.625,21.981818181818184C665,21.981818181818184,667.375,21.981818181818184,669.75,21.981818181818184C672.125,21.981818181818184,674.5,21.981818181818184,676.875,21.981818181818184C679.25,21.981818181818184,681.625,21.981818181818184,684,21.981818181818184C686.375,21.981818181818184,688.75,21.981818181818184,691.125,21.981818181818184C693.5,21.981818181818184,695.875,21.981818181818184,698.25,21.981818181818184C700.625,21.981818181818184,703,21.981818181818184,705.375,21.981818181818184C707.75,21.981818181818184,710.125,21.981818181818184,712.5,21.981818181818184C714.875,21.981818181818184,717.25,21.981818181818184,719.625,21.981818181818184C722,21.981818181818184,724.375,21.981818181818184,726.75,21.981818181818184C729.125,21.981818181818184,731.5,21.981818181818184,733.875,21.981818181818184C736.25,21.981818181818184,738.625,21.981818181818184,741,21.981818181818184C743.375,21.981818181818184,745.75,21.981818181818184,748.125,21.981818181818184C750.5,21.981818181818184,752.875,21.981818181818184,755.25,21.981818181818184C757.625,21.981818181818184,760,21.981818181818184,762.375,21.981818181818184C764.75,21.981818181818184,767.125,21.981818181818184,769.5,21.981818181818184C771.875,21.981818181818184,774.2500000000001,21.981818181818184,776.6250000000001,21.981818181818184C779.0000000000001,21.981818181818184,781.3750000000001,21.981818181818184,783.7500000000001,21.981818181818184C786.1250000000001,21.981818181818184,788.5000000000001,21.981818181818184,790.8750000000001,21.981818181818184C793.2500000000001,21.981818181818184,795.6250000000001,21.981818181818184,798.0000000000001,21.981818181818184C800.375,21.981818181818184,802.75,21.981818181818184,805.1249999999999,21.981818181818184C807.4999999999999,21.981818181818184,809.8749999999999,21.981818181818184,812.2499999999999,21.981818181818184C814.6249999999999,21.981818181818184,816.9999999999999,21.981818181818184,819.3749999999999,21.981818181818184C821.7499999999999,21.981818181818184,824.1249999999999,21.981818181818184,826.4999999999999,21.981818181818184C828.8749999999999,21.981818181818184,831.25,21.981818181818184,833.625,21.981818181818184C836,21.981818181818184,838.375,21.981818181818184,840.75,21.981818181818184C843.125,21.981818181818184,845.5,21.981818181818184,847.875,21.981818181818184C850.25,21.981818181818184,852.625,21.981818181818184,855,21.981818181818184C857.375,21.981818181818184,859.75,21.981818181818184,862.125,21.981818181818184C864.5,21.981818181818184,866.875,21.981818181818184,869.25,21.981818181818184C871.625,21.981818181818184,874,21.981818181818184,876.375,21.981818181818184C878.75,21.981818181818184,881.125,21.981818181818184,883.5,21.981818181818184C885.875,21.981818181818184,888.25,21.981818181818184,890.625,21.981818181818184C893,21.981818181818184,895.375,21.981818181818184,897.75,21.981818181818184C900.125,21.981818181818184,902.5,21.981818181818184,904.875,21.981818181818184C907.25,21.981818181818184,909.625,21.981818181818184,912,21.981818181818184C914.375,21.981818181818184,916.75,21.981818181818184,919.125,21.981818181818184C921.5,21.981818181818184,923.875,21.981818181818184,926.25,21.981818181818184C928.625,21.981818181818184,931,21.981818181818184,933.375,21.981818181818184C935.75,21.981818181818184,938.125,21.981818181818184,940.5,21.981818181818184C942.875,21.981818181818184,945.25,21.981818181818184,947.625,21.981818181818184C950,21.981818181818184,952.3750000000001,21.981818181818184,954.7500000000001,21.981818181818184C957.1250000000001,21.981818181818184,959.5000000000001,21.981818181818184,961.8750000000001,21.981818181818184C964.2500000000001,21.981818181818184,966.6250000000001,21.981818181818184,969.0000000000001,21.981818181818184C971.3750000000001,21.981818181818184,973.7500000000001,21.981818181818184,976.1250000000001,21.981818181818184C978.5,21.981818181818184,980.875,21.981818181818184,983.2499999999999,21.981818181818184C985.6249999999999,21.981818181818184,987.9999999999999,21.981818181818184,990.3749999999999,21.981818181818184C992.7499999999999,21.981818181818184,995.1249999999999,21.981818181818184,997.4999999999999,21.981818181818184C999.8749999999999,21.981818181818184,1002.2499999999999,21.981818181818184,1004.6249999999999,21.981818181818184C1006.9999999999999,21.981818181818184,1009.375,21.981818181818184,1011.75,21.981818181818184C1014.125,21.981818181818184,1016.5,21.981818181818184,1018.875,21.981818181818184C1021.25,21.981818181818184,1023.625,21.981818181818184,1026,21.981818181818184C1028.375,21.981818181818184,1030.75,21.981818181818184,1033.125,21.981818181818184C1035.5,21.981818181818184,1037.875,21.981818181818184,1040.25,21.981818181818184C1042.625,21.981818181818184,1045,21.981818181818184,1047.375,21.981818181818184C1049.75,21.981818181818184,1052.125,21.981818181818184,1054.5,21.981818181818184C1056.875,21.981818181818184,1059.25,21.981818181818184,1061.625,21.981818181818184C1064,21.981818181818184,1066.375,21.981818181818184,1068.75,21.981818181818184C1071.125,21.981818181818184,1073.5,21.981818181818184,1075.875,21.981818181818184C1078.25,21.981818181818184,1080.625,21.981818181818184,1083,21.981818181818184C1085.375,21.981818181818184,1087.75,21.981818181818184,1090.125,21.981818181818184C1092.5,21.981818181818184,1094.875,21.981818181818184,1097.25,21.981818181818184C1099.625,21.981818181818184,1102,21.981818181818184,1104.375,21.981818181818184C1106.75,21.981818181818184,1109.125,21.981818181818184,1111.5,21.981818181818184C1113.875,21.981818181818184,1116.25,21.981818181818184,1118.625,21.981818181818184C1121,21.981818181818184,1123.375,21.981818181818184,1125.75,21.981818181818184C1128.125,21.981818181818184,1130.5,21.981818181818184,1132.875,21.981818181818184C1135.25,21.981818181818184,1137.625,21.981818181818184,1140,21.981818181818184C1142.375,21.981818181818184,1144.75,21.981818181818184,1147.125,21.981818181818184C1149.5,21.981818181818184,1151.875,21.981818181818184,1154.25,21.981818181818184C1156.625,21.981818181818184,1159,21.981818181818184,1161.375,21.981818181818184C1163.75,21.981818181818184,1166.125,21.981818181818184,1168.5,21.981818181818184C1170.875,21.981818181818184,1173.25,21.981818181818184,1175.625,21.981818181818184C1178,21.981818181818184,1180.375,21.981818181818184,1182.75,21.981818181818184C1185.125,21.981818181818184,1187.5,21.981818181818184,1189.875,21.981818181818184C1192.25,21.981818181818184,1194.625,21.981818181818184,1197,21.981818181818184C1199.375,21.981818181818184,1201.75,21.981818181818184,1204.125,21.981818181818184C1206.5,21.981818181818184,1208.875,21.981818181818184,1211.25,21.981818181818184C1213.625,21.981818181818184,1216,21.981818181818184,1218.375,21.981818181818184C1220.75,21.981818181818184,1223.125,21.981818181818184,1225.5,21.981818181818184C1227.875,21.981818181818184,1230.25,21.981818181818184,1232.625,21.981818181818184C1235,21.981818181818184,1237.375,21.981818181818184,1239.75,21.981818181818184C1242.125,21.981818181818184,1244.5,21.981818181818184,1246.875,21.981818181818184C1249.25,21.981818181818184,1251.625,21.981818181818184,1254,21.981818181818184C1256.375,21.981818181818184,1258.75,21.981818181818184,1261.125,21.981818181818184C1263.5,21.981818181818184,1265.875,21.981818181818184,1268.25,21.981818181818184C1270.625,21.981818181818184,1273,21.981818181818184,1275.375,21.981818181818184C1277.75,21.981818181818184,1280.125,21.981818181818184,1282.5,21.981818181818184C1284.875,21.981818181818184,1287.25,21.981818181818184,1289.625,21.981818181818184C1292,21.981818181818184,1294.375,21.981818181818184,1296.75,21.981818181818184C1299.125,21.981818181818184,1301.5,21.981818181818184,1303.875,21.981818181818184C1306.25,21.981818181818184,1308.625,21.981818181818184,1311,21.981818181818184C1313.375,21.981818181818184,1315.75,21.981818181818184,1318.125,21.981818181818184C1320.5,21.981818181818184,1322.875,21.981818181818184,1325.25,21.981818181818184C1327.625,21.981818181818184,1330,21.981818181818184,1332.375,21.981818181818184C1334.75,21.981818181818184,1337.125,21.981818181818184,1339.5,21.981818181818184C1341.875,21.981818181818184,1344.25,21.981818181818184,1346.625,21.981818181818184C1349,21.981818181818184,1351.375,21.981818181818184,1353.75,21.981818181818184C1356.125,21.981818181818184,1358.5,21.981818181818184,1360.875,21.981818181818184C1363.25,21.981818181818184,1365.625,21.981818181818184,1368,21.981818181818184C1370.375,21.981818181818184,1372.75,21.981818181818184,1375.125,21.981818181818184C1377.5,21.981818181818184,1379.875,21.981818181818184,1382.25,21.981818181818184C1384.625,21.981818181818184,1387,21.981818181818184,1389.375,21.981818181818184C1391.75,21.981818181818184,1394.125,21.981818181818184,1396.5,21.981818181818184C1398.875,21.981818181818184,1401.25,21.981818181818184,1403.625,21.981818181818184C1406,21.981818181818184,1408.375,21.981818181818184,1410.75,21.981818181818184C1413.125,21.981818181818184,1415.5,21.981818181818184,1417.875,21.981818181818184C1420.25,21.981818181818184,1422.625,21.981818181818184,1425,21.981818181818184" fill="transparent" stroke-linecap="round" stroke="#1AD4B3" stroke-width="2"></path><g class="visx-group visx-axis visx-axis-bottom" transform="translate(0, 155)"><g class="visx-group visx-axis-tick" transform="translate(0, 0)"><line class="visx-line" x1="0" y1="0" x2="0" y2="8" fill="transparent" shape-rendering="crispEdges" stroke="#F2F0F9" stroke-width="1" stroke-linecap="square"></line><svg x="0" y="0" font-size="11" style="overflow:visible"><text transform="" x="0" y="19" fill="#1B2030" font-size="11" text-anchor="middle"><tspan x="0" dy="0em">0%</tspan></text></svg></g><g class="visx-group visx-axis-tick" transform="translate(0, 0)"><line class="visx-line" x1="356.25" y1="0" x2="356.25" y2="8" fill="transparent" shape-rendering="crispEdges" stroke="#F2F0F9" stroke-width="1" stroke-linecap="square"></line><svg x="0" y="0" font-size="11" style="overflow:visible"><text transform="" x="356.25" y="19" fill="#1B2030" font-size="11" text-anchor="middle"><tspan x="356.25" dy="0em">25%</tspan></text></svg></g><g class="visx-group visx-axis-tick" transform="translate(0, 0)"><line class="visx-line" x1="712.5" y1="0" x2="712.5" y2="8" fill="transparent" shape-rendering="crispEdges" stroke="#F2F0F9" stroke-width="1" stroke-linecap="square"></line><svg x="0" y="0" font-size="11" style="overflow:visible"><text transform="" x="712.5" y="19" fill="#1B2030" font-size="11" text-anchor="middle"><tspan x="712.5" dy="0em">50%</tspan></text></svg></g><g class="visx-group visx-axis-tick" transform="translate(0, 0)"><line class="visx-line" x1="1068.75" y1="0" x2="1068.75" y2="8" fill="transparent" shape-rendering="crispEdges" stroke="#F2F0F9" stroke-width="1" stroke-linecap="square"></line><svg x="0" y="0" font-size="11" style="overflow:visible"><text transform="" x="1068.75" y="19" fill="#1B2030" font-size="11" text-anchor="middle"><tspan x="1068.75" dy="0em">75%</tspan></text></svg></g><g class="visx-group visx-axis-tick" transform="translate(0, 0)"><line class="visx-line" x1="1425" y1="0" x2="1425" y2="8" fill="transparent" shape-rendering="crispEdges" stroke="#F2F0F9" stroke-width="1" stroke-linecap="square"></line><svg x="0" y="0" font-size="11" style="overflow:visible"><text transform="" x="1425" y="19" fill="#1B2030" font-size="11" text-anchor="middle"><tspan x="1425" dy="0em">100%</tspan></text></svg></g></g><g class="visx-group visx-axis visx-axis-left" transform="translate(0, 0)"><g class="visx-group visx-axis-tick" transform="translate(0, 0)"><line class="visx-line" x1="0" y1="155" x2="-8" y2="155" fill="transparent" shape-rendering="crispEdges" stroke="#F2F0F9" stroke-width="1" stroke-linecap="square"></line><svg x="-30" y="0" font-size="11" style="overflow:visible"><text transform="" x="-8" y="155" fill="#1B2030" font-size="11" text-anchor="start"><tspan x="-8" dy="0em">0%</tspan></text></svg></g><g class="visx-group visx-axis-tick" transform="translate(0, 0)"><line class="visx-line" x1="0" y1="98.63636363636364" x2="-8" y2="98.63636363636364" fill="transparent" shape-rendering="crispEdges" stroke="#F2F0F9" stroke-width="1" stroke-linecap="square"></line><svg x="-30" y="0" font-size="11" style="overflow:visible"><text transform="" x="-8" y="98.63636363636364" fill="#1B2030" font-size="11" text-anchor="start"><tspan x="-8" dy="0em">2%</tspan></text></svg></g><g class="visx-group visx-axis-tick" transform="translate(0, 0)"><line class="visx-line" x1="0" y1="42.272727272727266" x2="-8" y2="42.272727272727266" fill="transparent" shape-rendering="crispEdges" stroke="#F2F0F9" stroke-width="1" stroke-linecap="square"></line><svg x="-30" y="0" font-size="11" style="overflow:visible"><text transform="" x="-8" y="42.272727272727266" fill="#1B2030" font-size="11" text-anchor="start"><tspan x="-8" dy="0em">4%</tspan></text></svg></g><line class="visx-line visx-axis-line" x1="0" y1="155.5" x2="0" y2="0.5" fill="transparent" shape-rendering="crispEdges" stroke="#F2F0F9" stroke-width="1"></line></g><rect class="visx-bar" width="1425" height="155" fill="transparent"></rect><line class="visx-line" x1="0" y1="58" x2="0" y2="155" fill="transparent" shape-rendering="crispEdges" stroke="#CDC8E1" stroke-width="1" pointer-events="none" stroke-dasharray="5"></line><svg x="0" y="0" font-size="11px" style="overflow:visible"><text transform="" x="0" y="50" font-size="11px" fill="#555069" stroke="#FFFFFF" stroke-width="1px" text-anchor="middle"><tspan x="0" dy="0.355em">uOptimal 0%</tspan></text></svg><svg x="0" y="0" font-size="11px" style="overflow:visible"><text transform="" x="0" y="50" font-size="11px" fill="#CDC8E1" text-anchor="middle"><tspan x="0" dy="0.355em">uOptimal 0%</tspan></text></svg></g></svg>