<?xml version="1.0"?><svg xmlns="http://www.w3.org/2000/svg" xmlns:xlink= "http://www.w3.org/1999/xlink" style="background: white;" width="1500" height="300"> <g style="color: black; font-size: 13px; font-family: sans-serif; transform: translate(18px, 25px);"><g><circle r="3" cx="-6" cy="-5" style="fill: #1AD4B3" /><text>Borrow APR, variable</text></g><g style="transform: translateX(150px);"><circle r="3" cx="-6" cy="-5" style="fill: #101423" /><text>Borrow APR, stable</text></g></g><g class="visx-group" transform="translate(45, 50)"><g class="visx-group visx-rows" transform="translate(0, 0)"><line class="visx-line" x1="0" y1="155" x2="1425" y2="155" fill="transparent" shape-rendering="crispEdges" stroke="#F2F0F9" stroke-width="1" pointer-events="none"></line><line class="visx-line" x1="0" y1="120.55555555555556" x2="1425" y2="120.55555555555556" fill="transparent" shape-rendering="crispEdges" stroke="#F2F0F9" stroke-width="1" pointer-events="none"></line><line class="visx-line" x1="0" y1="86.11111111111111" x2="1425" y2="86.11111111111111" fill="transparent" shape-rendering="crispEdges" stroke="#F2F0F9" stroke-width="1" pointer-events="none"></line><line class="visx-line" x1="0" y1="51.66666666666667" x2="1425" y2="51.66666666666667" fill="transparent" shape-rendering="crispEdges" stroke="#F2F0F9" stroke-width="1" pointer-events="none"></line><line class="visx-line" x1="0" y1="17.22222222222223" x2="1425" y2="17.22222222222223" fill="transparent" shape-rendering="crispEdges" stroke="#F2F0F9" stroke-width="1" pointer-events="none"></line></g><path class="visx-linepath" d="M0,154.99999999989237C2.375,154.98206018512238,4.75,154.96412037035242,7.125,154.94618055555554C9.5,154.92824074075867,11.875,154.91030092592592,14.25,154.89236111111111C16.625,154.8744212962963,19,154.85648148148147,21.375,154.83854166666666C23.75,154.82060185185185,26.125,154.80266203703704,28.5,154.78472222222223C30.875,154.76678240740742,33.25,154.74884259259258,35.625,154.73090277777777C38,154.71296296296296,40.375,154.69502314814815,42.75,154.67708333333334C45.125,154.65914351851853,47.50000000000001,154.6412037037037,49.87500000000001,154.62326388888889C52.25000000000001,154.60532407407408,54.625,154.58738425925927,57,154.56944444444446C59.375,154.55150462962965,61.75,154.5335648148148,64.125,154.515625C66.5,154.4976851851852,68.875,154.47974537037038,71.25,154.46180555555557C73.625,154.44386574074076,76,154.42592592592592,78.375,154.40798611111111C80.75,154.3900462962963,83.125,154.37210648148147,85.5,154.35416666666666C87.875,154.33622685185185,90.25,154.31828703703704,92.625,154.30034722222223C95,154.28240740740742,97.37500000000001,154.26446759259258,99.75000000000001,154.24652777777777C102.12500000000001,154.22858796296296,104.5,154.21064814814812,106.875,154.19270833333331C109.25,154.1747685185185,111.625,154.1568287037037,114,154.13888888888889C116.375,154.12094907407408,118.75000000000001,154.10300925925924,121.12500000000001,154.08506944444443C123.50000000000001,154.06712962962962,125.875,154.0491898148148,128.25,154.03125C130.625,154.0133101851852,133,153.99537037037035,135.375,153.97743055555554C137.75,153.95949074074073,140.125,153.94155092592592,142.5,153.92361111111111C144.875,153.9056712962963,147.25,153.88773148148147,149.625,153.86979166666666C152,153.85185185185185,154.375,153.83391203703704,156.75,153.81597222222223C159.125,153.79803240740742,161.5,153.78009259259258,163.875,153.76215277777777C166.25,153.74421296296296,168.625,153.72627314814815,171,153.70833333333334C173.375,153.69039351851853,175.75,153.6724537037037,178.125,153.65451388888889C180.5,153.63657407407408,182.875,153.61863425925927,185.25,153.60069444444446C187.625,153.58275462962965,190,153.5648148148148,192.375,153.546875C194.75,153.5289351851852,197.12500000000003,153.51099537037038,199.50000000000003,153.49305555555557C201.875,153.47511574074076,204.25,153.45717592592592,206.62499999999997,153.43923611111111C208.99999999999997,153.4212962962963,211.375,153.4033564814815,213.75,153.38541666666669C216.125,153.36747685185188,218.5,153.34953703703704,220.875,153.33159722222223C223.25,153.31365740740742,225.625,153.29571759259258,228,153.27777777777777C230.375,153.25983796296296,232.75,153.24189814814815,235.125,153.22395833333334C237.5,153.20601851851853,239.87500000000003,153.1880787037037,242.25000000000003,153.17013888888889C244.625,153.15219907407408,247,153.13425925925924,249.37499999999997,153.11631944444443C251.74999999999997,153.09837962962962,254.125,153.0804398148148,256.5,153.0625C258.875,153.0445601851852,261.25,153.02662037037035,263.625,153.00868055555554C266,152.99074074074073,268.375,152.97280092592592,270.75,152.95486111111111C273.125,152.9369212962963,275.5,152.91898148148147,277.875,152.90104166666666C280.25,152.88310185185185,282.625,152.86516203703704,285,152.84722222222223C287.375,152.82928240740742,289.75,152.81134259259258,292.125,152.79340277777777C294.5,152.77546296296296,296.875,152.75752314814815,299.25,152.73958333333334C301.625,152.72164351851853,304,152.7037037037037,306.375,152.68576388888889C308.75,152.66782407407408,311.125,152.64988425925927,313.5,152.63194444444446C315.875,152.61400462962965,318.25,152.5960648148148,320.625,152.578125C323,152.5601851851852,325.375,152.54224537037035,327.75,152.52430555555554C330.125,152.50636574074073,332.5,152.48842592592592,334.875,152.47048611111111C337.25,152.4525462962963,339.625,152.43460648148147,342,152.41666666666666C344.375,152.39872685185185,346.75,152.38078703703704,349.125,152.36284722222223C351.5,152.34490740740742,353.875,152.32696759259258,356.25,152.30902777777777C358.625,152.29108796296296,361,152.27314814814815,363.375,152.25520833333334C365.75,152.23726851851853,368.125,152.2193287037037,370.5,152.20138888888889C372.875,152.18344907407408,375.25,152.16550925925927,377.625,152.14756944444446C380,152.12962962962965,382.375,152.1116898148148,384.75,152.09375C387.125,152.0758101851852,389.50000000000006,152.05787037037038,391.87500000000006,152.03993055555557C394.25000000000006,152.02199074074076,396.62500000000006,152.00405092592592,399.00000000000006,151.98611111111111C401.375,151.9681712962963,403.75,151.95023148148147,406.12499999999994,151.93229166666666C408.49999999999994,151.91435185185185,410.87499999999994,151.89641203703704,413.24999999999994,151.87847222222223C415.62499999999994,151.86053240740742,418,151.84259259259258,420.375,151.82465277777777C422.75,151.80671296296296,425.125,151.78877314814812,427.5,151.77083333333331C429.875,151.7528935185185,432.25,151.7349537037037,434.625,151.71701388888889C437,151.69907407407408,439.375,151.68113425925924,441.75,151.66319444444443C444.125,151.64525462962962,446.5,151.6273148148148,448.875,151.609375C451.25,151.5914351851852,453.625,151.57349537037035,456,151.55555555555554C458.375,151.53761574074073,460.75,151.51967592592592,463.125,151.50173611111111C465.5,151.4837962962963,467.875,151.46585648148147,470.25,151.44791666666666C472.625,151.42997685185185,475.00000000000006,151.41203703703704,477.37500000000006,151.39409722222223C479.75000000000006,151.37615740740742,482.12500000000006,151.35821759259258,484.50000000000006,151.34027777777777C486.875,151.32233796296296,489.25,151.30439814814815,491.62499999999994,151.28645833333334C493.99999999999994,151.26851851851853,496.37499999999994,151.2505787037037,498.74999999999994,151.23263888888889C501.12499999999994,151.21469907407408,503.5,151.19675925925927,505.875,151.17881944444446C508.25,151.16087962962965,510.625,151.1429398148148,513,151.125C515.375,151.1070601851852,517.75,151.08912037037038,520.125,151.07118055555557C522.5,151.05324074074076,524.875,151.03530092592592,527.25,151.01736111111111C529.625,150.9994212962963,532,150.9814814814815,534.375,150.96354166666669C536.75,150.94560185185188,539.125,150.92766203703704,541.5,150.90972222222223C543.875,150.89178240740742,546.25,150.87384259259258,548.625,150.85590277777777C551,150.83796296296296,553.375,150.82002314814815,555.75,150.80208333333334C558.125,150.78414351851853,560.5,150.7662037037037,562.875,150.74826388888889C565.25,150.73032407407408,567.625,150.71238425925924,570,150.69444444444443C572.375,150.67650462962962,574.75,150.6585648148148,577.125,150.640625C579.5,150.6226851851852,581.875,150.60474537037035,584.25,150.58680555555554C586.625,150.56886574074073,589,150.55092592592592,591.375,150.53298611111111C593.75,150.5150462962963,596.125,150.49710648148147,598.5,150.47916666666666C600.875,150.46122685185185,603.25,150.44328703703704,605.625,150.42534722222223C608,150.40740740740742,610.375,150.38946759259258,612.75,150.37152777777777C615.125,150.35358796296296,617.5,150.33564814814815,619.875,150.31770833333334C622.25,150.29976851851853,624.625,150.2818287037037,627,150.26388888888889C629.375,150.24594907407408,631.75,150.22800925925927,634.125,150.21006944444446C636.5,150.19212962962965,638.875,150.1741898148148,641.25,150.15625C643.625,150.1383101851852,646,150.12037037037035,648.375,150.10243055555554C650.75,150.08449074074073,653.125,150.06655092592592,655.5,150.04861111111111C657.875,150.0306712962963,660.25,150.01273148148147,662.625,149.99479166666666C665,149.97685185185185,667.375,149.95891203703704,669.75,149.94097222222223C672.125,149.92303240740742,674.5,149.90509259259258,676.875,149.88715277777777C679.25,149.86921296296296,681.625,149.85127314814815,684,149.83333333333334C686.375,149.81539351851853,688.75,149.7974537037037,691.125,149.77951388888889C693.5,149.76157407407408,695.875,149.74363425925927,698.25,149.72569444444446C700.625,149.70775462962965,703,149.6898148148148,705.375,149.671875C707.75,149.6539351851852,710.125,149.63599537037038,712.5,149.61805555555557C714.875,149.60011574074076,717.25,149.58217592592592,719.625,149.56423611111111C722,149.5462962962963,724.375,149.52835648148147,726.75,149.51041666666666C729.125,149.49247685185185,731.5,149.47453703703704,733.875,149.45659722222223C736.25,149.43865740740742,738.625,149.42071759259258,741,149.40277777777777C743.375,149.38483796296296,745.75,149.36689814814812,748.125,149.34895833333331C750.5,149.3310185185185,752.875,149.3130787037037,755.25,149.29513888888889C757.625,149.27719907407408,760,149.25925925925924,762.375,149.24131944444443C764.75,149.22337962962962,767.125,149.2054398148148,769.5,149.1875C771.875,149.1695601851852,774.2500000000001,149.15162037037035,776.6250000000001,149.13368055555554C779.0000000000001,149.11574074074073,781.3750000000001,149.09780092592592,783.7500000000001,149.07986111111111C786.1250000000001,149.0619212962963,788.5000000000001,149.04398148148147,790.8750000000001,149.02604166666666C793.2500000000001,149.00810185185185,795.6250000000001,148.99016203703704,798.0000000000001,148.97222222222223C800.375,148.95428240740742,802.75,148.93634259259258,805.1249999999999,148.91840277777777C807.4999999999999,148.90046296296296,809.8749999999999,148.88252314814815,812.2499999999999,148.86458333333334C814.6249999999999,148.84664351851853,816.9999999999999,148.8287037037037,819.3749999999999,148.81076388888889C821.7499999999999,148.79282407407408,824.1249999999999,148.77488425925927,826.4999999999999,148.75694444444446C828.8749999999999,148.73900462962965,831.25,148.7210648148148,833.625,148.703125C836,148.6851851851852,838.375,148.66724537037038,840.75,148.64930555555557C843.125,148.63136574074076,845.5,148.61342592592592,847.875,148.59548611111111C850.25,148.5775462962963,852.625,148.5596064814815,855,148.54166666666669C857.375,148.52372685185188,859.75,148.50578703703704,862.125,148.48784722222223C864.5,148.46990740740742,866.875,148.45196759259258,869.25,148.43402777777777C871.625,148.41608796296296,874,148.39814814814815,876.375,148.38020833333334C878.75,148.36226851851853,881.125,148.3443287037037,883.5,148.32638888888889C885.875,148.30844907407408,888.25,148.29050925925924,890.625,148.27256944444443C893,148.25462962962962,895.375,148.2366898148148,897.75,148.21875C900.125,148.2008101851852,902.5,148.18287037037035,904.875,148.16493055555554C907.25,148.14699074074073,909.625,148.12905092592592,912,148.11111111111111C914.375,148.0931712962963,916.75,148.07523148148147,919.125,148.05729166666666C921.5,148.03935185185185,923.875,148.02141203703704,926.25,148.00347222222223C928.625,147.98553240740742,931,147.96759259259258,933.375,147.94965277777777C935.75,147.93171296296296,938.125,147.91377314814815,940.5,147.89583333333334C942.875,147.87789351851853,945.25,147.8599537037037,947.625,147.84201388888889C950,147.82407407407408,952.3750000000001,147.80613425925927,954.7500000000001,147.78819444444446C957.1250000000001,147.77025462962965,959.5000000000001,147.7523148148148,961.8750000000001,147.734375C964.2500000000001,147.7164351851852,966.6250000000001,147.69849537037035,969.0000000000001,147.68055555555554C971.3750000000001,147.66261574074073,973.7500000000001,147.64467592592592,976.1250000000001,147.62673611111111C978.5,147.6087962962963,980.875,147.59085648148147,983.2499999999999,147.57291666666666C985.6249999999999,147.55497685185185,987.9999999999999,147.53703703703704,990.3749999999999,147.51909722222223C992.7499999999999,147.50115740740742,995.1249999999999,147.48321759259258,997.4999999999999,147.46527777777777C999.8749999999999,147.44733796296296,1002.2499999999999,147.42939814814815,1004.6249999999999,147.41145833333334C1006.9999999999999,147.39351851851853,1009.375,147.3755787037037,1011.75,147.35763888888889C1014.125,147.33969907407408,1016.5,147.32175925925927,1018.875,147.30381944444446C1021.25,147.28587962962965,1023.625,147.2679398148148,1026,147.25C1028.375,147.2320601851852,1030.75,147.21412037037038,1033.125,147.19618055555557C1035.5,147.17824074074076,1037.875,147.16030092592592,1040.25,147.14236111111111C1042.625,147.1244212962963,1045,147.10648148148147,1047.375,147.08854166666666C1049.75,147.07060185185185,1052.125,147.05266203703704,1054.5,147.03472222222223C1056.875,147.01678240740742,1059.25,146.99884259259258,1061.625,146.98090277777777C1064,146.96296296296296,1066.375,146.94502314814812,1068.75,146.92708333333331C1071.125,146.9091435185185,1073.5,146.8912037037037,1075.875,146.87326388888889C1078.25,146.85532407407408,1080.625,146.83738425925924,1083,146.81944444444443C1085.375,146.80150462962962,1087.75,146.7835648148148,1090.125,146.765625C1092.5,146.7476851851852,1094.875,146.72974537037035,1097.25,146.71180555555554C1099.625,146.69386574074073,1102,146.67592592592592,1104.375,146.65798611111111C1106.75,146.6400462962963,1109.125,146.62210648148147,1111.5,146.60416666666666C1113.875,146.58622685185185,1116.25,146.56828703703704,1118.625,146.55034722222223C1121,146.53240740740742,1123.375,146.51446759259258,1125.75,146.49652777777777C1128.125,146.47858796296296,1130.5,146.46064814814815,1132.875,146.44270833333334C1135.25,146.42476851851853,1137.625,146.42476851851853,1140,146.38888888888889C1142.375,146.35300925925924,1144.75,144.23611111111111,1147.125,143.15972222222223C1149.5,142.08333333333334,1151.875,141.00694444444446,1154.25,139.93055555555557C1156.625,138.85416666666669,1159,137.77777777777777,1161.375,136.70138888888889C1163.75,135.625,1166.125,134.54861111111111,1168.5,133.47222222222223C1170.875,132.39583333333334,1173.25,131.31944444444446,1175.625,130.24305555555557C1178,129.16666666666669,1180.375,128.09027777777777,1182.75,127.01388888888889C1185.125,125.9375,1187.5,124.86111111111111,1189.875,123.78472222222223C1192.25,122.70833333333334,1194.625,121.63194444444444,1197,120.55555555555556C1199.375,119.47916666666667,1201.75,118.40277777777777,1204.125,117.32638888888889C1206.5,116.25,1208.875,115.17361111111111,1211.25,114.09722222222223C1213.625,113.02083333333334,1216,111.94444444444444,1218.375,110.86805555555556C1220.75,109.79166666666667,1223.125,108.71527777777777,1225.5,107.63888888888889C1227.875,106.5625,1230.25,105.48611111111111,1232.625,104.40972222222223C1235,103.33333333333334,1237.375,102.25694444444444,1239.75,101.18055555555556C1242.125,100.10416666666667,1244.5,99.02777777777777,1246.875,97.95138888888889C1249.25,96.875,1251.625,95.79861111111111,1254,94.72222222222223C1256.375,93.64583333333334,1258.75,92.56944444444444,1261.125,91.49305555555556C1263.5,90.41666666666667,1265.875,89.34027777777777,1268.25,88.26388888888889C1270.625,87.1875,1273,86.11111111111111,1275.375,85.03472222222223C1277.75,83.95833333333334,1280.125,82.88194444444444,1282.5,81.80555555555556C1284.875,80.72916666666667,1287.25,79.65277777777777,1289.625,78.57638888888889C1292,77.5,1294.375,76.42361111111111,1296.75,75.34722222222223C1299.125,74.27083333333334,1301.5,73.19444444444444,1303.875,72.11805555555556C1306.25,71.04166666666667,1308.625,69.96527777777777,1311,68.88888888888889C1313.375,67.8125,1315.75,66.7361111111111,1318.125,65.65972222222221C1320.5,64.58333333333333,1322.875,63.50694444444444,1325.25,62.43055555555556C1327.625,61.35416666666667,1330,60.27777777777777,1332.375,59.201388888888886C1334.75,58.125,1337.125,57.048611111111114,1339.5,55.97222222222223C1341.875,54.89583333333334,1344.25,53.81944444444445,1346.625,52.74305555555556C1349,51.666666666666664,1351.375,50.59027777777777,1353.75,49.513888888888886C1356.125,48.4375,1358.5,47.361111111111114,1360.875,46.28472222222223C1363.25,45.20833333333334,1365.625,44.13194444444445,1368,43.05555555555556C1370.375,41.979166666666664,1372.75,40.90277777777777,1375.125,39.826388888888886C1377.5,38.75,1379.875,37.673611111111114,1382.25,36.59722222222223C1384.625,35.52083333333334,1387,34.44444444444445,1389.375,33.36805555555556C1391.75,32.291666666666664,1394.125,31.215277777777775,1396.5,30.138888888888886C1398.875,29.062499999999996,1401.25,27.986111111111118,1403.625,26.90972222222223C1406,25.83333333333334,1408.375,24.756944444444446,1410.75,23.680555555555557C1413.125,22.604166666666668,1415.5,21.527777777777775,1417.875,20.451388888888886C1420.25,19.374999999999996,1422.625,18.298611111111114,1425,17.22222222222223" fill="transparent" stroke-linecap="round" stroke="#1AD4B3" stroke-width="2"></path><g class="visx-group visx-axis visx-axis-bottom" transform="translate(0, 155)"><g class="visx-group visx-axis-tick" transform="translate(0, 0)"><line class="visx-line" x1="0" y1="0" x2="0" y2="8" fill="transparent" shape-rendering="crispEdges" stroke="#F2F0F9" stroke-width="1" stroke-linecap="square"></line><svg x="0" y="0" font-size="11" style="overflow:visible"><text transform="" x="0" y="19" fill="#1B2030" font-size="11" text-anchor="middle"><tspan x="0" dy="0em">0%</tspan></text></svg></g><g class="visx-group visx-axis-tick" transform="translate(0, 0)"><line class="visx-line" x1="356.25" y1="0" x2="356.25" y2="8" fill="transparent" shape-rendering="crispEdges" stroke="#F2F0F9" stroke-width="1" stroke-linecap="square"></line><svg x="0" y="0" font-size="11" style="overflow:visible"><text transform="" x="356.25" y="19" fill="#1B2030" font-size="11" text-anchor="middle"><tspan x="356.25" dy="0em">25%</tspan></text></svg></g><g class="visx-group visx-axis-tick" transform="translate(0, 0)"><line class="visx-line" x1="712.5" y1="0" x2="712.5" y2="8" fill="transparent" shape-rendering="crispEdges" stroke="#F2F0F9" stroke-width="1" stroke-linecap="square"></line><svg x="0" y="0" font-size="11" style="overflow:visible"><text transform="" x="712.5" y="19" fill="#1B2030" font-size="11" text-anchor="middle"><tspan x="712.5" dy="0em">50%</tspan></text></svg></g><g class="visx-group visx-axis-tick" transform="translate(0, 0)"><line class="visx-line" x1="1068.75" y1="0" x2="1068.75" y2="8" fill="transparent" shape-rendering="crispEdges" stroke="#F2F0F9" stroke-width="1" stroke-linecap="square"></line><svg x="0" y="0" font-size="11" style="overflow:visible"><text transform="" x="1068.75" y="19" fill="#1B2030" font-size="11" text-anchor="middle"><tspan x="1068.75" dy="0em">75%</tspan></text></svg></g><g class="visx-group visx-axis-tick" transform="translate(0, 0)"><line class="visx-line" x1="1425" y1="0" x2="1425" y2="8" fill="transparent" shape-rendering="crispEdges" stroke="#F2F0F9" stroke-width="1" stroke-linecap="square"></line><svg x="0" y="0" font-size="11" style="overflow:visible"><text transform="" x="1425" y="19" fill="#1B2030" font-size="11" text-anchor="middle"><tspan x="1425" dy="0em">100%</tspan></text></svg></g></g><g class="visx-group visx-axis visx-axis-left" transform="translate(0, 0)"><g class="visx-group visx-axis-tick" transform="translate(0, 0)"><line class="visx-line" x1="0" y1="155" x2="-8" y2="155" fill="transparent" shape-rendering="crispEdges" stroke="#F2F0F9" stroke-width="1" stroke-linecap="square"></line><svg x="-30" y="0" font-size="11" style="overflow:visible"><text transform="" x="-8" y="155" fill="#1B2030" font-size="11" text-anchor="start"><tspan x="-8" dy="0em">0%</tspan></text></svg></g><g class="visx-group visx-axis-tick" transform="translate(0, 0)"><line class="visx-line" x1="0" y1="120.55555555555556" x2="-8" y2="120.55555555555556" fill="transparent" shape-rendering="crispEdges" stroke="#F2F0F9" stroke-width="1" stroke-linecap="square"></line><svg x="-30" y="0" font-size="11" style="overflow:visible"><text transform="" x="-8" y="120.55555555555556" fill="#1B2030" font-size="11" text-anchor="start"><tspan x="-8" dy="0em">20%</tspan></text></svg></g><g class="visx-group visx-axis-tick" transform="translate(0, 0)"><line class="visx-line" x1="0" y1="86.11111111111111" x2="-8" y2="86.11111111111111" fill="transparent" shape-rendering="crispEdges" stroke="#F2F0F9" stroke-width="1" stroke-linecap="square"></line><svg x="-30" y="0" font-size="11" style="overflow:visible"><text transform="" x="-8" y="86.11111111111111" fill="#1B2030" font-size="11" text-anchor="start"><tspan x="-8" dy="0em">40%</tspan></text></svg></g><g class="visx-group visx-axis-tick" transform="translate(0, 0)"><line class="visx-line" x1="0" y1="51.66666666666667" x2="-8" y2="51.66666666666667" fill="transparent" shape-rendering="crispEdges" stroke="#F2F0F9" stroke-width="1" stroke-linecap="square"></line><svg x="-30" y="0" font-size="11" style="overflow:visible"><text transform="" x="-8" y="51.66666666666667" fill="#1B2030" font-size="11" text-anchor="start"><tspan x="-8" dy="0em">60%</tspan></text></svg></g><g class="visx-group visx-axis-tick" transform="translate(0, 0)"><line class="visx-line" x1="0" y1="17.22222222222223" x2="-8" y2="17.22222222222223" fill="transparent" shape-rendering="crispEdges" stroke="#F2F0F9" stroke-width="1" stroke-linecap="square"></line><svg x="-30" y="0" font-size="11" style="overflow:visible"><text transform="" x="-8" y="17.22222222222223" fill="#1B2030" font-size="11" text-anchor="start"><tspan x="-8" dy="0em">80%</tspan></text></svg></g><line class="visx-line visx-axis-line" x1="0" y1="155.5" x2="0" y2="0.5" fill="transparent" shape-rendering="crispEdges" stroke="#F2F0F9" stroke-width="1"></line></g><rect class="visx-bar" width="1425" height="155" fill="transparent"></rect><line class="visx-line" x1="1140" y1="58" x2="1140" y2="155" fill="transparent" shape-rendering="crispEdges" stroke="#CDC8E1" stroke-width="1" pointer-events="none" stroke-dasharray="5"></line><svg x="0" y="0" font-size="11px" style="overflow:visible"><text transform="" x="1140" y="50" font-size="11px" fill="#555069" stroke="#FFFFFF" stroke-width="1px" text-anchor="middle"><tspan x="1140" dy="0.355em">uOptimal 80%</tspan></text></svg><svg x="0" y="0" font-size="11px" style="overflow:visible"><text transform="" x="1140" y="50" font-size="11px" fill="#CDC8E1" text-anchor="middle"><tspan x="1140" dy="0.355em">uOptimal 80%</tspan></text></svg></g></svg>