<?xml version="1.0"?><svg xmlns="http://www.w3.org/2000/svg" xmlns:xlink= "http://www.w3.org/1999/xlink" style="background: white;" width="1500" height="300"> <g style="color: black; font-size: 13px; font-family: sans-serif; transform: translate(18px, 25px);"><g><circle r="3" cx="-6" cy="-5" style="fill: #1AD4B3" /><text>Borrow APR, variable</text></g><g style="transform: translateX(150px);"><circle r="3" cx="-6" cy="-5" style="fill: #101423" /><text>Borrow APR, stable</text></g></g><g class="visx-group" transform="translate(45, 50)"><g class="visx-group visx-rows" transform="translate(0, 0)"><line class="visx-line" x1="0" y1="155" x2="1425" y2="155" fill="transparent" shape-rendering="crispEdges" stroke="#F2F0F9" stroke-width="1" pointer-events="none"></line><line class="visx-line" x1="0" y1="77.5" x2="1425" y2="77.5" fill="transparent" shape-rendering="crispEdges" stroke="#F2F0F9" stroke-width="1" pointer-events="none"></line><line class="visx-line" x1="0" y1="0" x2="1425" y2="0" fill="transparent" shape-rendering="crispEdges" stroke="#F2F0F9" stroke-width="1" pointer-events="none"></line></g><path class="visx-linepath" d="M0,154.99999999994574C2.375,154.99095833330168,4.75,154.9819166666576,7.125,154.972875C9.5,154.96383333334236,11.875,154.95479166666667,14.25,154.94575C16.625,154.93670833333334,19,154.92766666666665,21.375,154.918625C23.75,154.90958333333333,26.125,154.90054166666667,28.5,154.8915C30.875,154.88245833333335,33.25,154.87341666666666,35.625,154.864375C38,154.85533333333333,40.375,154.84629166666667,42.75,154.83725C45.125,154.82820833333335,47.50000000000001,154.81916666666666,49.87500000000001,154.810125C52.25000000000001,154.80108333333334,54.625,154.79204166666668,57,154.78300000000002C59.375,154.77395833333335,61.75,154.76491666666666,64.125,154.755875C66.5,154.74683333333334,68.875,154.73779166666665,71.25,154.72875C73.625,154.71970833333333,76,154.71066666666667,78.375,154.701625C80.75,154.69258333333335,83.125,154.68354166666666,85.5,154.6745C87.875,154.66545833333333,90.25,154.65641666666664,92.625,154.64737499999998C95,154.63833333333332,97.37500000000001,154.62929166666666,99.75000000000001,154.62025C102.12500000000001,154.61120833333334,104.5,154.60216666666668,106.875,154.59312500000001C109.25,154.58408333333335,111.625,154.57504166666666,114,154.566C116.375,154.55695833333334,118.75000000000001,154.54791666666668,121.12500000000001,154.53887500000002C123.50000000000001,154.52983333333336,125.875,154.52079166666667,128.25,154.51175C130.625,154.50270833333335,133,154.49366666666666,135.375,154.484625C137.75,154.47558333333333,140.125,154.46654166666667,142.5,154.4575C144.875,154.44845833333335,147.25,154.43941666666666,149.625,154.430375C152,154.42133333333334,154.375,154.41229166666665,156.75,154.40324999999999C159.125,154.39420833333332,161.5,154.38516666666666,163.875,154.376125C166.25,154.36708333333334,168.625,154.35804166666665,171,154.349C173.375,154.33995833333333,175.75,154.33091666666667,178.125,154.321875C180.5,154.31283333333334,182.875,154.30379166666665,185.25,154.29475C187.625,154.28570833333333,190,154.27666666666667,192.375,154.267625C194.75,154.25858333333335,197.12500000000003,154.24954166666666,199.50000000000003,154.2405C201.875,154.23145833333334,204.25,154.22241666666665,206.62499999999997,154.21337499999998C208.99999999999997,154.20433333333332,211.375,154.19529166666666,213.75,154.18625C216.125,154.17720833333334,218.5,154.16816666666665,220.875,154.159125C223.25,154.15008333333333,225.625,154.14104166666667,228,154.132C230.375,154.12295833333334,232.75,154.11391666666665,235.125,154.104875C237.5,154.09583333333333,239.87500000000003,154.08679166666667,242.25000000000003,154.07775C244.625,154.06870833333335,247,154.05966666666666,249.37499999999997,154.050625C251.74999999999997,154.04158333333334,254.125,154.03254166666667,256.5,154.0235C258.875,154.01445833333335,261.25,154.00541666666666,263.625,153.996375C266,153.98733333333334,268.375,153.97829166666665,270.75,153.96925C273.125,153.96020833333333,275.5,153.95116666666667,277.875,153.942125C280.25,153.93308333333334,282.625,153.92404166666665,285,153.915C287.375,153.90595833333333,289.75,153.89691666666664,292.125,153.88787499999998C294.5,153.87883333333332,296.875,153.86979166666666,299.25,153.86075C301.625,153.85170833333333,304,153.84266666666667,306.375,153.833625C308.75,153.82458333333335,311.125,153.81554166666666,313.5,153.8065C315.875,153.79745833333334,318.25,153.78841666666668,320.625,153.77937500000002C323,153.77033333333335,325.375,153.76129166666666,327.75,153.75225C330.125,153.74320833333334,332.5,153.73416666666665,334.875,153.725125C337.25,153.71608333333333,339.625,153.70704166666667,342,153.698C344.375,153.68895833333335,346.75,153.67991666666666,349.125,153.670875C351.5,153.66183333333333,353.875,153.65279166666664,356.25,153.64374999999998C358.625,153.63470833333332,361,153.62566666666666,363.375,153.616625C365.75,153.60758333333334,368.125,153.59854166666665,370.5,153.5895C372.875,153.58045833333333,375.25,153.57141666666666,377.625,153.562375C380,153.55333333333334,382.375,153.54429166666668,384.75,153.53525000000002C387.125,153.52620833333336,389.50000000000006,153.51716666666667,391.87500000000006,153.508125C394.25000000000006,153.49908333333335,396.62500000000006,153.49004166666666,399.00000000000006,153.481C401.375,153.47195833333333,403.75,153.46291666666667,406.12499999999994,153.453875C408.49999999999994,153.44483333333335,410.87499999999994,153.43579166666666,413.24999999999994,153.42675C415.62499999999994,153.41770833333334,418,153.40866666666665,420.375,153.399625C422.75,153.39058333333332,425.125,153.38154166666666,427.5,153.3725C429.875,153.36345833333334,432.25,153.35441666666665,434.625,153.345375C437,153.33633333333333,439.375,153.32729166666667,441.75,153.31825C444.125,153.30920833333334,446.5,153.30016666666666,448.875,153.291125C451.25,153.28208333333333,453.625,153.27304166666667,456,153.264C458.375,153.25495833333335,460.75,153.24591666666666,463.125,153.236875C465.5,153.22783333333334,467.875,153.21879166666668,470.25,153.20975C472.625,153.20070833333335,475.00000000000006,153.19166666666666,477.37500000000006,153.182625C479.75000000000006,153.17358333333334,482.12500000000006,153.16454166666665,484.50000000000006,153.1555C486.875,153.14645833333333,489.25,153.13741666666667,491.62499999999994,153.128375C493.99999999999994,153.11933333333334,496.37499999999994,153.11029166666665,498.74999999999994,153.10125C501.12499999999994,153.09220833333333,503.5,153.08316666666667,505.875,153.074125C508.25,153.06508333333335,510.625,153.05604166666666,513,153.047C515.375,153.03795833333334,517.75,153.02891666666667,520.125,153.019875C522.5,153.01083333333335,524.875,153.00179166666666,527.25,152.99275C529.625,152.98370833333334,532,152.97466666666665,534.375,152.965625C536.75,152.95658333333333,539.125,152.94754166666667,541.5,152.9385C543.875,152.92945833333334,546.25,152.92041666666665,548.625,152.911375C551,152.90233333333333,553.375,152.89329166666664,555.75,152.88424999999998C558.125,152.87520833333332,560.5,152.86616666666666,562.875,152.857125C565.25,152.84808333333334,567.625,152.83904166666665,570,152.82999999999998C572.375,152.82095833333332,574.75,152.81191666666666,577.125,152.802875C579.5,152.79383333333334,581.875,152.78479166666668,584.25,152.77575000000002C586.625,152.76670833333336,589,152.75766666666667,591.375,152.748625C593.75,152.73958333333334,596.125,152.73054166666665,598.5,152.7215C600.875,152.71245833333333,603.25,152.70341666666667,605.625,152.694375C608,152.68533333333335,610.375,152.67629166666666,612.75,152.66725C615.125,152.65820833333333,617.5,152.64916666666664,619.875,152.64012499999998C622.25,152.63108333333332,624.625,152.62204166666666,627,152.613C629.375,152.60395833333334,631.75,152.59491666666665,634.125,152.585875C636.5,152.57683333333333,638.875,152.56779166666666,641.25,152.55875C643.625,152.54970833333334,646,152.54066666666665,648.375,152.531625C650.75,152.52258333333333,653.125,152.51354166666667,655.5,152.5045C657.875,152.49545833333335,660.25,152.48641666666666,662.625,152.477375C665,152.46833333333333,667.375,152.45929166666667,669.75,152.45025C672.125,152.44120833333335,674.5,152.43216666666666,676.875,152.423125C679.25,152.41408333333334,681.625,152.40504166666665,684,152.396C686.375,152.38695833333333,688.75,152.37791666666666,691.125,152.368875C693.5,152.35983333333334,695.875,152.35079166666665,698.25,152.34175C700.625,152.33270833333333,703,152.32366666666667,705.375,152.314625C707.75,152.30558333333335,710.125,152.29654166666666,712.5,152.2875C714.875,152.27845833333333,717.25,152.26941666666667,719.625,152.260375C722,152.25133333333335,724.375,152.24229166666666,726.75,152.23325C729.125,152.22420833333334,731.5,152.21516666666668,733.875,152.20612500000001C736.25,152.19708333333335,738.625,152.18804166666666,741,152.179C743.375,152.16995833333334,745.75,152.16091666666665,748.125,152.151875C750.5,152.14283333333333,752.875,152.13379166666667,755.25,152.12475C757.625,152.11570833333334,760,152.10666666666665,762.375,152.097625C764.75,152.08858333333333,767.125,152.07954166666667,769.5,152.0705C771.875,152.06145833333335,774.2500000000001,152.05241666666666,776.6250000000001,152.043375C779.0000000000001,152.03433333333334,781.3750000000001,152.02529166666667,783.7500000000001,152.01625C786.1250000000001,152.00720833333335,788.5000000000001,151.99816666666666,790.8750000000001,151.989125C793.2500000000001,151.98008333333334,795.6250000000001,151.97104166666668,798.0000000000001,151.96200000000002C800.375,151.95295833333336,802.75,151.94391666666667,805.1249999999999,151.934875C807.4999999999999,151.92583333333334,809.8749999999999,151.91679166666665,812.2499999999999,151.90775C814.6249999999999,151.89870833333333,816.9999999999999,151.88966666666667,819.3749999999999,151.880625C821.7499999999999,151.87158333333335,824.1249999999999,151.86254166666666,826.4999999999999,151.8535C828.8749999999999,151.84445833333334,831.25,151.83541666666665,833.625,151.82637499999998C836,151.81733333333332,838.375,151.80829166666666,840.75,151.79925C843.125,151.79020833333334,845.5,151.78116666666668,847.875,151.77212500000002C850.25,151.76308333333336,852.625,151.75404166666667,855,151.745C857.375,151.73595833333334,859.75,151.72691666666668,862.125,151.71787500000002C864.5,151.70883333333336,866.875,151.69979166666667,869.25,151.69075C871.625,151.68170833333335,874,151.67266666666666,876.375,151.663625C878.75,151.65458333333333,881.125,151.64554166666665,883.5,151.63649999999998C885.875,151.62745833333332,888.25,151.61841666666666,890.625,151.609375C893,151.60033333333334,895.375,151.59129166666665,897.75,151.58225C900.125,151.57320833333333,902.5,151.56416666666667,904.875,151.555125C907.25,151.54608333333334,909.625,151.53704166666665,912,151.528C914.375,151.51895833333333,916.75,151.50991666666667,919.125,151.500875C921.5,151.49183333333335,923.875,151.48279166666666,926.25,151.47375C928.625,151.46470833333333,931,151.45566666666667,933.375,151.446625C935.75,151.43758333333335,938.125,151.42854166666666,940.5,151.4195C942.875,151.41045833333334,945.25,151.40141666666665,947.625,151.392375C950,151.38333333333333,952.3750000000001,151.37429166666666,954.7500000000001,151.36525C957.1250000000001,151.35620833333334,959.5000000000001,151.34716666666665,961.8750000000001,151.338125C964.2500000000001,151.32908333333333,966.6250000000001,151.32004166666667,969.0000000000001,151.311C971.3750000000001,151.30195833333335,973.7500000000001,151.29291666666666,976.1250000000001,151.283875C978.5,151.27483333333333,980.875,151.26579166666667,983.2499999999999,151.25675C985.6249999999999,151.24770833333335,987.9999999999999,151.23866666666666,990.3749999999999,151.229625C992.7499999999999,151.22058333333334,995.1249999999999,151.21154166666668,997.4999999999999,151.20250000000001C999.8749999999999,151.19345833333335,1002.2499999999999,151.18441666666666,1004.6249999999999,151.175375C1006.9999999999999,151.16633333333334,1009.375,151.15729166666665,1011.75,151.14825C1014.125,151.13920833333333,1016.5,151.13016666666667,1018.875,151.121125C1021.25,151.11208333333335,1023.625,151.10304166666666,1026,151.094C1028.375,151.08495833333333,1030.75,151.07591666666664,1033.125,151.06687499999998C1035.5,151.05783333333332,1037.875,151.04879166666666,1040.25,151.03975C1042.625,151.03070833333334,1045,151.02166666666668,1047.375,151.012625C1049.75,151.00358333333335,1052.125,150.99454166666666,1054.5,150.9855C1056.875,150.97645833333334,1059.25,150.96741666666668,1061.625,150.95837500000002C1064,150.94933333333336,1066.375,150.94029166666667,1068.75,150.93125C1071.125,150.92220833333334,1073.5,150.91316666666665,1075.875,150.904125C1078.25,150.89508333333333,1080.625,150.88604166666667,1083,150.877C1085.375,150.86795833333335,1087.75,150.85891666666666,1090.125,150.849875C1092.5,150.84083333333334,1094.875,150.83179166666665,1097.25,150.82274999999998C1099.625,150.81370833333332,1102,150.80466666666666,1104.375,150.795625C1106.75,150.78658333333334,1109.125,150.77754166666665,1111.5,150.7685C1113.875,150.75945833333333,1116.25,150.75041666666667,1118.625,150.741375C1121,150.73233333333334,1123.375,150.72329166666668,1125.75,150.71425000000002C1128.125,150.70520833333336,1130.5,150.69616666666667,1132.875,150.687125C1135.25,150.67808333333335,1137.625,150.67808333333335,1140,150.66C1142.375,150.64191666666665,1144.75,148.59333333333333,1147.125,147.56C1149.5,146.52666666666667,1151.875,145.4933333333333,1154.25,144.45999999999998C1156.625,143.42666666666665,1159,142.39333333333335,1161.375,141.36C1163.75,140.32666666666668,1166.125,139.29333333333332,1168.5,138.26C1170.875,137.22666666666666,1173.25,136.19333333333333,1175.625,135.16C1178,134.12666666666667,1180.375,133.09333333333333,1182.75,132.06C1185.125,131.02666666666667,1187.5,129.99333333333334,1189.875,128.96C1192.25,127.92666666666668,1194.625,126.89333333333335,1197,125.86000000000001C1199.375,124.82666666666668,1201.75,123.79333333333334,1204.125,122.76C1206.5,121.72666666666667,1208.875,120.69333333333333,1211.25,119.66C1213.625,118.62666666666667,1216,117.59333333333333,1218.375,116.56C1220.75,115.52666666666667,1223.125,114.49333333333333,1225.5,113.46C1227.875,112.42666666666666,1230.25,111.39333333333333,1232.625,110.36C1235,109.32666666666667,1237.375,108.29333333333332,1239.75,107.25999999999999C1242.125,106.22666666666666,1244.5,105.19333333333331,1246.875,104.15999999999998C1249.25,103.12666666666665,1251.625,102.09333333333333,1254,101.06C1256.375,100.02666666666667,1258.75,98.99333333333334,1261.125,97.96000000000001C1263.5,96.92666666666668,1265.875,95.89333333333332,1268.25,94.85999999999999C1270.625,93.82666666666665,1273,92.79333333333335,1275.375,91.76000000000002C1277.75,90.72666666666669,1280.125,89.69333333333336,1282.5,88.66000000000001C1284.875,87.62666666666667,1287.25,86.59333333333332,1289.625,85.55999999999999C1292,84.52666666666666,1294.375,83.49333333333334,1296.75,82.46000000000001C1299.125,81.42666666666668,1301.5,80.39333333333333,1303.875,79.36C1306.25,78.32666666666667,1308.625,77.29333333333334,1311,76.26C1313.375,75.22666666666667,1315.75,74.19333333333333,1318.125,73.16C1320.5,72.12666666666667,1322.875,71.09333333333332,1325.25,70.05999999999999C1327.625,69.02666666666666,1330,67.99333333333334,1332.375,66.96000000000001C1334.75,65.92666666666668,1337.125,64.89333333333335,1339.5,63.86000000000001C1341.875,62.826666666666675,1344.25,61.79333333333334,1346.625,60.760000000000005C1349,59.726666666666674,1351.375,58.69333333333333,1353.75,57.66C1356.125,56.626666666666665,1358.5,55.59333333333333,1360.875,54.559999999999995C1363.25,53.526666666666664,1365.625,52.49333333333334,1368,51.46000000000001C1370.375,50.42666666666668,1372.75,49.39333333333334,1375.125,48.36000000000001C1377.5,47.326666666666675,1379.875,46.29333333333334,1382.25,45.260000000000005C1384.625,44.226666666666674,1387,43.193333333333335,1389.375,42.160000000000004C1391.75,41.12666666666667,1394.125,40.093333333333334,1396.5,39.06C1398.875,38.02666666666667,1401.25,36.99333333333333,1403.625,35.96C1406,34.92666666666667,1408.375,33.89333333333335,1410.75,32.860000000000014C1413.125,31.826666666666675,1415.5,30.793333333333308,1417.875,29.759999999999973C1420.25,28.726666666666638,1422.625,27.693333333333324,1425,26.660000000000007" fill="transparent" stroke-linecap="round" stroke="#1AD4B3" stroke-width="2"></path><g class="visx-group visx-axis visx-axis-bottom" transform="translate(0, 155)"><g class="visx-group visx-axis-tick" transform="translate(0, 0)"><line class="visx-line" x1="0" y1="0" x2="0" y2="8" fill="transparent" shape-rendering="crispEdges" stroke="#F2F0F9" stroke-width="1" stroke-linecap="square"></line><svg x="0" y="0" font-size="11" style="overflow:visible"><text transform="" x="0" y="19" fill="#1B2030" font-size="11" text-anchor="middle"><tspan x="0" dy="0em">0%</tspan></text></svg></g><g class="visx-group visx-axis-tick" transform="translate(0, 0)"><line class="visx-line" x1="356.25" y1="0" x2="356.25" y2="8" fill="transparent" shape-rendering="crispEdges" stroke="#F2F0F9" stroke-width="1" stroke-linecap="square"></line><svg x="0" y="0" font-size="11" style="overflow:visible"><text transform="" x="356.25" y="19" fill="#1B2030" font-size="11" text-anchor="middle"><tspan x="356.25" dy="0em">25%</tspan></text></svg></g><g class="visx-group visx-axis-tick" transform="translate(0, 0)"><line class="visx-line" x1="712.5" y1="0" x2="712.5" y2="8" fill="transparent" shape-rendering="crispEdges" stroke="#F2F0F9" stroke-width="1" stroke-linecap="square"></line><svg x="0" y="0" font-size="11" style="overflow:visible"><text transform="" x="712.5" y="19" fill="#1B2030" font-size="11" text-anchor="middle"><tspan x="712.5" dy="0em">50%</tspan></text></svg></g><g class="visx-group visx-axis-tick" transform="translate(0, 0)"><line class="visx-line" x1="1068.75" y1="0" x2="1068.75" y2="8" fill="transparent" shape-rendering="crispEdges" stroke="#F2F0F9" stroke-width="1" stroke-linecap="square"></line><svg x="0" y="0" font-size="11" style="overflow:visible"><text transform="" x="1068.75" y="19" fill="#1B2030" font-size="11" text-anchor="middle"><tspan x="1068.75" dy="0em">75%</tspan></text></svg></g><g class="visx-group visx-axis-tick" transform="translate(0, 0)"><line class="visx-line" x1="1425" y1="0" x2="1425" y2="8" fill="transparent" shape-rendering="crispEdges" stroke="#F2F0F9" stroke-width="1" stroke-linecap="square"></line><svg x="0" y="0" font-size="11" style="overflow:visible"><text transform="" x="1425" y="19" fill="#1B2030" font-size="11" text-anchor="middle"><tspan x="1425" dy="0em">100%</tspan></text></svg></g></g><g class="visx-group visx-axis visx-axis-left" transform="translate(0, 0)"><g class="visx-group visx-axis-tick" transform="translate(0, 0)"><line class="visx-line" x1="0" y1="155" x2="-8" y2="155" fill="transparent" shape-rendering="crispEdges" stroke="#F2F0F9" stroke-width="1" stroke-linecap="square"></line><svg x="-30" y="0" font-size="11" style="overflow:visible"><text transform="" x="-8" y="155" fill="#1B2030" font-size="11" text-anchor="start"><tspan x="-8" dy="0em">0%</tspan></text></svg></g><g class="visx-group visx-axis-tick" transform="translate(0, 0)"><line class="visx-line" x1="0" y1="77.5" x2="-8" y2="77.5" fill="transparent" shape-rendering="crispEdges" stroke="#F2F0F9" stroke-width="1" stroke-linecap="square"></line><svg x="-30" y="0" font-size="11" style="overflow:visible"><text transform="" x="-8" y="77.5" fill="#1B2030" font-size="11" text-anchor="start"><tspan x="-8" dy="0em">50%</tspan></text></svg></g><g class="visx-group visx-axis-tick" transform="translate(0, 0)"><line class="visx-line" x1="0" y1="0" x2="-8" y2="0" fill="transparent" shape-rendering="crispEdges" stroke="#F2F0F9" stroke-width="1" stroke-linecap="square"></line><svg x="-30" y="0" font-size="11" style="overflow:visible"><text transform="" x="-8" y="0" fill="#1B2030" font-size="11" text-anchor="start"><tspan x="-8" dy="0em">100%</tspan></text></svg></g><line class="visx-line visx-axis-line" x1="0" y1="155.5" x2="0" y2="0.5" fill="transparent" shape-rendering="crispEdges" stroke="#F2F0F9" stroke-width="1"></line></g><rect class="visx-bar" width="1425" height="155" fill="transparent"></rect><line class="visx-line" x1="1140" y1="58" x2="1140" y2="155" fill="transparent" shape-rendering="crispEdges" stroke="#CDC8E1" stroke-width="1" pointer-events="none" stroke-dasharray="5"></line><svg x="0" y="0" font-size="11px" style="overflow:visible"><text transform="" x="1140" y="50" font-size="11px" fill="#555069" stroke="#FFFFFF" stroke-width="1px" text-anchor="middle"><tspan x="1140" dy="0.355em">uOptimal 80%</tspan></text></svg><svg x="0" y="0" font-size="11px" style="overflow:visible"><text transform="" x="1140" y="50" font-size="11px" fill="#CDC8E1" text-anchor="middle"><tspan x="1140" dy="0.355em">uOptimal 80%</tspan></text></svg></g></svg>