<?xml version="1.0"?><svg xmlns="http://www.w3.org/2000/svg" xmlns:xlink= "http://www.w3.org/1999/xlink" style="background: white;" width="1500" height="300"> <g style="color: black; font-size: 13px; font-family: sans-serif; transform: translate(18px, 25px);"><g><circle r="3" cx="-6" cy="-5" style="fill: #1AD4B3" /><text>Borrow APR, variable</text></g><g style="transform: translateX(150px);"><circle r="3" cx="-6" cy="-5" style="fill: #101423" /><text>Borrow APR, stable</text></g></g><g class="visx-group" transform="translate(45, 50)"><g class="visx-group visx-rows" transform="translate(0, 0)"><line class="visx-line" x1="0" y1="155" x2="1425" y2="155" fill="transparent" shape-rendering="crispEdges" stroke="#F2F0F9" stroke-width="1" pointer-events="none"></line><line class="visx-line" x1="0" y1="84.54545454545453" x2="1425" y2="84.54545454545453" fill="transparent" shape-rendering="crispEdges" stroke="#F2F0F9" stroke-width="1" pointer-events="none"></line><line class="visx-line" x1="0" y1="14.090909090909095" x2="1425" y2="14.090909090909095" fill="transparent" shape-rendering="crispEdges" stroke="#F2F0F9" stroke-width="1" pointer-events="none"></line></g><path class="visx-linepath" d="M0,154.99999999991192C2.375,154.98532196964558,4.75,154.97064393937927,7.125,154.9559659090909C9.5,154.94128787880254,11.875,154.92660984848484,14.25,154.9119318181818C16.625,154.89725378787878,19,154.88257575757575,21.375,154.86789772727272C23.75,154.8532196969697,26.125,154.83854166666669,28.5,154.82386363636365C30.875,154.80918560606062,33.25,154.79450757575756,35.625,154.77982954545453C38,154.7651515151515,40.375,154.7504734848485,42.75,154.73579545454547C45.125,154.72111742424244,47.50000000000001,154.7064393939394,49.87500000000001,154.69176136363637C52.25000000000001,154.67708333333334,54.625,154.66240530303028,57,154.64772727272725C59.375,154.63304924242422,61.75,154.61837121212122,64.125,154.6036931818182C66.5,154.58901515151516,68.875,154.57433712121212,71.25,154.5596590909091C73.625,154.54498106060606,76,154.53030303030303,78.375,154.515625C80.75,154.50094696969697,83.125,154.48626893939394,85.5,154.4715909090909C87.875,154.45691287878788,90.25,154.44223484848484,92.625,154.4275568181818C95,154.41287878787878,97.37500000000001,154.39820075757575,99.75000000000001,154.38352272727272C102.12500000000001,154.3688446969697,104.5,154.35416666666666,106.875,154.33948863636363C109.25,154.3248106060606,111.625,154.3101325757576,114,154.29545454545456C116.375,154.28077651515153,118.75000000000001,154.26609848484847,121.12500000000001,154.25142045454544C123.50000000000001,154.2367424242424,125.875,154.2220643939394,128.25,154.20738636363637C130.625,154.19270833333334,133,154.1780303030303,135.375,154.16335227272728C137.75,154.14867424242425,140.125,154.13399621212122,142.5,154.1193181818182C144.875,154.10464015151516,147.25,154.08996212121212,149.625,154.0752840909091C152,154.06060606060606,154.375,154.04592803030303,156.75,154.03125C159.125,154.01657196969697,161.5,154.00189393939394,163.875,153.9872159090909C166.25,153.97253787878788,168.625,153.95785984848484,171,153.9431818181818C173.375,153.92850378787878,175.75,153.91382575757575,178.125,153.89914772727272C180.5,153.8844696969697,182.875,153.86979166666666,185.25,153.85511363636363C187.625,153.8404356060606,190,153.82575757575756,192.375,153.81107954545453C194.75,153.7964015151515,197.12500000000003,153.7817234848485,199.50000000000003,153.76704545454547C201.875,153.75236742424244,204.25,153.7376893939394,206.62499999999997,153.72301136363637C208.99999999999997,153.70833333333334,211.375,153.6936553030303,213.75,153.67897727272728C216.125,153.66429924242425,218.5,153.64962121212122,220.875,153.6349431818182C223.25,153.62026515151516,225.625,153.60558712121212,228,153.5909090909091C230.375,153.57623106060606,232.75,153.56155303030303,235.125,153.546875C237.5,153.53219696969697,239.87500000000003,153.51751893939394,242.25000000000003,153.5028409090909C244.625,153.48816287878788,247,153.47348484848484,249.37499999999997,153.4588068181818C251.74999999999997,153.44412878787878,254.125,153.42945075757575,256.5,153.41477272727272C258.875,153.4000946969697,261.25,153.38541666666666,263.625,153.37073863636363C266,153.3560606060606,268.375,153.3413825757576,270.75,153.32670454545456C273.125,153.31202651515153,275.5,153.29734848484847,277.875,153.28267045454544C280.25,153.2679924242424,282.625,153.2533143939394,285,153.23863636363637C287.375,153.22395833333334,289.75,153.2092803030303,292.125,153.19460227272728C294.5,153.17992424242425,296.875,153.16524621212122,299.25,153.1505681818182C301.625,153.13589015151516,304,153.12121212121212,306.375,153.1065340909091C308.75,153.09185606060606,311.125,153.07717803030303,313.5,153.0625C315.875,153.04782196969697,318.25,153.03314393939394,320.625,153.0184659090909C323,153.00378787878788,325.375,152.98910984848484,327.75,152.9744318181818C330.125,152.95975378787878,332.5,152.94507575757578,334.875,152.93039772727275C337.25,152.91571969696972,339.625,152.90104166666666,342,152.88636363636363C344.375,152.8716856060606,346.75,152.85700757575756,349.125,152.84232954545453C351.5,152.8276515151515,353.875,152.8129734848485,356.25,152.79829545454547C358.625,152.78361742424244,361,152.76893939393938,363.375,152.75426136363635C365.75,152.73958333333331,368.125,152.7249053030303,370.5,152.71022727272728C372.875,152.69554924242425,375.25,152.68087121212122,377.625,152.6661931818182C380,152.65151515151516,382.375,152.63683712121212,384.75,152.6221590909091C387.125,152.60748106060606,389.50000000000006,152.59280303030303,391.87500000000006,152.578125C394.25000000000006,152.56344696969697,396.62500000000006,152.54876893939394,399.00000000000006,152.5340909090909C401.375,152.51941287878788,403.75,152.50473484848484,406.12499999999994,152.4900568181818C408.49999999999994,152.47537878787878,410.87499999999994,152.46070075757575,413.24999999999994,152.44602272727272C415.62499999999994,152.4313446969697,418,152.41666666666669,420.375,152.40198863636365C422.75,152.38731060606062,425.125,152.37263257575756,427.5,152.35795454545453C429.875,152.3432765151515,432.25,152.3285984848485,434.625,152.31392045454547C437,152.29924242424244,439.375,152.2845643939394,441.75,152.26988636363637C444.125,152.25520833333334,446.5,152.24053030303028,448.875,152.22585227272725C451.25,152.21117424242422,453.625,152.19649621212122,456,152.1818181818182C458.375,152.16714015151516,460.75,152.15246212121212,463.125,152.1377840909091C465.5,152.12310606060606,467.875,152.10842803030303,470.25,152.09375C472.625,152.07907196969697,475.00000000000006,152.06439393939394,477.37500000000006,152.0497159090909C479.75000000000006,152.03503787878788,482.12500000000006,152.02035984848484,484.50000000000006,152.0056818181818C486.875,151.99100378787878,489.25,151.97632575757575,491.62499999999994,151.96164772727272C493.99999999999994,151.9469696969697,496.37499999999994,151.93229166666666,498.74999999999994,151.91761363636363C501.12499999999994,151.9029356060606,503.5,151.8882575757576,505.875,151.87357954545456C508.25,151.85890151515153,510.625,151.84422348484847,513,151.82954545454544C515.375,151.8148674242424,517.75,151.8001893939394,520.125,151.78551136363637C522.5,151.77083333333334,524.875,151.7561553030303,527.25,151.74147727272728C529.625,151.72679924242425,532,151.71212121212122,534.375,151.6974431818182C536.75,151.68276515151516,539.125,151.66808712121212,541.5,151.6534090909091C543.875,151.63873106060606,546.25,151.62405303030303,548.625,151.609375C551,151.59469696969697,553.375,151.58001893939394,555.75,151.5653409090909C558.125,151.55066287878788,560.5,151.53598484848484,562.875,151.5213068181818C565.25,151.50662878787878,567.625,151.49195075757575,570,151.47727272727272C572.375,151.4625946969697,574.75,151.44791666666669,577.125,151.43323863636365C579.5,151.41856060606062,581.875,151.40388257575756,584.25,151.38920454545453C586.625,151.3745265151515,589,151.3598484848485,591.375,151.34517045454547C593.75,151.33049242424244,596.125,151.31581439393938,598.5,151.30113636363635C600.875,151.28645833333331,603.25,151.2717803030303,605.625,151.25710227272728C608,151.24242424242425,610.375,151.22774621212122,612.75,151.2130681818182C615.125,151.19839015151516,617.5,151.18371212121212,619.875,151.1690340909091C622.25,151.15435606060606,624.625,151.13967803030303,627,151.125C629.375,151.11032196969697,631.75,151.09564393939394,634.125,151.0809659090909C636.5,151.06628787878788,638.875,151.05160984848484,641.25,151.0369318181818C643.625,151.02225378787878,646,151.00757575757575,648.375,150.99289772727272C650.75,150.9782196969697,653.125,150.96354166666666,655.5,150.94886363636363C657.875,150.9341856060606,660.25,150.9195075757576,662.625,150.90482954545456C665,150.89015151515153,667.375,150.87547348484847,669.75,150.86079545454544C672.125,150.8461174242424,674.5,150.8314393939394,676.875,150.81676136363637C679.25,150.80208333333334,681.625,150.7874053030303,684,150.77272727272728C686.375,150.75804924242425,688.75,150.74337121212122,691.125,150.7286931818182C693.5,150.71401515151516,695.875,150.69933712121212,698.25,150.6846590909091C700.625,150.66998106060606,703,150.65530303030303,705.375,150.640625C707.75,150.62594696969697,710.125,150.61126893939394,712.5,150.5965909090909C714.875,150.58191287878788,717.25,150.56723484848484,719.625,150.5525568181818C722,150.53787878787878,724.375,150.52320075757578,726.75,150.50852272727275C729.125,150.49384469696972,731.5,150.47916666666666,733.875,150.46448863636363C736.25,150.4498106060606,738.625,150.43513257575756,741,150.42045454545453C743.375,150.4057765151515,745.75,150.3910984848485,748.125,150.37642045454547C750.5,150.36174242424244,752.875,150.34706439393938,755.25,150.33238636363635C757.625,150.31770833333331,760,150.3030303030303,762.375,150.28835227272728C764.75,150.27367424242425,767.125,150.25899621212122,769.5,150.2443181818182C771.875,150.22964015151516,774.2500000000001,150.21496212121212,776.6250000000001,150.2002840909091C779.0000000000001,150.18560606060606,781.3750000000001,150.17092803030303,783.7500000000001,150.15625C786.1250000000001,150.14157196969697,788.5000000000001,150.12689393939394,790.8750000000001,150.1122159090909C793.2500000000001,150.09753787878788,795.6250000000001,150.08285984848484,798.0000000000001,150.0681818181818C800.375,150.05350378787878,802.75,150.03882575757575,805.1249999999999,150.02414772727272C807.4999999999999,150.0094696969697,809.8749999999999,149.99479166666669,812.2499999999999,149.98011363636365C814.6249999999999,149.96543560606062,816.9999999999999,149.95075757575756,819.3749999999999,149.93607954545453C821.7499999999999,149.9214015151515,824.1249999999999,149.9067234848485,826.4999999999999,149.89204545454547C828.8749999999999,149.87736742424244,831.25,149.8626893939394,833.625,149.84801136363637C836,149.83333333333334,838.375,149.81865530303028,840.75,149.80397727272725C843.125,149.78929924242422,845.5,149.77462121212122,847.875,149.7599431818182C850.25,149.74526515151516,852.625,149.73058712121212,855,149.7159090909091C857.375,149.70123106060606,859.75,149.68655303030303,862.125,149.671875C864.5,149.65719696969697,866.875,149.64251893939394,869.25,149.6278409090909C871.625,149.61316287878788,874,149.59848484848484,876.375,149.5838068181818C878.75,149.56912878787878,881.125,149.55445075757575,883.5,149.53977272727272C885.875,149.5250946969697,888.25,149.51041666666666,890.625,149.49573863636363C893,149.4810606060606,895.375,149.4663825757576,897.75,149.45170454545456C900.125,149.43702651515153,902.5,149.42234848484847,904.875,149.40767045454544C907.25,149.3929924242424,909.625,149.3783143939394,912,149.36363636363637C914.375,149.34895833333334,916.75,149.3342803030303,919.125,149.31960227272728C921.5,149.30492424242425,923.875,149.29024621212122,926.25,149.2755681818182C928.625,149.26089015151516,931,149.24621212121212,933.375,149.2315340909091C935.75,149.21685606060606,938.125,149.20217803030303,940.5,149.1875C942.875,149.17282196969697,945.25,149.15814393939394,947.625,149.1434659090909C950,149.12878787878788,952.3750000000001,149.11410984848484,954.7500000000001,149.0994318181818C957.1250000000001,149.08475378787878,959.5000000000001,149.07007575757575,961.8750000000001,149.05539772727272C964.2500000000001,149.0407196969697,966.6250000000001,149.02604166666669,969.0000000000001,149.01136363636365C971.3750000000001,148.99668560606062,973.7500000000001,148.98200757575756,976.1250000000001,148.96732954545453C978.5,148.9526515151515,980.875,148.9379734848485,983.2499999999999,148.92329545454547C985.6249999999999,148.90861742424244,987.9999999999999,148.89393939393938,990.3749999999999,148.87926136363635C992.7499999999999,148.86458333333331,995.1249999999999,148.8499053030303,997.4999999999999,148.83522727272728C999.8749999999999,148.82054924242425,1002.2499999999999,148.80587121212122,1004.6249999999999,148.7911931818182C1006.9999999999999,148.77651515151516,1009.375,148.76183712121212,1011.75,148.7471590909091C1014.125,148.73248106060606,1016.5,148.71780303030303,1018.875,148.703125C1021.25,148.68844696969697,1023.625,148.67376893939394,1026,148.6590909090909C1028.375,148.64441287878788,1030.75,148.62973484848484,1033.125,148.6150568181818C1035.5,148.60037878787878,1037.875,148.58570075757575,1040.25,148.57102272727272C1042.625,148.5563446969697,1045,148.54166666666666,1047.375,148.52698863636363C1049.75,148.5123106060606,1052.125,148.4976325757576,1054.5,148.48295454545456C1056.875,148.46827651515153,1059.25,148.45359848484847,1061.625,148.43892045454544C1064,148.4242424242424,1066.375,148.4095643939394,1068.75,148.39488636363637C1071.125,148.38020833333334,1073.5,148.3655303030303,1075.875,148.35085227272728C1078.25,148.33617424242425,1080.625,148.32149621212122,1083,148.3068181818182C1085.375,148.29214015151516,1087.75,148.27746212121212,1090.125,148.2627840909091C1092.5,148.24810606060606,1094.875,148.23342803030303,1097.25,148.21875C1099.625,148.20407196969697,1102,148.18939393939394,1104.375,148.1747159090909C1106.75,148.16003787878788,1109.125,148.14535984848484,1111.5,148.1306818181818C1113.875,148.11600378787878,1116.25,148.10132575757578,1118.625,148.08664772727275C1121,148.07196969696972,1123.375,148.05729166666666,1125.75,148.04261363636363C1128.125,148.0279356060606,1130.5,148.01325757575756,1132.875,147.99857954545453C1135.25,147.9839015151515,1137.625,147.9839015151515,1140,147.95454545454547C1142.375,147.92518939393943,1144.75,145.91136363636366,1147.125,144.88977272727274C1149.5,143.86818181818182,1151.875,142.84659090909093,1154.25,141.82500000000002C1156.625,140.8034090909091,1159,139.7818181818182,1161.375,138.7602272727273C1163.75,137.73863636363637,1166.125,136.71704545454546,1168.5,135.69545454545454C1170.875,134.67386363636362,1173.25,133.65227272727273,1175.625,132.6306818181818C1178,131.6090909090909,1180.375,130.5875,1182.75,129.5659090909091C1185.125,128.54431818181817,1187.5,127.52272727272727,1189.875,126.50113636363636C1192.25,125.47954545454546,1194.625,124.45795454545454,1197,123.43636363636364C1199.375,122.41477272727273,1201.75,121.39318181818182,1204.125,120.37159090909091C1206.5,119.35000000000001,1208.875,118.32840909090909,1211.25,117.30681818181819C1213.625,116.28522727272728,1216,115.26363636363638,1218.375,114.24204545454546C1220.75,113.22045454545454,1223.125,112.19886363636363,1225.5,111.17727272727272C1227.875,110.15568181818182,1230.25,109.1340909090909,1232.625,108.1125C1235,107.0909090909091,1237.375,106.06931818181818,1239.75,105.04772727272727C1242.125,104.02613636363637,1244.5,103.00454545454545,1246.875,101.98295454545455C1249.25,100.96136363636364,1251.625,99.93977272727273,1254,98.91818181818182C1256.375,97.89659090909092,1258.75,96.875,1261.125,95.8534090909091C1263.5,94.83181818181819,1265.875,93.81022727272727,1268.25,92.78863636363636C1270.625,91.76704545454544,1273,90.74545454545454,1275.375,89.72386363636363C1277.75,88.70227272727273,1280.125,87.68068181818181,1282.5,86.6590909090909C1284.875,85.6375,1287.25,84.61590909090908,1289.625,83.59431818181818C1292,82.57272727272728,1294.375,81.55113636363636,1296.75,80.52954545454546C1299.125,79.50795454545455,1301.5,78.48636363636363,1303.875,77.46477272727273C1306.25,76.44318181818183,1308.625,75.42159090909092,1311,74.40000000000002C1313.375,73.37840909090912,1315.75,72.35681818181818,1318.125,71.33522727272727C1320.5,70.31363636363635,1322.875,69.29204545454544,1325.25,68.27045454545454C1327.625,67.24886363636364,1330,66.22727272727272,1332.375,65.20568181818182C1334.75,64.18409090909091,1337.125,63.162499999999994,1339.5,62.14090909090908C1341.875,61.11931818181817,1344.25,60.09772727272727,1346.625,59.07613636363636C1349,58.05454545454545,1351.375,57.03295454545454,1353.75,56.01136363636363C1356.125,54.98977272727273,1358.5,53.96818181818183,1360.875,52.94659090909092C1363.25,51.92500000000001,1365.625,50.9034090909091,1368,49.88181818181819C1370.375,48.86022727272728,1372.75,47.83863636363636,1375.125,46.81704545454545C1377.5,45.79545454545454,1379.875,44.77386363636363,1382.25,43.75227272727272C1384.625,42.73068181818181,1387,41.7090909090909,1389.375,40.68749999999999C1391.75,39.66590909090909,1394.125,38.644318181818186,1396.5,37.62272727272728C1398.875,36.60113636363638,1401.25,35.57954545454547,1403.625,34.55795454545456C1406,33.536363636363646,1408.375,32.51477272727274,1410.75,31.493181818181828C1413.125,30.471590909090914,1415.5,29.449999999999992,1417.875,28.42840909090908C1420.25,27.40681818181817,1422.625,26.38522727272727,1425,25.36363636363637" fill="transparent" stroke-linecap="round" stroke="#1AD4B3" stroke-width="2"></path><g class="visx-group visx-axis visx-axis-bottom" transform="translate(0, 155)"><g class="visx-group visx-axis-tick" transform="translate(0, 0)"><line class="visx-line" x1="0" y1="0" x2="0" y2="8" fill="transparent" shape-rendering="crispEdges" stroke="#F2F0F9" stroke-width="1" stroke-linecap="square"></line><svg x="0" y="0" font-size="11" style="overflow:visible"><text transform="" x="0" y="19" fill="#1B2030" font-size="11" text-anchor="middle"><tspan x="0" dy="0em">0%</tspan></text></svg></g><g class="visx-group visx-axis-tick" transform="translate(0, 0)"><line class="visx-line" x1="356.25" y1="0" x2="356.25" y2="8" fill="transparent" shape-rendering="crispEdges" stroke="#F2F0F9" stroke-width="1" stroke-linecap="square"></line><svg x="0" y="0" font-size="11" style="overflow:visible"><text transform="" x="356.25" y="19" fill="#1B2030" font-size="11" text-anchor="middle"><tspan x="356.25" dy="0em">25%</tspan></text></svg></g><g class="visx-group visx-axis-tick" transform="translate(0, 0)"><line class="visx-line" x1="712.5" y1="0" x2="712.5" y2="8" fill="transparent" shape-rendering="crispEdges" stroke="#F2F0F9" stroke-width="1" stroke-linecap="square"></line><svg x="0" y="0" font-size="11" style="overflow:visible"><text transform="" x="712.5" y="19" fill="#1B2030" font-size="11" text-anchor="middle"><tspan x="712.5" dy="0em">50%</tspan></text></svg></g><g class="visx-group visx-axis-tick" transform="translate(0, 0)"><line class="visx-line" x1="1068.75" y1="0" x2="1068.75" y2="8" fill="transparent" shape-rendering="crispEdges" stroke="#F2F0F9" stroke-width="1" stroke-linecap="square"></line><svg x="0" y="0" font-size="11" style="overflow:visible"><text transform="" x="1068.75" y="19" fill="#1B2030" font-size="11" text-anchor="middle"><tspan x="1068.75" dy="0em">75%</tspan></text></svg></g><g class="visx-group visx-axis-tick" transform="translate(0, 0)"><line class="visx-line" x1="1425" y1="0" x2="1425" y2="8" fill="transparent" shape-rendering="crispEdges" stroke="#F2F0F9" stroke-width="1" stroke-linecap="square"></line><svg x="0" y="0" font-size="11" style="overflow:visible"><text transform="" x="1425" y="19" fill="#1B2030" font-size="11" text-anchor="middle"><tspan x="1425" dy="0em">100%</tspan></text></svg></g></g><g class="visx-group visx-axis visx-axis-left" transform="translate(0, 0)"><g class="visx-group visx-axis-tick" transform="translate(0, 0)"><line class="visx-line" x1="0" y1="155" x2="-8" y2="155" fill="transparent" shape-rendering="crispEdges" stroke="#F2F0F9" stroke-width="1" stroke-linecap="square"></line><svg x="-30" y="0" font-size="11" style="overflow:visible"><text transform="" x="-8" y="155" fill="#1B2030" font-size="11" text-anchor="start"><tspan x="-8" dy="0em">0%</tspan></text></svg></g><g class="visx-group visx-axis-tick" transform="translate(0, 0)"><line class="visx-line" x1="0" y1="84.54545454545453" x2="-8" y2="84.54545454545453" fill="transparent" shape-rendering="crispEdges" stroke="#F2F0F9" stroke-width="1" stroke-linecap="square"></line><svg x="-30" y="0" font-size="11" style="overflow:visible"><text transform="" x="-8" y="84.54545454545453" fill="#1B2030" font-size="11" text-anchor="start"><tspan x="-8" dy="0em">50%</tspan></text></svg></g><g class="visx-group visx-axis-tick" transform="translate(0, 0)"><line class="visx-line" x1="0" y1="14.090909090909095" x2="-8" y2="14.090909090909095" fill="transparent" shape-rendering="crispEdges" stroke="#F2F0F9" stroke-width="1" stroke-linecap="square"></line><svg x="-30" y="0" font-size="11" style="overflow:visible"><text transform="" x="-8" y="14.090909090909095" fill="#1B2030" font-size="11" text-anchor="start"><tspan x="-8" dy="0em">100%</tspan></text></svg></g><line class="visx-line visx-axis-line" x1="0" y1="155.5" x2="0" y2="0.5" fill="transparent" shape-rendering="crispEdges" stroke="#F2F0F9" stroke-width="1"></line></g><rect class="visx-bar" width="1425" height="155" fill="transparent"></rect><line class="visx-line" x1="1140" y1="58" x2="1140" y2="155" fill="transparent" shape-rendering="crispEdges" stroke="#CDC8E1" stroke-width="1" pointer-events="none" stroke-dasharray="5"></line><svg x="0" y="0" font-size="11px" style="overflow:visible"><text transform="" x="1140" y="50" font-size="11px" fill="#555069" stroke="#FFFFFF" stroke-width="1px" text-anchor="middle"><tspan x="1140" dy="0.355em">uOptimal 80%</tspan></text></svg><svg x="0" y="0" font-size="11px" style="overflow:visible"><text transform="" x="1140" y="50" font-size="11px" fill="#CDC8E1" text-anchor="middle"><tspan x="1140" dy="0.355em">uOptimal 80%</tspan></text></svg></g></svg>